<ttFont>
    <TTGlyph name="A" xMin="-61" yMin="0" xMax="578" yMax="710">
      <contour>
        <pt x="320" y="710" on="1"/>
        <pt x="499" y="710" on="1"/>
        <pt x="578" y="0" on="1"/>
        <pt x="380" y="0" on="1"/>
        <pt x="373" y="139" on="1"/>
        <pt x="203" y="139" on="1"/>
        <pt x="138" y="0" on="1"/>
        <pt x="-61" y="0" on="1"/>
      </contour>
      <contour>
        <pt x="370" y="269" on="1"/>
        <pt x="362" y="489" on="1"/>
        <pt x="259" y="269" on="1"/>
      </contour>
    </TTGlyph>
    <TTGlyph name="A.sc" xMin="-67" yMin="0" xMax="524" yMax="568">
      <contour>
        <pt x="281" y="568" on="1"/>
        <pt x="419" y="568" on="1"/>
        <pt x="524" y="0" on="1"/>
        <pt x="345" y="0" on="1"/>
        <pt x="330" y="102" on="1"/>
        <pt x="171" y="102" on="1"/>
        <pt x="114" y="0" on="1"/>
        <pt x="-67" y="0" on="1"/>
      </contour>
      <contour>
        <pt x="324" y="250" on="1"/>
        <pt x="306" y="363" on="1"/>
        <pt x="238" y="250" on="1"/>
      </contour>
    </TTGlyph>
    <TTGlyph name="AE" xMin="-80" yMin="0" xMax="983" yMax="710">
      <contour>
        <pt x="478" y="710" on="1"/>
        <pt x="983" y="710" on="1"/>
        <pt x="946" y="540" on="1"/>
        <pt x="687" y="540" on="1"/>
        <pt x="667" y="446" on="1"/>
        <pt x="875" y="446" on="1"/>
        <pt x="839" y="276" on="1"/>
        <pt x="631" y="276" on="1"/>
        <pt x="609" y="170" on="1"/>
        <pt x="876" y="170" on="1"/>
        <pt x="840" y="0" on="1"/>
        <pt x="378" y="0" on="1"/>
        <pt x="408" y="139" on="1"/>
        <pt x="221" y="139" on="1"/>
        <pt x="126" y="0" on="1"/>
        <pt x="-80" y="0" on="1"/>
      </contour>
      <contour>
        <pt x="429" y="309" on="1"/>
        <pt x="468" y="495" on="1"/>
        <pt x="339" y="309" on="1"/>
      </contour>
    </TTGlyph>
    <TTGlyph name="AEacute" xMin="-80" yMin="0" xMax="983" yMax="916">
      <contour>
        <pt x="656" y="762" on="1"/>
        <pt x="528" y="774" on="1"/>
        <pt x="605" y="916" on="1"/>
        <pt x="773" y="916" on="1"/>
      </contour>
      <contour>
        <pt x="478" y="710" on="1"/>
        <pt x="983" y="710" on="1"/>
        <pt x="946" y="540" on="1"/>
        <pt x="687" y="540" on="1"/>
        <pt x="667" y="446" on="1"/>
        <pt x="875" y="446" on="1"/>
        <pt x="839" y="276" on="1"/>
        <pt x="631" y="276" on="1"/>
        <pt x="609" y="170" on="1"/>
        <pt x="876" y="170" on="1"/>
        <pt x="840" y="0" on="1"/>
        <pt x="378" y="0" on="1"/>
        <pt x="408" y="139" on="1"/>
        <pt x="221" y="139" on="1"/>
        <pt x="126" y="0" on="1"/>
        <pt x="-80" y="0" on="1"/>
      </contour>
      <contour>
        <pt x="429" y="309" on="1"/>
        <pt x="468" y="495" on="1"/>
        <pt x="339" y="309" on="1"/>
      </contour>
    </TTGlyph>
    <TTGlyph name="Aacute" xMin="-61" yMin="0" xMax="578" yMax="916">
      <contour>
        <pt x="320" y="710" on="1"/>
        <pt x="499" y="710" on="1"/>
        <pt x="578" y="0" on="1"/>
        <pt x="380" y="0" on="1"/>
        <pt x="373" y="139" on="1"/>
        <pt x="203" y="139" on="1"/>
        <pt x="138" y="0" on="1"/>
        <pt x="-61" y="0" on="1"/>
      </contour>
      <contour>
        <pt x="370" y="269" on="1"/>
        <pt x="362" y="489" on="1"/>
        <pt x="259" y="269" on="1"/>
      </contour>
      <contour>
        <pt x="460" y="762" on="1"/>
        <pt x="332" y="774" on="1"/>
        <pt x="409" y="916" on="1"/>
        <pt x="577" y="916" on="1"/>
      </contour>
    </TTGlyph>
    <TTGlyph name="Abreve" xMin="-61" yMin="0" xMax="596" yMax="916">
      <contour>
        <pt x="320" y="710" on="1"/>
        <pt x="499" y="710" on="1"/>
        <pt x="578" y="0" on="1"/>
        <pt x="380" y="0" on="1"/>
        <pt x="373" y="139" on="1"/>
        <pt x="203" y="139" on="1"/>
        <pt x="138" y="0" on="1"/>
        <pt x="-61" y="0" on="1"/>
      </contour>
      <contour>
        <pt x="370" y="269" on="1"/>
        <pt x="362" y="489" on="1"/>
        <pt x="259" y="269" on="1"/>
      </contour>
      <contour>
        <pt x="423" y="835" on="1"/>
        <pt x="445" y="835" on="0"/>
        <pt x="487" y="881" on="0"/>
        <pt x="498" y="916" on="1"/>
        <pt x="596" y="916" on="1"/>
        <pt x="588" y="880" on="0"/>
        <pt x="553" y="821" on="0"/>
        <pt x="503" y="778" on="0"/>
        <pt x="440" y="754" on="0"/>
        <pt x="406" y="754" on="1"/>
        <pt x="346" y="754" on="0"/>
        <pt x="279" y="820" on="0"/>
        <pt x="279" y="875" on="1"/>
        <pt x="279" y="893" on="0"/>
        <pt x="284" y="916" on="1"/>
        <pt x="382" y="916" on="1"/>
        <pt x="379" y="904" on="0"/>
        <pt x="379" y="893" on="1"/>
        <pt x="379" y="868" on="0"/>
        <pt x="403" y="835" on="0"/>
      </contour>
    </TTGlyph>
    <TTGlyph name="Acircumflex" xMin="-61" yMin="0" xMax="606" yMax="916">
      <contour>
        <pt x="320" y="710" on="1"/>
        <pt x="499" y="710" on="1"/>
        <pt x="578" y="0" on="1"/>
        <pt x="380" y="0" on="1"/>
        <pt x="373" y="139" on="1"/>
        <pt x="203" y="139" on="1"/>
        <pt x="138" y="0" on="1"/>
        <pt x="-61" y="0" on="1"/>
      </contour>
      <contour>
        <pt x="370" y="269" on="1"/>
        <pt x="362" y="489" on="1"/>
        <pt x="259" y="269" on="1"/>
      </contour>
      <contour>
        <pt x="253" y="801" on="1"/>
        <pt x="386" y="916" on="1"/>
        <pt x="522" y="916" on="1"/>
        <pt x="606" y="801" on="1"/>
        <pt x="501" y="759" on="1"/>
        <pt x="434" y="822" on="1"/>
        <pt x="340" y="759" on="1"/>
      </contour>
    </TTGlyph>
    <TTGlyph name="Adblgrave" xMin="-61" yMin="0" xMax="578" yMax="918">
      <contour>
        <pt x="320" y="710" on="1"/>
        <pt x="499" y="710" on="1"/>
        <pt x="578" y="0" on="1"/>
        <pt x="380" y="0" on="1"/>
        <pt x="373" y="139" on="1"/>
        <pt x="203" y="139" on="1"/>
        <pt x="138" y="0" on="1"/>
        <pt x="-61" y="0" on="1"/>
      </contour>
      <contour>
        <pt x="370" y="269" on="1"/>
        <pt x="362" y="489" on="1"/>
        <pt x="259" y="269" on="1"/>
      </contour>
      <contour>
        <pt x="432" y="918" on="1"/>
        <pt x="569" y="918" on="1"/>
        <pt x="576" y="776" on="1"/>
        <pt x="476" y="762" on="1"/>
      </contour>
      <contour>
        <pt x="246" y="918" on="1"/>
        <pt x="384" y="918" on="1"/>
        <pt x="390" y="776" on="1"/>
        <pt x="290" y="762" on="1"/>
      </contour>
    </TTGlyph>
    <TTGlyph name="Adieresis" xMin="-61" yMin="0" xMax="637" yMax="907">
      <contour>
        <pt x="320" y="710" on="1"/>
        <pt x="499" y="710" on="1"/>
        <pt x="578" y="0" on="1"/>
        <pt x="380" y="0" on="1"/>
        <pt x="373" y="139" on="1"/>
        <pt x="203" y="139" on="1"/>
        <pt x="138" y="0" on="1"/>
        <pt x="-61" y="0" on="1"/>
      </contour>
      <contour>
        <pt x="370" y="269" on="1"/>
        <pt x="362" y="489" on="1"/>
        <pt x="259" y="269" on="1"/>
      </contour>
      <contour>
        <pt x="227" y="767" on="1"/>
        <pt x="257" y="907" on="1"/>
        <pt x="413" y="907" on="1"/>
        <pt x="383" y="767" on="1"/>
      </contour>
      <contour>
        <pt x="452" y="767" on="1"/>
        <pt x="482" y="907" on="1"/>
        <pt x="637" y="907" on="1"/>
        <pt x="608" y="767" on="1"/>
      </contour>
    </TTGlyph>
    <TTGlyph name="Agrave" xMin="-61" yMin="0" xMax="578" yMax="917">
      <contour>
        <pt x="320" y="710" on="1"/>
        <pt x="499" y="710" on="1"/>
        <pt x="578" y="0" on="1"/>
        <pt x="380" y="0" on="1"/>
        <pt x="373" y="139" on="1"/>
        <pt x="203" y="139" on="1"/>
        <pt x="138" y="0" on="1"/>
        <pt x="-61" y="0" on="1"/>
      </contour>
      <contour>
        <pt x="370" y="269" on="1"/>
        <pt x="362" y="489" on="1"/>
        <pt x="259" y="269" on="1"/>
      </contour>
      <contour>
        <pt x="303" y="917" on="1"/>
        <pt x="471" y="917" on="1"/>
        <pt x="488" y="775" on="1"/>
        <pt x="356" y="761" on="1"/>
      </contour>
    </TTGlyph>
    <TTGlyph name="Ainvertedbreve" xMin="-61" yMin="0" xMax="582" yMax="916">
      <contour>
        <pt x="320" y="710" on="1"/>
        <pt x="499" y="710" on="1"/>
        <pt x="578" y="0" on="1"/>
        <pt x="380" y="0" on="1"/>
        <pt x="373" y="139" on="1"/>
        <pt x="203" y="139" on="1"/>
        <pt x="138" y="0" on="1"/>
        <pt x="-61" y="0" on="1"/>
      </contour>
      <contour>
        <pt x="370" y="269" on="1"/>
        <pt x="362" y="489" on="1"/>
        <pt x="259" y="269" on="1"/>
      </contour>
      <contour>
        <pt x="266" y="754" on="1"/>
        <pt x="273" y="790" on="0"/>
        <pt x="309" y="849" on="0"/>
        <pt x="359" y="892" on="0"/>
        <pt x="421" y="916" on="0"/>
        <pt x="456" y="916" on="1"/>
        <pt x="518" y="916" on="0"/>
        <pt x="582" y="845" on="0"/>
        <pt x="582" y="791" on="1"/>
        <pt x="582" y="771" on="0"/>
        <pt x="578" y="754" on="1"/>
        <pt x="480" y="754" on="1"/>
        <pt x="483" y="772" on="0"/>
        <pt x="483" y="786" on="1"/>
        <pt x="483" y="835" on="0"/>
        <pt x="438" y="835" on="1"/>
        <pt x="414" y="835" on="0"/>
        <pt x="372" y="802" on="0"/>
        <pt x="363" y="754" on="1"/>
      </contour>
    </TTGlyph>
    <TTGlyph name="Amacron" xMin="-61" yMin="0" xMax="595" yMax="906">
      <contour>
        <pt x="320" y="710" on="1"/>
        <pt x="499" y="710" on="1"/>
        <pt x="578" y="0" on="1"/>
        <pt x="380" y="0" on="1"/>
        <pt x="373" y="139" on="1"/>
        <pt x="203" y="139" on="1"/>
        <pt x="138" y="0" on="1"/>
        <pt x="-61" y="0" on="1"/>
      </contour>
      <contour>
        <pt x="370" y="269" on="1"/>
        <pt x="362" y="489" on="1"/>
        <pt x="259" y="269" on="1"/>
      </contour>
      <contour>
        <pt x="275" y="793" on="1"/>
        <pt x="299" y="906" on="1"/>
        <pt x="595" y="906" on="1"/>
        <pt x="571" y="793" on="1"/>
      </contour>
    </TTGlyph>
    <TTGlyph name="Aogonek" xMin="-61" yMin="-215" xMax="578" yMax="710">
      <contour>
        <pt x="498" y="-215" on="1"/>
        <pt x="430" y="-207" on="0"/>
        <pt x="367" y="-158" on="0"/>
        <pt x="367" y="-126" on="1"/>
        <pt x="367" y="-95" on="0"/>
        <pt x="422" y="-29" on="0"/>
        <pt x="476" y="0" on="1"/>
        <pt x="380" y="0" on="1"/>
        <pt x="373" y="139" on="1"/>
        <pt x="203" y="139" on="1"/>
        <pt x="138" y="0" on="1"/>
        <pt x="-61" y="0" on="1"/>
        <pt x="320" y="710" on="1"/>
        <pt x="499" y="710" on="1"/>
        <pt x="578" y="0" on="1"/>
        <pt x="538" y="-23" on="0"/>
        <pt x="493" y="-65" on="0"/>
        <pt x="493" y="-83" on="1"/>
        <pt x="493" y="-97" on="0"/>
        <pt x="522" y="-115" on="0"/>
        <pt x="554" y="-115" on="1"/>
      </contour>
      <contour>
        <pt x="370" y="269" on="1"/>
        <pt x="362" y="489" on="1"/>
        <pt x="259" y="269" on="1"/>
      </contour>
    </TTGlyph>
    <TTGlyph name="Aring" xMin="-61" yMin="0" xMax="578" yMax="916">
      <contour>
        <pt x="320" y="710" on="1"/>
        <pt x="499" y="710" on="1"/>
        <pt x="578" y="0" on="1"/>
        <pt x="380" y="0" on="1"/>
        <pt x="373" y="139" on="1"/>
        <pt x="203" y="139" on="1"/>
        <pt x="138" y="0" on="1"/>
        <pt x="-61" y="0" on="1"/>
      </contour>
      <contour>
        <pt x="370" y="269" on="1"/>
        <pt x="362" y="489" on="1"/>
        <pt x="259" y="269" on="1"/>
      </contour>
      <contour>
        <pt x="310" y="812" on="1"/>
        <pt x="310" y="863" on="0"/>
        <pt x="385" y="916" on="0"/>
        <pt x="446" y="916" on="1"/>
        <pt x="492" y="916" on="0"/>
        <pt x="544" y="881" on="0"/>
        <pt x="544" y="846" on="1"/>
        <pt x="544" y="795" on="0"/>
        <pt x="469" y="742" on="0"/>
        <pt x="409" y="742" on="1"/>
        <pt x="363" y="742" on="0"/>
        <pt x="310" y="777" on="0"/>
      </contour>
      <contour>
        <pt x="434" y="862" on="1"/>
        <pt x="415" y="862" on="0"/>
        <pt x="389" y="841" on="0"/>
        <pt x="389" y="824" on="1"/>
        <pt x="389" y="796" on="0"/>
        <pt x="420" y="796" on="1"/>
        <pt x="438" y="796" on="0"/>
        <pt x="466" y="818" on="0"/>
        <pt x="466" y="835" on="1"/>
        <pt x="466" y="847" on="0"/>
        <pt x="448" y="862" on="0"/>
      </contour>
    </TTGlyph>
    <TTGlyph name="Aringacute" xMin="-61" yMin="0" xMax="602" yMax="927">
      <contour>
        <pt x="507" y="808" on="1"/>
        <pt x="529" y="791" on="0"/>
        <pt x="529" y="759" on="1"/>
        <pt x="529" y="716" on="0"/>
        <pt x="501" y="690" on="1"/>
        <pt x="578" y="0" on="1"/>
        <pt x="380" y="0" on="1"/>
        <pt x="373" y="139" on="1"/>
        <pt x="203" y="139" on="1"/>
        <pt x="138" y="0" on="1"/>
        <pt x="-61" y="0" on="1"/>
        <pt x="307" y="686" on="1"/>
        <pt x="295" y="701" on="0"/>
        <pt x="295" y="725" on="1"/>
        <pt x="295" y="763" on="0"/>
        <pt x="337" y="811" on="0"/>
        <pt x="374" y="822" on="1"/>
        <pt x="434" y="927" on="1"/>
        <pt x="602" y="927" on="1"/>
      </contour>
      <contour>
        <pt x="370" y="269" on="1"/>
        <pt x="362" y="489" on="1"/>
        <pt x="259" y="269" on="1"/>
      </contour>
      <contour>
        <pt x="419" y="775" on="1"/>
        <pt x="400" y="775" on="0"/>
        <pt x="374" y="754" on="0"/>
        <pt x="374" y="737" on="1"/>
        <pt x="374" y="709" on="0"/>
        <pt x="405" y="709" on="1"/>
        <pt x="423" y="709" on="0"/>
        <pt x="451" y="731" on="0"/>
        <pt x="451" y="748" on="1"/>
        <pt x="451" y="760" on="0"/>
        <pt x="433" y="775" on="0"/>
      </contour>
    </TTGlyph>
    <TTGlyph name="Atilde" xMin="-61" yMin="0" xMax="654" yMax="916">
      <contour>
        <pt x="320" y="710" on="1"/>
        <pt x="499" y="710" on="1"/>
        <pt x="578" y="0" on="1"/>
        <pt x="380" y="0" on="1"/>
        <pt x="373" y="139" on="1"/>
        <pt x="203" y="139" on="1"/>
        <pt x="138" y="0" on="1"/>
        <pt x="-61" y="0" on="1"/>
      </contour>
      <contour>
        <pt x="370" y="269" on="1"/>
        <pt x="362" y="489" on="1"/>
        <pt x="259" y="269" on="1"/>
      </contour>
      <contour>
        <pt x="481" y="758" on="1"/>
        <pt x="459" y="758" on="0"/>
        <pt x="429" y="773" on="0"/>
        <pt x="404" y="791" on="0"/>
        <pt x="379" y="806" on="0"/>
        <pt x="363" y="806" on="1"/>
        <pt x="347" y="806" on="0"/>
        <pt x="326" y="792" on="0"/>
        <pt x="314" y="774" on="0"/>
        <pt x="310" y="759" on="0"/>
        <pt x="310" y="758" on="1"/>
        <pt x="209" y="758" on="1"/>
        <pt x="212" y="771" on="0"/>
        <pt x="238" y="824" on="0"/>
        <pt x="282" y="876" on="0"/>
        <pt x="342" y="916" on="0"/>
        <pt x="378" y="916" on="1"/>
        <pt x="402" y="916" on="0"/>
        <pt x="432" y="900" on="0"/>
        <pt x="457" y="881" on="0"/>
        <pt x="480" y="865" on="0"/>
        <pt x="496" y="865" on="1"/>
        <pt x="511" y="865" on="0"/>
        <pt x="533" y="880" on="0"/>
        <pt x="547" y="899" on="0"/>
        <pt x="554" y="915" on="0"/>
        <pt x="554" y="916" on="1"/>
        <pt x="654" y="916" on="1"/>
        <pt x="652" y="907" on="0"/>
        <pt x="625" y="856" on="0"/>
        <pt x="580" y="801" on="0"/>
        <pt x="518" y="758" on="0"/>
      </contour>
    </TTGlyph>
    <TTGlyph name="B" xMin="-3" yMin="0" xMax="665" yMax="710">
      <contour>
        <pt x="148" y="710" on="1"/>
        <pt x="545" y="710" on="1"/>
        <pt x="575" y="710" on="0"/>
        <pt x="620" y="685" on="0"/>
        <pt x="650" y="645" on="0"/>
        <pt x="665" y="592" on="0"/>
        <pt x="665" y="564" on="1"/>
        <pt x="665" y="534" on="0"/>
        <pt x="647" y="475" on="0"/>
        <pt x="612" y="421" on="0"/>
        <pt x="561" y="377" on="0"/>
        <pt x="528" y="364" on="1"/>
        <pt x="572" y="350" on="0"/>
        <pt x="621" y="279" on="0"/>
        <pt x="621" y="225" on="1"/>
        <pt x="621" y="165" on="0"/>
        <pt x="573" y="80" on="0"/>
        <pt x="493" y="26" on="0"/>
        <pt x="387" y="0" on="0"/>
        <pt x="330" y="0" on="1"/>
        <pt x="-3" y="0" on="1"/>
      </contour>
      <contour>
        <pt x="365" y="164" on="1"/>
        <pt x="389" y="164" on="0"/>
        <pt x="428" y="203" on="0"/>
        <pt x="428" y="238" on="1"/>
        <pt x="428" y="258" on="0"/>
        <pt x="411" y="283" on="0"/>
        <pt x="396" y="283" on="1"/>
        <pt x="252" y="283" on="1"/>
        <pt x="227" y="164" on="1"/>
      </contour>
      <contour>
        <pt x="402" y="435" on="1"/>
        <pt x="412" y="435" on="0"/>
        <pt x="433" y="442" on="0"/>
        <pt x="450" y="458" on="0"/>
        <pt x="461" y="485" on="0"/>
        <pt x="461" y="506" on="1"/>
        <pt x="461" y="526" on="0"/>
        <pt x="444" y="544" on="0"/>
        <pt x="431" y="544" on="1"/>
        <pt x="308" y="544" on="1"/>
        <pt x="284" y="435" on="1"/>
      </contour>
    </TTGlyph>
    <TTGlyph name="B.sc" xMin="-9" yMin="0" xMax="570" yMax="568">
      <contour>
        <pt x="112" y="568" on="1"/>
        <pt x="461" y="568" on="1"/>
        <pt x="488" y="568" on="0"/>
        <pt x="529" y="548" on="0"/>
        <pt x="556" y="514" on="0"/>
        <pt x="570" y="471" on="0"/>
        <pt x="570" y="448" on="1"/>
        <pt x="570" y="425" on="0"/>
        <pt x="554" y="378" on="0"/>
        <pt x="524" y="336" on="0"/>
        <pt x="481" y="301" on="0"/>
        <pt x="453" y="291" on="1"/>
        <pt x="493" y="279" on="0"/>
        <pt x="538" y="223" on="0"/>
        <pt x="538" y="178" on="1"/>
        <pt x="538" y="130" on="0"/>
        <pt x="496" y="62" on="0"/>
        <pt x="427" y="19" on="0"/>
        <pt x="335" y="0" on="0"/>
        <pt x="286" y="0" on="1"/>
        <pt x="-9" y="0" on="1"/>
      </contour>
      <contour>
        <pt x="316" y="143" on="1"/>
        <pt x="337" y="143" on="0"/>
        <pt x="369" y="166" on="0"/>
        <pt x="369" y="189" on="1"/>
        <pt x="369" y="203" on="0"/>
        <pt x="352" y="221" on="0"/>
        <pt x="338" y="221" on="1"/>
        <pt x="208" y="221" on="1"/>
        <pt x="191" y="143" on="1"/>
      </contour>
      <contour>
        <pt x="343" y="354" on="1"/>
        <pt x="362" y="354" on="0"/>
        <pt x="392" y="367" on="0"/>
        <pt x="392" y="397" on="1"/>
        <pt x="392" y="412" on="0"/>
        <pt x="374" y="423" on="0"/>
        <pt x="362" y="423" on="1"/>
        <pt x="251" y="423" on="1"/>
        <pt x="236" y="354" on="1"/>
      </contour>
    </TTGlyph>
    <TTGlyph name="C" xMin="28" yMin="-6" xMax="704" yMax="714">
      <contour>
        <pt x="299" y="-6" on="1"/>
        <pt x="234" y="-6" on="0"/>
        <pt x="134" y="45" on="0"/>
        <pt x="64" y="130" on="0"/>
        <pt x="28" y="239" on="0"/>
        <pt x="28" y="298" on="1"/>
        <pt x="28" y="372" on="0"/>
        <pt x="93" y="520" on="0"/>
        <pt x="208" y="639" on="0"/>
        <pt x="365" y="714" on="0"/>
        <pt x="458" y="714" on="1"/>
        <pt x="556" y="714" on="0"/>
        <pt x="684" y="629" on="0"/>
        <pt x="704" y="559" on="1"/>
        <pt x="533" y="453" on="1"/>
        <pt x="529" y="479" on="0"/>
        <pt x="506" y="513" on="0"/>
        <pt x="473" y="533" on="0"/>
        <pt x="435" y="541" on="0"/>
        <pt x="417" y="541" on="1"/>
        <pt x="371" y="541" on="0"/>
        <pt x="300" y="497" on="0"/>
        <pt x="252" y="429" on="0"/>
        <pt x="227" y="348" on="0"/>
        <pt x="227" y="311" on="1"/>
        <pt x="227" y="282" on="0"/>
        <pt x="241" y="229" on="0"/>
        <pt x="269" y="190" on="0"/>
        <pt x="311" y="167" on="0"/>
        <pt x="340" y="167" on="1"/>
        <pt x="358" y="167" on="0"/>
        <pt x="399" y="176" on="0"/>
        <pt x="438" y="197" on="0"/>
        <pt x="473" y="230" on="0"/>
        <pt x="486" y="254" on="1"/>
        <pt x="625" y="159" on="1"/>
        <pt x="602" y="120" on="0"/>
        <pt x="527" y="58" on="0"/>
        <pt x="438" y="16" on="0"/>
        <pt x="342" y="-6" on="0"/>
      </contour>
    </TTGlyph>
    <TTGlyph name="C.sc" xMin="15" yMin="-5" xMax="583" yMax="571">
      <contour>
        <pt x="249" y="-5" on="1"/>
        <pt x="193" y="-5" on="0"/>
        <pt x="106" y="36" on="0"/>
        <pt x="46" y="105" on="0"/>
        <pt x="15" y="194" on="0"/>
        <pt x="15" y="241" on="1"/>
        <pt x="15" y="300" on="0"/>
        <pt x="69" y="418" on="0"/>
        <pt x="165" y="512" on="0"/>
        <pt x="298" y="571" on="0"/>
        <pt x="376" y="571" on="1"/>
        <pt x="458" y="571" on="0"/>
        <pt x="566" y="504" on="0"/>
        <pt x="583" y="447" on="1"/>
        <pt x="434" y="354" on="1"/>
        <pt x="431" y="373" on="0"/>
        <pt x="411" y="399" on="0"/>
        <pt x="385" y="414" on="0"/>
        <pt x="355" y="420" on="0"/>
        <pt x="341" y="420" on="1"/>
        <pt x="304" y="420" on="0"/>
        <pt x="248" y="389" on="0"/>
        <pt x="209" y="341" on="0"/>
        <pt x="189" y="282" on="0"/>
        <pt x="189" y="254" on="1"/>
        <pt x="189" y="232" on="0"/>
        <pt x="201" y="193" on="0"/>
        <pt x="225" y="163" on="0"/>
        <pt x="261" y="146" on="0"/>
        <pt x="285" y="146" on="1"/>
        <pt x="314" y="146" on="0"/>
        <pt x="380" y="175" on="0"/>
        <pt x="400" y="211" on="1"/>
        <pt x="521" y="127" on="1"/>
        <pt x="501" y="95" on="0"/>
        <pt x="438" y="46" on="0"/>
        <pt x="365" y="13" on="0"/>
        <pt x="285" y="-5" on="0"/>
      </contour>
    </TTGlyph>
    <TTGlyph name="Cacute" xMin="28" yMin="-6" xMax="704" yMax="916">
      <contour>
        <pt x="531" y="762" on="1"/>
        <pt x="403" y="774" on="1"/>
        <pt x="480" y="916" on="1"/>
        <pt x="648" y="916" on="1"/>
      </contour>
      <contour>
        <pt x="299" y="-6" on="1"/>
        <pt x="234" y="-6" on="0"/>
        <pt x="134" y="45" on="0"/>
        <pt x="64" y="130" on="0"/>
        <pt x="28" y="239" on="0"/>
        <pt x="28" y="298" on="1"/>
        <pt x="28" y="372" on="0"/>
        <pt x="93" y="520" on="0"/>
        <pt x="208" y="639" on="0"/>
        <pt x="365" y="714" on="0"/>
        <pt x="458" y="714" on="1"/>
        <pt x="556" y="714" on="0"/>
        <pt x="684" y="629" on="0"/>
        <pt x="704" y="559" on="1"/>
        <pt x="533" y="453" on="1"/>
        <pt x="529" y="479" on="0"/>
        <pt x="506" y="513" on="0"/>
        <pt x="473" y="533" on="0"/>
        <pt x="435" y="541" on="0"/>
        <pt x="417" y="541" on="1"/>
        <pt x="371" y="541" on="0"/>
        <pt x="300" y="497" on="0"/>
        <pt x="252" y="429" on="0"/>
        <pt x="227" y="348" on="0"/>
        <pt x="227" y="311" on="1"/>
        <pt x="227" y="282" on="0"/>
        <pt x="241" y="229" on="0"/>
        <pt x="269" y="190" on="0"/>
        <pt x="311" y="167" on="0"/>
        <pt x="340" y="167" on="1"/>
        <pt x="358" y="167" on="0"/>
        <pt x="399" y="176" on="0"/>
        <pt x="438" y="197" on="0"/>
        <pt x="473" y="230" on="0"/>
        <pt x="486" y="254" on="1"/>
        <pt x="625" y="159" on="1"/>
        <pt x="602" y="120" on="0"/>
        <pt x="527" y="58" on="0"/>
        <pt x="438" y="16" on="0"/>
        <pt x="342" y="-6" on="0"/>
      </contour>
    </TTGlyph>
    <TTGlyph name="Ccaron" xMin="28" yMin="-6" xMax="704" yMax="916">
      <contour>
        <pt x="311" y="874" on="1"/>
        <pt x="416" y="916" on="1"/>
        <pt x="483" y="853" on="1"/>
        <pt x="577" y="916" on="1"/>
        <pt x="664" y="874" on="1"/>
        <pt x="531" y="759" on="1"/>
        <pt x="395" y="759" on="1"/>
      </contour>
      <contour>
        <pt x="299" y="-6" on="1"/>
        <pt x="234" y="-6" on="0"/>
        <pt x="134" y="45" on="0"/>
        <pt x="64" y="130" on="0"/>
        <pt x="28" y="239" on="0"/>
        <pt x="28" y="298" on="1"/>
        <pt x="28" y="372" on="0"/>
        <pt x="93" y="520" on="0"/>
        <pt x="208" y="639" on="0"/>
        <pt x="365" y="714" on="0"/>
        <pt x="458" y="714" on="1"/>
        <pt x="556" y="714" on="0"/>
        <pt x="684" y="629" on="0"/>
        <pt x="704" y="559" on="1"/>
        <pt x="533" y="453" on="1"/>
        <pt x="529" y="479" on="0"/>
        <pt x="506" y="513" on="0"/>
        <pt x="473" y="533" on="0"/>
        <pt x="435" y="541" on="0"/>
        <pt x="417" y="541" on="1"/>
        <pt x="371" y="541" on="0"/>
        <pt x="300" y="497" on="0"/>
        <pt x="252" y="429" on="0"/>
        <pt x="227" y="348" on="0"/>
        <pt x="227" y="311" on="1"/>
        <pt x="227" y="282" on="0"/>
        <pt x="241" y="229" on="0"/>
        <pt x="269" y="190" on="0"/>
        <pt x="311" y="167" on="0"/>
        <pt x="340" y="167" on="1"/>
        <pt x="358" y="167" on="0"/>
        <pt x="399" y="176" on="0"/>
        <pt x="438" y="197" on="0"/>
        <pt x="473" y="230" on="0"/>
        <pt x="486" y="254" on="1"/>
        <pt x="625" y="159" on="1"/>
        <pt x="602" y="120" on="0"/>
        <pt x="527" y="58" on="0"/>
        <pt x="438" y="16" on="0"/>
        <pt x="342" y="-6" on="0"/>
      </contour>
    </TTGlyph>
    <TTGlyph name="Ccedilla" xMin="28" yMin="-213" xMax="704" yMax="714">
      <contour>
        <pt x="196" y="-128" on="1"/>
        <pt x="204" y="-135" on="0"/>
        <pt x="252" y="-148" on="0"/>
        <pt x="278" y="-148" on="1"/>
        <pt x="302" y="-148" on="0"/>
        <pt x="338" y="-132" on="0"/>
        <pt x="338" y="-112" on="1"/>
        <pt x="338" y="-98" on="0"/>
        <pt x="313" y="-87" on="0"/>
        <pt x="291" y="-87" on="1"/>
        <pt x="271" y="-87" on="0"/>
        <pt x="225" y="-94" on="0"/>
        <pt x="214" y="-96" on="1"/>
        <pt x="276" y="-5" on="1"/>
        <pt x="217" y="-1" on="0"/>
        <pt x="124" y="53" on="0"/>
        <pt x="61" y="137" on="0"/>
        <pt x="28" y="242" on="0"/>
        <pt x="28" y="298" on="1"/>
        <pt x="28" y="372" on="0"/>
        <pt x="93" y="520" on="0"/>
        <pt x="208" y="639" on="0"/>
        <pt x="365" y="714" on="0"/>
        <pt x="458" y="714" on="1"/>
        <pt x="556" y="714" on="0"/>
        <pt x="684" y="629" on="0"/>
        <pt x="704" y="559" on="1"/>
        <pt x="533" y="453" on="1"/>
        <pt x="529" y="479" on="0"/>
        <pt x="506" y="513" on="0"/>
        <pt x="473" y="533" on="0"/>
        <pt x="435" y="541" on="0"/>
        <pt x="417" y="541" on="1"/>
        <pt x="371" y="541" on="0"/>
        <pt x="300" y="497" on="0"/>
        <pt x="252" y="429" on="0"/>
        <pt x="227" y="348" on="0"/>
        <pt x="227" y="311" on="1"/>
        <pt x="227" y="282" on="0"/>
        <pt x="241" y="229" on="0"/>
        <pt x="269" y="190" on="0"/>
        <pt x="311" y="167" on="0"/>
        <pt x="340" y="167" on="1"/>
        <pt x="358" y="167" on="0"/>
        <pt x="399" y="176" on="0"/>
        <pt x="438" y="197" on="0"/>
        <pt x="473" y="230" on="0"/>
        <pt x="486" y="254" on="1"/>
        <pt x="625" y="159" on="1"/>
        <pt x="605" y="125" on="0"/>
        <pt x="544" y="70" on="0"/>
        <pt x="471" y="30" on="0"/>
        <pt x="390" y="3" on="0"/>
        <pt x="351" y="-2" on="1"/>
        <pt x="323" y="-34" on="1"/>
        <pt x="328" y="-33" on="0"/>
        <pt x="341" y="-32" on="0"/>
        <pt x="348" y="-32" on="1"/>
        <pt x="378" y="-32" on="0"/>
        <pt x="424" y="-61" on="0"/>
        <pt x="424" y="-95" on="1"/>
        <pt x="424" y="-118" on="0"/>
        <pt x="403" y="-160" on="0"/>
        <pt x="361" y="-193" on="0"/>
        <pt x="296" y="-213" on="0"/>
        <pt x="252" y="-213" on="1"/>
        <pt x="217" y="-213" on="0"/>
        <pt x="165" y="-200" on="0"/>
        <pt x="148" y="-192" on="1"/>
      </contour>
    </TTGlyph>
    <TTGlyph name="Ccircumflex" xMin="28" yMin="-6" xMax="704" yMax="916">
      <contour>
        <pt x="299" y="801" on="1"/>
        <pt x="432" y="916" on="1"/>
        <pt x="568" y="916" on="1"/>
        <pt x="652" y="801" on="1"/>
        <pt x="547" y="759" on="1"/>
        <pt x="480" y="822" on="1"/>
        <pt x="386" y="759" on="1"/>
      </contour>
      <contour>
        <pt x="299" y="-6" on="1"/>
        <pt x="234" y="-6" on="0"/>
        <pt x="134" y="45" on="0"/>
        <pt x="64" y="130" on="0"/>
        <pt x="28" y="239" on="0"/>
        <pt x="28" y="298" on="1"/>
        <pt x="28" y="372" on="0"/>
        <pt x="93" y="520" on="0"/>
        <pt x="208" y="639" on="0"/>
        <pt x="365" y="714" on="0"/>
        <pt x="458" y="714" on="1"/>
        <pt x="556" y="714" on="0"/>
        <pt x="684" y="629" on="0"/>
        <pt x="704" y="559" on="1"/>
        <pt x="533" y="453" on="1"/>
        <pt x="529" y="479" on="0"/>
        <pt x="506" y="513" on="0"/>
        <pt x="473" y="533" on="0"/>
        <pt x="435" y="541" on="0"/>
        <pt x="417" y="541" on="1"/>
        <pt x="371" y="541" on="0"/>
        <pt x="300" y="497" on="0"/>
        <pt x="252" y="429" on="0"/>
        <pt x="227" y="348" on="0"/>
        <pt x="227" y="311" on="1"/>
        <pt x="227" y="282" on="0"/>
        <pt x="241" y="229" on="0"/>
        <pt x="269" y="190" on="0"/>
        <pt x="311" y="167" on="0"/>
        <pt x="340" y="167" on="1"/>
        <pt x="358" y="167" on="0"/>
        <pt x="399" y="176" on="0"/>
        <pt x="438" y="197" on="0"/>
        <pt x="473" y="230" on="0"/>
        <pt x="486" y="254" on="1"/>
        <pt x="625" y="159" on="1"/>
        <pt x="602" y="120" on="0"/>
        <pt x="527" y="58" on="0"/>
        <pt x="438" y="16" on="0"/>
        <pt x="342" y="-6" on="0"/>
      </contour>
    </TTGlyph>
    <TTGlyph name="Cdotaccent" xMin="28" yMin="-6" xMax="704" yMax="916">
      <contour>
        <pt x="299" y="-6" on="1"/>
        <pt x="234" y="-6" on="0"/>
        <pt x="134" y="45" on="0"/>
        <pt x="64" y="130" on="0"/>
        <pt x="28" y="239" on="0"/>
        <pt x="28" y="298" on="1"/>
        <pt x="28" y="372" on="0"/>
        <pt x="93" y="520" on="0"/>
        <pt x="208" y="639" on="0"/>
        <pt x="365" y="714" on="0"/>
        <pt x="458" y="714" on="1"/>
        <pt x="556" y="714" on="0"/>
        <pt x="684" y="629" on="0"/>
        <pt x="704" y="559" on="1"/>
        <pt x="533" y="453" on="1"/>
        <pt x="529" y="479" on="0"/>
        <pt x="506" y="513" on="0"/>
        <pt x="473" y="533" on="0"/>
        <pt x="435" y="541" on="0"/>
        <pt x="417" y="541" on="1"/>
        <pt x="371" y="541" on="0"/>
        <pt x="300" y="497" on="0"/>
        <pt x="252" y="429" on="0"/>
        <pt x="227" y="348" on="0"/>
        <pt x="227" y="311" on="1"/>
        <pt x="227" y="282" on="0"/>
        <pt x="241" y="229" on="0"/>
        <pt x="269" y="190" on="0"/>
        <pt x="311" y="167" on="0"/>
        <pt x="340" y="167" on="1"/>
        <pt x="358" y="167" on="0"/>
        <pt x="399" y="176" on="0"/>
        <pt x="438" y="197" on="0"/>
        <pt x="473" y="230" on="0"/>
        <pt x="486" y="254" on="1"/>
        <pt x="625" y="159" on="1"/>
        <pt x="602" y="120" on="0"/>
        <pt x="527" y="58" on="0"/>
        <pt x="438" y="16" on="0"/>
        <pt x="342" y="-6" on="0"/>
      </contour>
      <contour>
        <pt x="385" y="766" on="1"/>
        <pt x="417" y="916" on="1"/>
        <pt x="587" y="916" on="1"/>
        <pt x="555" y="766" on="1"/>
      </contour>
    </TTGlyph>
    <TTGlyph name="D" xMin="-3" yMin="0" xMax="686" yMax="710">
      <contour>
        <pt x="148" y="710" on="1"/>
        <pt x="410" y="710" on="1"/>
        <pt x="480" y="710" on="0"/>
        <pt x="584" y="667" on="0"/>
        <pt x="653" y="592" on="0"/>
        <pt x="686" y="491" on="0"/>
        <pt x="686" y="433" on="1"/>
        <pt x="686" y="339" on="0"/>
        <pt x="621" y="180" on="0"/>
        <pt x="506" y="65" on="0"/>
        <pt x="350" y="0" on="0"/>
        <pt x="259" y="0" on="1"/>
        <pt x="-3" y="0" on="1"/>
      </contour>
      <contour>
        <pt x="295" y="170" on="1"/>
        <pt x="337" y="170" on="0"/>
        <pt x="407" y="208" on="0"/>
        <pt x="457" y="273" on="0"/>
        <pt x="485" y="358" on="0"/>
        <pt x="485" y="405" on="1"/>
        <pt x="485" y="466" on="0"/>
        <pt x="428" y="540" on="0"/>
        <pt x="374" y="540" on="1"/>
        <pt x="307" y="540" on="1"/>
        <pt x="228" y="170" on="1"/>
      </contour>
    </TTGlyph>
    <TTGlyph name="D.sc" xMin="-9" yMin="0" xMax="602" yMax="568">
      <contour>
        <pt x="112" y="568" on="1"/>
        <pt x="347" y="568" on="1"/>
        <pt x="412" y="568" on="0"/>
        <pt x="508" y="533" on="0"/>
        <pt x="571" y="471" on="0"/>
        <pt x="602" y="388" on="0"/>
        <pt x="602" y="340" on="1"/>
        <pt x="602" y="266" on="0"/>
        <pt x="545" y="141" on="0"/>
        <pt x="444" y="51" on="0"/>
        <pt x="307" y="0" on="0"/>
        <pt x="226" y="0" on="1"/>
        <pt x="-9" y="0" on="1"/>
      </contour>
      <contour>
        <pt x="257" y="148" on="1"/>
        <pt x="295" y="148" on="0"/>
        <pt x="358" y="174" on="0"/>
        <pt x="402" y="219" on="0"/>
        <pt x="426" y="280" on="0"/>
        <pt x="426" y="314" on="1"/>
        <pt x="426" y="362" on="0"/>
        <pt x="369" y="420" on="0"/>
        <pt x="315" y="420" on="1"/>
        <pt x="250" y="420" on="1"/>
        <pt x="192" y="148" on="1"/>
      </contour>
    </TTGlyph>
    <TTGlyph name="Dcaron" xMin="-3" yMin="0" xMax="686" yMax="916">
      <contour>
        <pt x="250" y="874" on="1"/>
        <pt x="355" y="916" on="1"/>
        <pt x="422" y="853" on="1"/>
        <pt x="516" y="916" on="1"/>
        <pt x="603" y="874" on="1"/>
        <pt x="470" y="759" on="1"/>
        <pt x="334" y="759" on="1"/>
      </contour>
      <contour>
        <pt x="148" y="710" on="1"/>
        <pt x="410" y="710" on="1"/>
        <pt x="480" y="710" on="0"/>
        <pt x="584" y="667" on="0"/>
        <pt x="653" y="592" on="0"/>
        <pt x="686" y="491" on="0"/>
        <pt x="686" y="433" on="1"/>
        <pt x="686" y="339" on="0"/>
        <pt x="621" y="180" on="0"/>
        <pt x="506" y="65" on="0"/>
        <pt x="350" y="0" on="0"/>
        <pt x="259" y="0" on="1"/>
        <pt x="-3" y="0" on="1"/>
      </contour>
      <contour>
        <pt x="295" y="170" on="1"/>
        <pt x="337" y="170" on="0"/>
        <pt x="407" y="208" on="0"/>
        <pt x="457" y="273" on="0"/>
        <pt x="485" y="358" on="0"/>
        <pt x="485" y="405" on="1"/>
        <pt x="485" y="466" on="0"/>
        <pt x="428" y="540" on="0"/>
        <pt x="374" y="540" on="1"/>
        <pt x="307" y="540" on="1"/>
        <pt x="228" y="170" on="1"/>
      </contour>
    </TTGlyph>
    <TTGlyph name="Dcroat" xMin="0" yMin="0" xMax="689" yMax="710">
      <contour>
        <pt x="57" y="427" on="1"/>
        <pt x="91" y="427" on="1"/>
        <pt x="151" y="710" on="1"/>
        <pt x="413" y="710" on="1"/>
        <pt x="483" y="710" on="0"/>
        <pt x="587" y="667" on="0"/>
        <pt x="656" y="592" on="0"/>
        <pt x="689" y="491" on="0"/>
        <pt x="689" y="433" on="1"/>
        <pt x="689" y="339" on="0"/>
        <pt x="624" y="180" on="0"/>
        <pt x="509" y="65" on="0"/>
        <pt x="353" y="0" on="0"/>
        <pt x="262" y="0" on="1"/>
        <pt x="0" y="0" on="1"/>
        <pt x="61" y="287" on="1"/>
        <pt x="28" y="287" on="1"/>
      </contour>
      <contour>
        <pt x="298" y="170" on="1"/>
        <pt x="340" y="170" on="0"/>
        <pt x="410" y="208" on="0"/>
        <pt x="460" y="273" on="0"/>
        <pt x="488" y="358" on="0"/>
        <pt x="488" y="405" on="1"/>
        <pt x="488" y="466" on="0"/>
        <pt x="431" y="540" on="0"/>
        <pt x="377" y="540" on="1"/>
        <pt x="310" y="540" on="1"/>
        <pt x="286" y="427" on="1"/>
        <pt x="390" y="427" on="1"/>
        <pt x="360" y="287" on="1"/>
        <pt x="256" y="287" on="1"/>
        <pt x="231" y="170" on="1"/>
      </contour>
    </TTGlyph>
    <TTGlyph name="Ddotbelow" xMin="-3" yMin="-213" xMax="686" yMax="710">
      <contour>
        <pt x="148" y="710" on="1"/>
        <pt x="410" y="710" on="1"/>
        <pt x="480" y="710" on="0"/>
        <pt x="584" y="667" on="0"/>
        <pt x="653" y="592" on="0"/>
        <pt x="686" y="491" on="0"/>
        <pt x="686" y="433" on="1"/>
        <pt x="686" y="339" on="0"/>
        <pt x="621" y="180" on="0"/>
        <pt x="506" y="65" on="0"/>
        <pt x="350" y="0" on="0"/>
        <pt x="259" y="0" on="1"/>
        <pt x="-3" y="0" on="1"/>
      </contour>
      <contour>
        <pt x="295" y="170" on="1"/>
        <pt x="337" y="170" on="0"/>
        <pt x="407" y="208" on="0"/>
        <pt x="457" y="273" on="0"/>
        <pt x="485" y="358" on="0"/>
        <pt x="485" y="405" on="1"/>
        <pt x="485" y="466" on="0"/>
        <pt x="428" y="540" on="0"/>
        <pt x="374" y="540" on="1"/>
        <pt x="307" y="540" on="1"/>
        <pt x="228" y="170" on="1"/>
      </contour>
      <contour>
        <pt x="143" y="-213" on="1"/>
        <pt x="175" y="-63" on="1"/>
        <pt x="345" y="-63" on="1"/>
        <pt x="313" y="-213" on="1"/>
      </contour>
    </TTGlyph>
    <TTGlyph name="Delta" xMin="2" yMin="0" xMax="633" yMax="710">
      <contour>
        <pt x="633" y="150" on="1"/>
        <pt x="633" y="0" on="1"/>
        <pt x="2" y="0" on="1"/>
        <pt x="2" y="150" on="1"/>
        <pt x="239" y="710" on="1"/>
        <pt x="397" y="710" on="1"/>
      </contour>
      <contour>
        <pt x="451" y="170" on="1"/>
        <pt x="318" y="497" on="1"/>
        <pt x="191" y="170" on="1"/>
      </contour>
    </TTGlyph>
    <TTGlyph name="E" xMin="-3" yMin="0" xMax="622" yMax="710">
      <contour>
        <pt x="148" y="710" on="1"/>
        <pt x="622" y="710" on="1"/>
        <pt x="586" y="540" on="1"/>
        <pt x="307" y="540" on="1"/>
        <pt x="286" y="440" on="1"/>
        <pt x="524" y="440" on="1"/>
        <pt x="490" y="282" on="1"/>
        <pt x="252" y="282" on="1"/>
        <pt x="228" y="170" on="1"/>
        <pt x="516" y="170" on="1"/>
        <pt x="480" y="0" on="1"/>
        <pt x="-3" y="0" on="1"/>
      </contour>
    </TTGlyph>
    <TTGlyph name="E.sc" xMin="-9" yMin="0" xMax="539" yMax="568">
      <contour>
        <pt x="112" y="568" on="1"/>
        <pt x="539" y="568" on="1"/>
        <pt x="508" y="420" on="1"/>
        <pt x="250" y="420" on="1"/>
        <pt x="237" y="358" on="1"/>
        <pt x="457" y="358" on="1"/>
        <pt x="428" y="220" on="1"/>
        <pt x="208" y="220" on="1"/>
        <pt x="192" y="148" on="1"/>
        <pt x="458" y="148" on="1"/>
        <pt x="426" y="0" on="1"/>
        <pt x="-9" y="0" on="1"/>
      </contour>
    </TTGlyph>
    <TTGlyph name="Eacute" xMin="-3" yMin="0" xMax="622" yMax="916">
      <contour>
        <pt x="431" y="762" on="1"/>
        <pt x="303" y="774" on="1"/>
        <pt x="380" y="916" on="1"/>
        <pt x="548" y="916" on="1"/>
      </contour>
      <contour>
        <pt x="148" y="710" on="1"/>
        <pt x="622" y="710" on="1"/>
        <pt x="586" y="540" on="1"/>
        <pt x="307" y="540" on="1"/>
        <pt x="286" y="440" on="1"/>
        <pt x="524" y="440" on="1"/>
        <pt x="490" y="282" on="1"/>
        <pt x="252" y="282" on="1"/>
        <pt x="228" y="170" on="1"/>
        <pt x="516" y="170" on="1"/>
        <pt x="480" y="0" on="1"/>
        <pt x="-3" y="0" on="1"/>
      </contour>
    </TTGlyph>
    <TTGlyph name="Ebreve" xMin="-3" yMin="0" xMax="622" yMax="916">
      <contour>
        <pt x="148" y="710" on="1"/>
        <pt x="622" y="710" on="1"/>
        <pt x="586" y="540" on="1"/>
        <pt x="307" y="540" on="1"/>
        <pt x="286" y="440" on="1"/>
        <pt x="524" y="440" on="1"/>
        <pt x="490" y="282" on="1"/>
        <pt x="252" y="282" on="1"/>
        <pt x="228" y="170" on="1"/>
        <pt x="516" y="170" on="1"/>
        <pt x="480" y="0" on="1"/>
        <pt x="-3" y="0" on="1"/>
      </contour>
      <contour>
        <pt x="400" y="835" on="1"/>
        <pt x="422" y="835" on="0"/>
        <pt x="464" y="881" on="0"/>
        <pt x="475" y="916" on="1"/>
        <pt x="573" y="916" on="1"/>
        <pt x="565" y="880" on="0"/>
        <pt x="530" y="821" on="0"/>
        <pt x="480" y="778" on="0"/>
        <pt x="417" y="754" on="0"/>
        <pt x="383" y="754" on="1"/>
        <pt x="323" y="754" on="0"/>
        <pt x="256" y="820" on="0"/>
        <pt x="256" y="875" on="1"/>
        <pt x="256" y="893" on="0"/>
        <pt x="261" y="916" on="1"/>
        <pt x="359" y="916" on="1"/>
        <pt x="356" y="904" on="0"/>
        <pt x="356" y="893" on="1"/>
        <pt x="356" y="868" on="0"/>
        <pt x="380" y="835" on="0"/>
      </contour>
    </TTGlyph>
    <TTGlyph name="Ecaron" xMin="-3" yMin="0" xMax="622" yMax="916">
      <contour>
        <pt x="234" y="874" on="1"/>
        <pt x="339" y="916" on="1"/>
        <pt x="406" y="853" on="1"/>
        <pt x="500" y="916" on="1"/>
        <pt x="587" y="874" on="1"/>
        <pt x="454" y="759" on="1"/>
        <pt x="318" y="759" on="1"/>
      </contour>
      <contour>
        <pt x="148" y="710" on="1"/>
        <pt x="622" y="710" on="1"/>
        <pt x="586" y="540" on="1"/>
        <pt x="307" y="540" on="1"/>
        <pt x="286" y="440" on="1"/>
        <pt x="524" y="440" on="1"/>
        <pt x="490" y="282" on="1"/>
        <pt x="252" y="282" on="1"/>
        <pt x="228" y="170" on="1"/>
        <pt x="516" y="170" on="1"/>
        <pt x="480" y="0" on="1"/>
        <pt x="-3" y="0" on="1"/>
      </contour>
    </TTGlyph>
    <TTGlyph name="Ecircumflex" xMin="-3" yMin="0" xMax="622" yMax="916">
      <contour>
        <pt x="216" y="801" on="1"/>
        <pt x="349" y="916" on="1"/>
        <pt x="485" y="916" on="1"/>
        <pt x="569" y="801" on="1"/>
        <pt x="464" y="759" on="1"/>
        <pt x="397" y="822" on="1"/>
        <pt x="303" y="759" on="1"/>
      </contour>
      <contour>
        <pt x="148" y="710" on="1"/>
        <pt x="622" y="710" on="1"/>
        <pt x="586" y="540" on="1"/>
        <pt x="307" y="540" on="1"/>
        <pt x="286" y="440" on="1"/>
        <pt x="524" y="440" on="1"/>
        <pt x="490" y="282" on="1"/>
        <pt x="252" y="282" on="1"/>
        <pt x="228" y="170" on="1"/>
        <pt x="516" y="170" on="1"/>
        <pt x="480" y="0" on="1"/>
        <pt x="-3" y="0" on="1"/>
      </contour>
    </TTGlyph>
    <TTGlyph name="Edblgrave" xMin="-3" yMin="0" xMax="622" yMax="918">
      <contour>
        <pt x="148" y="710" on="1"/>
        <pt x="622" y="710" on="1"/>
        <pt x="586" y="540" on="1"/>
        <pt x="307" y="540" on="1"/>
        <pt x="286" y="440" on="1"/>
        <pt x="524" y="440" on="1"/>
        <pt x="490" y="282" on="1"/>
        <pt x="252" y="282" on="1"/>
        <pt x="228" y="170" on="1"/>
        <pt x="516" y="170" on="1"/>
        <pt x="480" y="0" on="1"/>
        <pt x="-3" y="0" on="1"/>
      </contour>
      <contour>
        <pt x="408" y="918" on="1"/>
        <pt x="545" y="918" on="1"/>
        <pt x="552" y="776" on="1"/>
        <pt x="452" y="762" on="1"/>
      </contour>
      <contour>
        <pt x="222" y="918" on="1"/>
        <pt x="360" y="918" on="1"/>
        <pt x="366" y="776" on="1"/>
        <pt x="266" y="762" on="1"/>
      </contour>
    </TTGlyph>
    <TTGlyph name="Edieresis" xMin="-3" yMin="0" xMax="622" yMax="907">
      <contour>
        <pt x="203" y="767" on="1"/>
        <pt x="233" y="907" on="1"/>
        <pt x="389" y="907" on="1"/>
        <pt x="359" y="767" on="1"/>
      </contour>
      <contour>
        <pt x="428" y="767" on="1"/>
        <pt x="458" y="907" on="1"/>
        <pt x="613" y="907" on="1"/>
        <pt x="584" y="767" on="1"/>
      </contour>
      <contour>
        <pt x="148" y="710" on="1"/>
        <pt x="622" y="710" on="1"/>
        <pt x="586" y="540" on="1"/>
        <pt x="307" y="540" on="1"/>
        <pt x="286" y="440" on="1"/>
        <pt x="524" y="440" on="1"/>
        <pt x="490" y="282" on="1"/>
        <pt x="252" y="282" on="1"/>
        <pt x="228" y="170" on="1"/>
        <pt x="516" y="170" on="1"/>
        <pt x="480" y="0" on="1"/>
        <pt x="-3" y="0" on="1"/>
      </contour>
    </TTGlyph>
    <TTGlyph name="Edotaccent" xMin="-3" yMin="0" xMax="622" yMax="916">
      <contour>
        <pt x="148" y="710" on="1"/>
        <pt x="622" y="710" on="1"/>
        <pt x="586" y="540" on="1"/>
        <pt x="307" y="540" on="1"/>
        <pt x="286" y="440" on="1"/>
        <pt x="524" y="440" on="1"/>
        <pt x="490" y="282" on="1"/>
        <pt x="252" y="282" on="1"/>
        <pt x="228" y="170" on="1"/>
        <pt x="516" y="170" on="1"/>
        <pt x="480" y="0" on="1"/>
        <pt x="-3" y="0" on="1"/>
      </contour>
      <contour>
        <pt x="307" y="766" on="1"/>
        <pt x="339" y="916" on="1"/>
        <pt x="509" y="916" on="1"/>
        <pt x="477" y="766" on="1"/>
      </contour>
    </TTGlyph>
    <TTGlyph name="Edotbelow" xMin="-3" yMin="-213" xMax="622" yMax="710">
      <contour>
        <pt x="148" y="710" on="1"/>
        <pt x="622" y="710" on="1"/>
        <pt x="586" y="540" on="1"/>
        <pt x="307" y="540" on="1"/>
        <pt x="286" y="440" on="1"/>
        <pt x="524" y="440" on="1"/>
        <pt x="490" y="282" on="1"/>
        <pt x="252" y="282" on="1"/>
        <pt x="228" y="170" on="1"/>
        <pt x="516" y="170" on="1"/>
        <pt x="480" y="0" on="1"/>
        <pt x="-3" y="0" on="1"/>
      </contour>
      <contour>
        <pt x="100" y="-213" on="1"/>
        <pt x="132" y="-63" on="1"/>
        <pt x="302" y="-63" on="1"/>
        <pt x="270" y="-213" on="1"/>
      </contour>
    </TTGlyph>
    <TTGlyph name="Egrave" xMin="-3" yMin="0" xMax="622" yMax="917">
      <contour>
        <pt x="148" y="710" on="1"/>
        <pt x="622" y="710" on="1"/>
        <pt x="586" y="540" on="1"/>
        <pt x="307" y="540" on="1"/>
        <pt x="286" y="440" on="1"/>
        <pt x="524" y="440" on="1"/>
        <pt x="490" y="282" on="1"/>
        <pt x="252" y="282" on="1"/>
        <pt x="228" y="170" on="1"/>
        <pt x="516" y="170" on="1"/>
        <pt x="480" y="0" on="1"/>
        <pt x="-3" y="0" on="1"/>
      </contour>
      <contour>
        <pt x="293" y="917" on="1"/>
        <pt x="461" y="917" on="1"/>
        <pt x="478" y="775" on="1"/>
        <pt x="346" y="761" on="1"/>
      </contour>
    </TTGlyph>
    <TTGlyph name="Einvertedbreve" xMin="-3" yMin="0" xMax="622" yMax="916">
      <contour>
        <pt x="148" y="710" on="1"/>
        <pt x="622" y="710" on="1"/>
        <pt x="586" y="540" on="1"/>
        <pt x="307" y="540" on="1"/>
        <pt x="286" y="440" on="1"/>
        <pt x="524" y="440" on="1"/>
        <pt x="490" y="282" on="1"/>
        <pt x="252" y="282" on="1"/>
        <pt x="228" y="170" on="1"/>
        <pt x="516" y="170" on="1"/>
        <pt x="480" y="0" on="1"/>
        <pt x="-3" y="0" on="1"/>
      </contour>
      <contour>
        <pt x="236" y="754" on="1"/>
        <pt x="243" y="790" on="0"/>
        <pt x="279" y="849" on="0"/>
        <pt x="329" y="892" on="0"/>
        <pt x="391" y="916" on="0"/>
        <pt x="426" y="916" on="1"/>
        <pt x="488" y="916" on="0"/>
        <pt x="552" y="845" on="0"/>
        <pt x="552" y="791" on="1"/>
        <pt x="552" y="771" on="0"/>
        <pt x="548" y="754" on="1"/>
        <pt x="450" y="754" on="1"/>
        <pt x="453" y="772" on="0"/>
        <pt x="453" y="786" on="1"/>
        <pt x="453" y="835" on="0"/>
        <pt x="408" y="835" on="1"/>
        <pt x="384" y="835" on="0"/>
        <pt x="342" y="802" on="0"/>
        <pt x="333" y="754" on="1"/>
      </contour>
    </TTGlyph>
    <TTGlyph name="Emacron" xMin="-3" yMin="0" xMax="622" yMax="906">
      <contour>
        <pt x="148" y="710" on="1"/>
        <pt x="622" y="710" on="1"/>
        <pt x="586" y="540" on="1"/>
        <pt x="307" y="540" on="1"/>
        <pt x="286" y="440" on="1"/>
        <pt x="524" y="440" on="1"/>
        <pt x="490" y="282" on="1"/>
        <pt x="252" y="282" on="1"/>
        <pt x="228" y="170" on="1"/>
        <pt x="516" y="170" on="1"/>
        <pt x="480" y="0" on="1"/>
        <pt x="-3" y="0" on="1"/>
      </contour>
      <contour>
        <pt x="252" y="793" on="1"/>
        <pt x="276" y="906" on="1"/>
        <pt x="572" y="906" on="1"/>
        <pt x="548" y="793" on="1"/>
      </contour>
    </TTGlyph>
    <TTGlyph name="Eng" xMin="-3" yMin="-209" xMax="731" yMax="710">
      <contour>
        <pt x="336" y="-209" on="1"/>
        <pt x="254" y="-209" on="0"/>
        <pt x="203" y="-155" on="1"/>
        <pt x="308" y="-26" on="1"/>
        <pt x="320" y="-46" on="0"/>
        <pt x="347" y="-46" on="1"/>
        <pt x="380" y="-46" on="0"/>
        <pt x="390" y="-3" on="1"/>
        <pt x="400" y="44" on="1"/>
        <pt x="265" y="343" on="1"/>
        <pt x="192" y="0" on="1"/>
        <pt x="-3" y="0" on="1"/>
        <pt x="148" y="710" on="1"/>
        <pt x="298" y="710" on="1"/>
        <pt x="462" y="359" on="1"/>
        <pt x="536" y="709" on="1"/>
        <pt x="731" y="709" on="1"/>
        <pt x="581" y="5" on="1"/>
        <pt x="570" y="-44" on="0"/>
        <pt x="523" y="-123" on="0"/>
        <pt x="458" y="-179" on="0"/>
        <pt x="379" y="-209" on="0"/>
      </contour>
    </TTGlyph>
    <TTGlyph name="Eogonek" xMin="-3" yMin="-214" xMax="622" yMax="710">
      <contour>
        <pt x="148" y="710" on="1"/>
        <pt x="622" y="710" on="1"/>
        <pt x="586" y="540" on="1"/>
        <pt x="307" y="540" on="1"/>
        <pt x="286" y="440" on="1"/>
        <pt x="524" y="440" on="1"/>
        <pt x="490" y="282" on="1"/>
        <pt x="252" y="282" on="1"/>
        <pt x="228" y="170" on="1"/>
        <pt x="516" y="170" on="1"/>
        <pt x="480" y="0" on="1"/>
        <pt x="296" y="0" on="1"/>
        <pt x="257" y="-22" on="0"/>
        <pt x="213" y="-64" on="0"/>
        <pt x="213" y="-82" on="1"/>
        <pt x="213" y="-96" on="0"/>
        <pt x="242" y="-114" on="0"/>
        <pt x="274" y="-114" on="1"/>
        <pt x="218" y="-214" on="1"/>
        <pt x="150" y="-206" on="0"/>
        <pt x="87" y="-157" on="0"/>
        <pt x="87" y="-125" on="1"/>
        <pt x="87" y="-94" on="0"/>
        <pt x="141" y="-29" on="0"/>
        <pt x="194" y="0" on="1"/>
        <pt x="-3" y="0" on="1"/>
      </contour>
    </TTGlyph>
    <TTGlyph name="Eth" xMin="0" yMin="0" xMax="689" yMax="710">
      <contour>
        <pt x="57" y="427" on="1"/>
        <pt x="91" y="427" on="1"/>
        <pt x="151" y="710" on="1"/>
        <pt x="413" y="710" on="1"/>
        <pt x="483" y="710" on="0"/>
        <pt x="587" y="667" on="0"/>
        <pt x="656" y="592" on="0"/>
        <pt x="689" y="491" on="0"/>
        <pt x="689" y="433" on="1"/>
        <pt x="689" y="339" on="0"/>
        <pt x="624" y="180" on="0"/>
        <pt x="509" y="65" on="0"/>
        <pt x="353" y="0" on="0"/>
        <pt x="262" y="0" on="1"/>
        <pt x="0" y="0" on="1"/>
        <pt x="61" y="287" on="1"/>
        <pt x="28" y="287" on="1"/>
      </contour>
      <contour>
        <pt x="298" y="170" on="1"/>
        <pt x="340" y="170" on="0"/>
        <pt x="410" y="208" on="0"/>
        <pt x="460" y="273" on="0"/>
        <pt x="488" y="358" on="0"/>
        <pt x="488" y="405" on="1"/>
        <pt x="488" y="466" on="0"/>
        <pt x="431" y="540" on="0"/>
        <pt x="377" y="540" on="1"/>
        <pt x="310" y="540" on="1"/>
        <pt x="286" y="427" on="1"/>
        <pt x="390" y="427" on="1"/>
        <pt x="360" y="287" on="1"/>
        <pt x="256" y="287" on="1"/>
        <pt x="231" y="170" on="1"/>
      </contour>
    </TTGlyph>
    <TTGlyph name="Etilde" xMin="-3" yMin="0" xMax="625" yMax="916">
      <contour>
        <pt x="148" y="710" on="1"/>
        <pt x="622" y="710" on="1"/>
        <pt x="586" y="540" on="1"/>
        <pt x="307" y="540" on="1"/>
        <pt x="286" y="440" on="1"/>
        <pt x="524" y="440" on="1"/>
        <pt x="490" y="282" on="1"/>
        <pt x="252" y="282" on="1"/>
        <pt x="228" y="170" on="1"/>
        <pt x="516" y="170" on="1"/>
        <pt x="480" y="0" on="1"/>
        <pt x="-3" y="0" on="1"/>
      </contour>
      <contour>
        <pt x="452" y="758" on="1"/>
        <pt x="430" y="758" on="0"/>
        <pt x="400" y="773" on="0"/>
        <pt x="375" y="791" on="0"/>
        <pt x="350" y="806" on="0"/>
        <pt x="334" y="806" on="1"/>
        <pt x="318" y="806" on="0"/>
        <pt x="297" y="792" on="0"/>
        <pt x="285" y="774" on="0"/>
        <pt x="281" y="759" on="0"/>
        <pt x="281" y="758" on="1"/>
        <pt x="180" y="758" on="1"/>
        <pt x="183" y="771" on="0"/>
        <pt x="209" y="824" on="0"/>
        <pt x="253" y="876" on="0"/>
        <pt x="313" y="916" on="0"/>
        <pt x="349" y="916" on="1"/>
        <pt x="373" y="916" on="0"/>
        <pt x="403" y="900" on="0"/>
        <pt x="428" y="881" on="0"/>
        <pt x="451" y="865" on="0"/>
        <pt x="467" y="865" on="1"/>
        <pt x="482" y="865" on="0"/>
        <pt x="504" y="880" on="0"/>
        <pt x="518" y="899" on="0"/>
        <pt x="525" y="915" on="0"/>
        <pt x="525" y="916" on="1"/>
        <pt x="625" y="916" on="1"/>
        <pt x="623" y="907" on="0"/>
        <pt x="596" y="856" on="0"/>
        <pt x="551" y="801" on="0"/>
        <pt x="489" y="758" on="0"/>
      </contour>
    </TTGlyph>
    <TTGlyph name="Euro" xMin="18" yMin="-6" xMax="778" yMax="714">
      <contour>
        <pt x="143" y="464" on="1"/>
        <pt x="168" y="515" on="0"/>
        <pt x="246" y="606" on="0"/>
        <pt x="346" y="674" on="0"/>
        <pt x="465" y="714" on="0"/>
        <pt x="532" y="714" on="1"/>
        <pt x="630" y="714" on="0"/>
        <pt x="758" y="629" on="0"/>
        <pt x="778" y="559" on="1"/>
        <pt x="607" y="453" on="1"/>
        <pt x="603" y="479" on="0"/>
        <pt x="580" y="513" on="0"/>
        <pt x="547" y="533" on="0"/>
        <pt x="509" y="541" on="0"/>
        <pt x="491" y="541" on="1"/>
        <pt x="445" y="541" on="0"/>
        <pt x="374" y="498" on="0"/>
        <pt x="350" y="464" on="1"/>
        <pt x="516" y="464" on="1"/>
        <pt x="455" y="364" on="1"/>
        <pt x="307" y="364" on="1"/>
        <pt x="301" y="341" on="0"/>
        <pt x="301" y="321" on="1"/>
        <pt x="459" y="321" on="1"/>
        <pt x="398" y="221" on="1"/>
        <pt x="321" y="221" on="1"/>
        <pt x="335" y="196" on="0"/>
        <pt x="381" y="167" on="0"/>
        <pt x="414" y="167" on="1"/>
        <pt x="432" y="167" on="0"/>
        <pt x="472" y="176" on="0"/>
        <pt x="511" y="197" on="0"/>
        <pt x="547" y="230" on="0"/>
        <pt x="560" y="254" on="1"/>
        <pt x="699" y="159" on="1"/>
        <pt x="676" y="120" on="0"/>
        <pt x="601" y="58" on="0"/>
        <pt x="512" y="16" on="0"/>
        <pt x="416" y="-6" on="0"/>
        <pt x="373" y="-6" on="1"/>
        <pt x="319" y="-6" on="0"/>
        <pt x="231" y="30" on="0"/>
        <pt x="164" y="91" on="0"/>
        <pt x="120" y="174" on="0"/>
        <pt x="110" y="221" on="1"/>
        <pt x="18" y="221" on="1"/>
        <pt x="79" y="321" on="1"/>
        <pt x="103" y="321" on="1"/>
        <pt x="104" y="341" on="0"/>
        <pt x="109" y="364" on="1"/>
        <pt x="46" y="364" on="1"/>
        <pt x="107" y="464" on="1"/>
      </contour>
    </TTGlyph>
    <TTGlyph name="F" xMin="-3" yMin="0" xMax="612" yMax="710">
      <contour>
        <pt x="148" y="710" on="1"/>
        <pt x="612" y="710" on="1"/>
        <pt x="576" y="540" on="1"/>
        <pt x="307" y="540" on="1"/>
        <pt x="282" y="422" on="1"/>
        <pt x="500" y="422" on="1"/>
        <pt x="467" y="264" on="1"/>
        <pt x="248" y="264" on="1"/>
        <pt x="192" y="0" on="1"/>
        <pt x="-3" y="0" on="1"/>
      </contour>
    </TTGlyph>
    <TTGlyph name="F.sc" xMin="-9" yMin="0" xMax="530" yMax="568">
      <contour>
        <pt x="112" y="568" on="1"/>
        <pt x="530" y="568" on="1"/>
        <pt x="499" y="420" on="1"/>
        <pt x="250" y="420" on="1"/>
        <pt x="234" y="342" on="1"/>
        <pt x="437" y="342" on="1"/>
        <pt x="408" y="204" on="1"/>
        <pt x="204" y="204" on="1"/>
        <pt x="161" y="0" on="1"/>
        <pt x="-9" y="0" on="1"/>
      </contour>
    </TTGlyph>
    <TTGlyph name="G" xMin="28" yMin="-5" xMax="707" yMax="715">
      <contour>
        <pt x="466" y="60" on="1"/>
        <pt x="422" y="26" on="0"/>
        <pt x="338" y="-5" on="0"/>
        <pt x="290" y="-5" on="1"/>
        <pt x="234" y="-5" on="0"/>
        <pt x="138" y="34" on="0"/>
        <pt x="68" y="108" on="0"/>
        <pt x="28" y="214" on="0"/>
        <pt x="28" y="282" on="1"/>
        <pt x="28" y="373" on="0"/>
        <pt x="101" y="531" on="0"/>
        <pt x="223" y="648" on="0"/>
        <pt x="379" y="715" on="0"/>
        <pt x="463" y="715" on="1"/>
        <pt x="508" y="715" on="0"/>
        <pt x="588" y="694" on="0"/>
        <pt x="652" y="653" on="0"/>
        <pt x="696" y="596" on="0"/>
        <pt x="707" y="560" on="1"/>
        <pt x="539" y="449" on="1"/>
        <pt x="528" y="491" on="0"/>
        <pt x="462" y="542" on="0"/>
        <pt x="419" y="542" on="1"/>
        <pt x="381" y="542" on="0"/>
        <pt x="313" y="505" on="0"/>
        <pt x="260" y="442" on="0"/>
        <pt x="229" y="356" on="0"/>
        <pt x="229" y="307" on="1"/>
        <pt x="229" y="244" on="0"/>
        <pt x="289" y="168" on="0"/>
        <pt x="344" y="168" on="1"/>
        <pt x="422" y="168" on="0"/>
        <pt x="498" y="238" on="1"/>
        <pt x="382" y="238" on="1"/>
        <pt x="411" y="378" on="1"/>
        <pt x="695" y="378" on="1"/>
        <pt x="614" y="0" on="1"/>
        <pt x="454" y="0" on="1"/>
      </contour>
    </TTGlyph>
    <TTGlyph name="G.alt" xMin="29" yMin="-5" xMax="684" yMax="715">
      <contour>
        <pt x="303" y="-5" on="1"/>
        <pt x="238" y="-5" on="0"/>
        <pt x="136" y="44" on="0"/>
        <pt x="66" y="126" on="0"/>
        <pt x="29" y="235" on="0"/>
        <pt x="29" y="295" on="1"/>
        <pt x="29" y="371" on="0"/>
        <pt x="92" y="521" on="0"/>
        <pt x="203" y="641" on="0"/>
        <pt x="357" y="715" on="0"/>
        <pt x="449" y="715" on="1"/>
        <pt x="537" y="715" on="0"/>
        <pt x="653" y="641" on="0"/>
        <pt x="676" y="570" on="1"/>
        <pt x="495" y="449" on="1"/>
        <pt x="495" y="454" on="0"/>
        <pt x="488" y="485" on="0"/>
        <pt x="468" y="517" on="0"/>
        <pt x="431" y="542" on="0"/>
        <pt x="400" y="542" on="1"/>
        <pt x="359" y="542" on="0"/>
        <pt x="295" y="497" on="0"/>
        <pt x="250" y="426" on="0"/>
        <pt x="227" y="340" on="0"/>
        <pt x="227" y="299" on="1"/>
        <pt x="227" y="275" on="0"/>
        <pt x="236" y="229" on="0"/>
        <pt x="257" y="191" on="0"/>
        <pt x="293" y="168" on="0"/>
        <pt x="319" y="168" on="1"/>
        <pt x="354" y="168" on="0"/>
        <pt x="419" y="205" on="0"/>
        <pt x="437" y="228" on="1"/>
        <pt x="339" y="228" on="1"/>
        <pt x="375" y="398" on="1"/>
        <pt x="684" y="398" on="1"/>
        <pt x="679" y="375" on="0"/>
        <pt x="670" y="332" on="0"/>
        <pt x="665" y="309" on="1"/>
        <pt x="652" y="244" on="0"/>
        <pt x="586" y="130" on="0"/>
        <pt x="491" y="45" on="0"/>
        <pt x="371" y="-5" on="0"/>
      </contour>
    </TTGlyph>
    <TTGlyph name="G.sc" xMin="16" yMin="-4" xMax="575" yMax="572">
      <contour>
        <pt x="372" y="41" on="1"/>
        <pt x="337" y="17" on="0"/>
        <pt x="271" y="-4" on="0"/>
        <pt x="235" y="-4" on="1"/>
        <pt x="187" y="-4" on="0"/>
        <pt x="107" y="34" on="0"/>
        <pt x="48" y="100" on="0"/>
        <pt x="16" y="188" on="0"/>
        <pt x="16" y="238" on="1"/>
        <pt x="16" y="307" on="0"/>
        <pt x="76" y="429" on="0"/>
        <pt x="175" y="520" on="0"/>
        <pt x="304" y="572" on="0"/>
        <pt x="374" y="572" on="1"/>
        <pt x="450" y="572" on="0"/>
        <pt x="558" y="506" on="0"/>
        <pt x="575" y="448" on="1"/>
        <pt x="428" y="351" on="1"/>
        <pt x="420" y="382" on="0"/>
        <pt x="368" y="421" on="0"/>
        <pt x="336" y="421" on="1"/>
        <pt x="307" y="421" on="0"/>
        <pt x="254" y="395" on="0"/>
        <pt x="214" y="349" on="0"/>
        <pt x="190" y="287" on="0"/>
        <pt x="190" y="250" on="1"/>
        <pt x="190" y="202" on="0"/>
        <pt x="238" y="147" on="0"/>
        <pt x="282" y="147" on="1"/>
        <pt x="330" y="147" on="0"/>
        <pt x="381" y="184" on="1"/>
        <pt x="292" y="184" on="1"/>
        <pt x="318" y="306" on="1"/>
        <pt x="569" y="306" on="1"/>
        <pt x="503" y="0" on="1"/>
        <pt x="363" y="0" on="1"/>
      </contour>
    </TTGlyph>
    <TTGlyph name="Gacute" xMin="28" yMin="-5" xMax="707" yMax="916">
      <contour>
        <pt x="466" y="60" on="1"/>
        <pt x="422" y="26" on="0"/>
        <pt x="338" y="-5" on="0"/>
        <pt x="290" y="-5" on="1"/>
        <pt x="234" y="-5" on="0"/>
        <pt x="138" y="34" on="0"/>
        <pt x="68" y="108" on="0"/>
        <pt x="28" y="214" on="0"/>
        <pt x="28" y="282" on="1"/>
        <pt x="28" y="373" on="0"/>
        <pt x="101" y="531" on="0"/>
        <pt x="223" y="648" on="0"/>
        <pt x="379" y="715" on="0"/>
        <pt x="463" y="715" on="1"/>
        <pt x="508" y="715" on="0"/>
        <pt x="588" y="694" on="0"/>
        <pt x="652" y="653" on="0"/>
        <pt x="696" y="596" on="0"/>
        <pt x="707" y="560" on="1"/>
        <pt x="539" y="449" on="1"/>
        <pt x="528" y="491" on="0"/>
        <pt x="462" y="542" on="0"/>
        <pt x="419" y="542" on="1"/>
        <pt x="381" y="542" on="0"/>
        <pt x="313" y="505" on="0"/>
        <pt x="260" y="442" on="0"/>
        <pt x="229" y="356" on="0"/>
        <pt x="229" y="307" on="1"/>
        <pt x="229" y="244" on="0"/>
        <pt x="289" y="168" on="0"/>
        <pt x="344" y="168" on="1"/>
        <pt x="422" y="168" on="0"/>
        <pt x="498" y="238" on="1"/>
        <pt x="382" y="238" on="1"/>
        <pt x="411" y="378" on="1"/>
        <pt x="695" y="378" on="1"/>
        <pt x="614" y="0" on="1"/>
        <pt x="454" y="0" on="1"/>
      </contour>
      <contour>
        <pt x="528" y="762" on="1"/>
        <pt x="400" y="774" on="1"/>
        <pt x="477" y="916" on="1"/>
        <pt x="645" y="916" on="1"/>
      </contour>
    </TTGlyph>
    <TTGlyph name="Gbreve" xMin="28" yMin="-5" xMax="707" yMax="916">
      <contour>
        <pt x="466" y="60" on="1"/>
        <pt x="422" y="26" on="0"/>
        <pt x="338" y="-5" on="0"/>
        <pt x="290" y="-5" on="1"/>
        <pt x="234" y="-5" on="0"/>
        <pt x="138" y="34" on="0"/>
        <pt x="68" y="108" on="0"/>
        <pt x="28" y="214" on="0"/>
        <pt x="28" y="282" on="1"/>
        <pt x="28" y="373" on="0"/>
        <pt x="101" y="531" on="0"/>
        <pt x="223" y="648" on="0"/>
        <pt x="379" y="715" on="0"/>
        <pt x="463" y="715" on="1"/>
        <pt x="508" y="715" on="0"/>
        <pt x="588" y="694" on="0"/>
        <pt x="652" y="653" on="0"/>
        <pt x="696" y="596" on="0"/>
        <pt x="707" y="560" on="1"/>
        <pt x="539" y="449" on="1"/>
        <pt x="528" y="491" on="0"/>
        <pt x="462" y="542" on="0"/>
        <pt x="419" y="542" on="1"/>
        <pt x="381" y="542" on="0"/>
        <pt x="313" y="505" on="0"/>
        <pt x="260" y="442" on="0"/>
        <pt x="229" y="356" on="0"/>
        <pt x="229" y="307" on="1"/>
        <pt x="229" y="244" on="0"/>
        <pt x="289" y="168" on="0"/>
        <pt x="344" y="168" on="1"/>
        <pt x="422" y="168" on="0"/>
        <pt x="498" y="238" on="1"/>
        <pt x="382" y="238" on="1"/>
        <pt x="411" y="378" on="1"/>
        <pt x="695" y="378" on="1"/>
        <pt x="614" y="0" on="1"/>
        <pt x="454" y="0" on="1"/>
      </contour>
      <contour>
        <pt x="480" y="835" on="1"/>
        <pt x="502" y="835" on="0"/>
        <pt x="544" y="881" on="0"/>
        <pt x="555" y="916" on="1"/>
        <pt x="653" y="916" on="1"/>
        <pt x="645" y="880" on="0"/>
        <pt x="610" y="821" on="0"/>
        <pt x="560" y="778" on="0"/>
        <pt x="497" y="754" on="0"/>
        <pt x="463" y="754" on="1"/>
        <pt x="403" y="754" on="0"/>
        <pt x="336" y="820" on="0"/>
        <pt x="336" y="875" on="1"/>
        <pt x="336" y="893" on="0"/>
        <pt x="341" y="916" on="1"/>
        <pt x="439" y="916" on="1"/>
        <pt x="436" y="904" on="0"/>
        <pt x="436" y="893" on="1"/>
        <pt x="436" y="868" on="0"/>
        <pt x="460" y="835" on="0"/>
      </contour>
    </TTGlyph>
    <TTGlyph name="Gcircumflex" xMin="28" yMin="-5" xMax="707" yMax="916">
      <contour>
        <pt x="304" y="801" on="1"/>
        <pt x="437" y="916" on="1"/>
        <pt x="573" y="916" on="1"/>
        <pt x="657" y="801" on="1"/>
        <pt x="552" y="759" on="1"/>
        <pt x="485" y="822" on="1"/>
        <pt x="391" y="759" on="1"/>
      </contour>
      <contour>
        <pt x="466" y="60" on="1"/>
        <pt x="422" y="26" on="0"/>
        <pt x="338" y="-5" on="0"/>
        <pt x="290" y="-5" on="1"/>
        <pt x="234" y="-5" on="0"/>
        <pt x="138" y="34" on="0"/>
        <pt x="68" y="108" on="0"/>
        <pt x="28" y="214" on="0"/>
        <pt x="28" y="282" on="1"/>
        <pt x="28" y="373" on="0"/>
        <pt x="101" y="531" on="0"/>
        <pt x="223" y="648" on="0"/>
        <pt x="379" y="715" on="0"/>
        <pt x="463" y="715" on="1"/>
        <pt x="508" y="715" on="0"/>
        <pt x="588" y="694" on="0"/>
        <pt x="652" y="653" on="0"/>
        <pt x="696" y="596" on="0"/>
        <pt x="707" y="560" on="1"/>
        <pt x="539" y="449" on="1"/>
        <pt x="528" y="491" on="0"/>
        <pt x="462" y="542" on="0"/>
        <pt x="419" y="542" on="1"/>
        <pt x="381" y="542" on="0"/>
        <pt x="313" y="505" on="0"/>
        <pt x="260" y="442" on="0"/>
        <pt x="229" y="356" on="0"/>
        <pt x="229" y="307" on="1"/>
        <pt x="229" y="244" on="0"/>
        <pt x="289" y="168" on="0"/>
        <pt x="344" y="168" on="1"/>
        <pt x="422" y="168" on="0"/>
        <pt x="498" y="238" on="1"/>
        <pt x="382" y="238" on="1"/>
        <pt x="411" y="378" on="1"/>
        <pt x="695" y="378" on="1"/>
        <pt x="614" y="0" on="1"/>
        <pt x="454" y="0" on="1"/>
      </contour>
    </TTGlyph>
    <TTGlyph name="Gcommaaccent" xMin="28" yMin="-213" xMax="707" yMax="715">
      <contour>
        <pt x="205" y="-213" on="1"/>
        <pt x="254" y="-152" on="1"/>
        <pt x="197" y="-152" on="1"/>
        <pt x="220" y="-46" on="1"/>
        <pt x="376" y="-46" on="1"/>
        <pt x="354" y="-152" on="1"/>
        <pt x="287" y="-213" on="1"/>
      </contour>
      <contour>
        <pt x="466" y="60" on="1"/>
        <pt x="422" y="26" on="0"/>
        <pt x="338" y="-5" on="0"/>
        <pt x="290" y="-5" on="1"/>
        <pt x="234" y="-5" on="0"/>
        <pt x="138" y="34" on="0"/>
        <pt x="68" y="108" on="0"/>
        <pt x="28" y="214" on="0"/>
        <pt x="28" y="282" on="1"/>
        <pt x="28" y="373" on="0"/>
        <pt x="101" y="531" on="0"/>
        <pt x="223" y="648" on="0"/>
        <pt x="379" y="715" on="0"/>
        <pt x="463" y="715" on="1"/>
        <pt x="508" y="715" on="0"/>
        <pt x="588" y="694" on="0"/>
        <pt x="652" y="653" on="0"/>
        <pt x="696" y="596" on="0"/>
        <pt x="707" y="560" on="1"/>
        <pt x="539" y="449" on="1"/>
        <pt x="528" y="491" on="0"/>
        <pt x="462" y="542" on="0"/>
        <pt x="419" y="542" on="1"/>
        <pt x="381" y="542" on="0"/>
        <pt x="313" y="505" on="0"/>
        <pt x="260" y="442" on="0"/>
        <pt x="229" y="356" on="0"/>
        <pt x="229" y="307" on="1"/>
        <pt x="229" y="244" on="0"/>
        <pt x="289" y="168" on="0"/>
        <pt x="344" y="168" on="1"/>
        <pt x="422" y="168" on="0"/>
        <pt x="498" y="238" on="1"/>
        <pt x="382" y="238" on="1"/>
        <pt x="411" y="378" on="1"/>
        <pt x="695" y="378" on="1"/>
        <pt x="614" y="0" on="1"/>
        <pt x="454" y="0" on="1"/>
      </contour>
    </TTGlyph>
    <TTGlyph name="Gdotaccent" xMin="28" yMin="-5" xMax="707" yMax="916">
      <contour>
        <pt x="466" y="60" on="1"/>
        <pt x="422" y="26" on="0"/>
        <pt x="338" y="-5" on="0"/>
        <pt x="290" y="-5" on="1"/>
        <pt x="234" y="-5" on="0"/>
        <pt x="138" y="34" on="0"/>
        <pt x="68" y="108" on="0"/>
        <pt x="28" y="214" on="0"/>
        <pt x="28" y="282" on="1"/>
        <pt x="28" y="373" on="0"/>
        <pt x="101" y="531" on="0"/>
        <pt x="223" y="648" on="0"/>
        <pt x="379" y="715" on="0"/>
        <pt x="463" y="715" on="1"/>
        <pt x="508" y="715" on="0"/>
        <pt x="588" y="694" on="0"/>
        <pt x="652" y="653" on="0"/>
        <pt x="696" y="596" on="0"/>
        <pt x="707" y="560" on="1"/>
        <pt x="539" y="449" on="1"/>
        <pt x="528" y="491" on="0"/>
        <pt x="462" y="542" on="0"/>
        <pt x="419" y="542" on="1"/>
        <pt x="381" y="542" on="0"/>
        <pt x="313" y="505" on="0"/>
        <pt x="260" y="442" on="0"/>
        <pt x="229" y="356" on="0"/>
        <pt x="229" y="307" on="1"/>
        <pt x="229" y="244" on="0"/>
        <pt x="289" y="168" on="0"/>
        <pt x="344" y="168" on="1"/>
        <pt x="422" y="168" on="0"/>
        <pt x="498" y="238" on="1"/>
        <pt x="382" y="238" on="1"/>
        <pt x="411" y="378" on="1"/>
        <pt x="695" y="378" on="1"/>
        <pt x="614" y="0" on="1"/>
        <pt x="454" y="0" on="1"/>
      </contour>
      <contour>
        <pt x="387" y="766" on="1"/>
        <pt x="419" y="916" on="1"/>
        <pt x="589" y="916" on="1"/>
        <pt x="557" y="766" on="1"/>
      </contour>
    </TTGlyph>
    <TTGlyph name="H" xMin="-3" yMin="0" xMax="750" yMax="710">
      <contour>
        <pt x="148" y="710" on="1"/>
        <pt x="343" y="710" on="1"/>
        <pt x="287" y="448" on="1"/>
        <pt x="499" y="448" on="1"/>
        <pt x="555" y="710" on="1"/>
        <pt x="750" y="710" on="1"/>
        <pt x="599" y="0" on="1"/>
        <pt x="404" y="0" on="1"/>
        <pt x="463" y="278" on="1"/>
        <pt x="251" y="278" on="1"/>
        <pt x="192" y="0" on="1"/>
        <pt x="-3" y="0" on="1"/>
      </contour>
    </TTGlyph>
    <TTGlyph name="H.sc" xMin="-9" yMin="0" xMax="653" yMax="568">
      <contour>
        <pt x="112" y="568" on="1"/>
        <pt x="282" y="568" on="1"/>
        <pt x="238" y="365" on="1"/>
        <pt x="439" y="365" on="1"/>
        <pt x="483" y="568" on="1"/>
        <pt x="653" y="568" on="1"/>
        <pt x="532" y="0" on="1"/>
        <pt x="362" y="0" on="1"/>
        <pt x="408" y="216" on="1"/>
        <pt x="207" y="216" on="1"/>
        <pt x="161" y="0" on="1"/>
        <pt x="-9" y="0" on="1"/>
      </contour>
    </TTGlyph>
    <TTGlyph name="Hbar" xMin="0" yMin="0" xMax="782" yMax="710">
      <contour>
        <pt x="86" y="626" on="1"/>
        <pt x="133" y="626" on="1"/>
        <pt x="151" y="710" on="1"/>
        <pt x="346" y="710" on="1"/>
        <pt x="328" y="626" on="1"/>
        <pt x="540" y="626" on="1"/>
        <pt x="558" y="710" on="1"/>
        <pt x="753" y="710" on="1"/>
        <pt x="735" y="626" on="1"/>
        <pt x="782" y="626" on="1"/>
        <pt x="764" y="538" on="1"/>
        <pt x="716" y="538" on="1"/>
        <pt x="602" y="0" on="1"/>
        <pt x="407" y="0" on="1"/>
        <pt x="466" y="278" on="1"/>
        <pt x="254" y="278" on="1"/>
        <pt x="195" y="0" on="1"/>
        <pt x="0" y="0" on="1"/>
        <pt x="114" y="538" on="1"/>
        <pt x="67" y="538" on="1"/>
      </contour>
      <contour>
        <pt x="502" y="448" on="1"/>
        <pt x="521" y="538" on="1"/>
        <pt x="309" y="538" on="1"/>
        <pt x="290" y="448" on="1"/>
      </contour>
    </TTGlyph>
    <TTGlyph name="Hcircumflex" xMin="-3" yMin="0" xMax="750" yMax="916">
      <contour>
        <pt x="293" y="801" on="1"/>
        <pt x="426" y="916" on="1"/>
        <pt x="562" y="916" on="1"/>
        <pt x="646" y="801" on="1"/>
        <pt x="541" y="759" on="1"/>
        <pt x="474" y="822" on="1"/>
        <pt x="380" y="759" on="1"/>
      </contour>
      <contour>
        <pt x="148" y="710" on="1"/>
        <pt x="343" y="710" on="1"/>
        <pt x="287" y="448" on="1"/>
        <pt x="499" y="448" on="1"/>
        <pt x="555" y="710" on="1"/>
        <pt x="750" y="710" on="1"/>
        <pt x="599" y="0" on="1"/>
        <pt x="404" y="0" on="1"/>
        <pt x="463" y="278" on="1"/>
        <pt x="251" y="278" on="1"/>
        <pt x="192" y="0" on="1"/>
        <pt x="-3" y="0" on="1"/>
      </contour>
    </TTGlyph>
    <TTGlyph name="Hdotbelow" xMin="-3" yMin="-213" xMax="750" yMax="710">
      <contour>
        <pt x="148" y="710" on="1"/>
        <pt x="343" y="710" on="1"/>
        <pt x="287" y="448" on="1"/>
        <pt x="499" y="448" on="1"/>
        <pt x="555" y="710" on="1"/>
        <pt x="750" y="710" on="1"/>
        <pt x="599" y="0" on="1"/>
        <pt x="404" y="0" on="1"/>
        <pt x="463" y="278" on="1"/>
        <pt x="251" y="278" on="1"/>
        <pt x="192" y="0" on="1"/>
        <pt x="-3" y="0" on="1"/>
      </contour>
      <contour>
        <pt x="164" y="-213" on="1"/>
        <pt x="196" y="-63" on="1"/>
        <pt x="366" y="-63" on="1"/>
        <pt x="334" y="-213" on="1"/>
      </contour>
    </TTGlyph>
    <TTGlyph name="I" xMin="-3" yMin="0" xMax="343" yMax="710">
      <contour>
        <pt x="148" y="710" on="1"/>
        <pt x="343" y="710" on="1"/>
        <pt x="192" y="0" on="1"/>
        <pt x="-3" y="0" on="1"/>
      </contour>
    </TTGlyph>
    <TTGlyph name="I.sc" xMin="-9" yMin="0" xMax="282" yMax="568">
      <contour>
        <pt x="112" y="568" on="1"/>
        <pt x="282" y="568" on="1"/>
        <pt x="161" y="0" on="1"/>
        <pt x="-9" y="0" on="1"/>
      </contour>
    </TTGlyph>
    <TTGlyph name="IJ" xMin="-3" yMin="-11" xMax="839" yMax="710">
      <contour>
        <pt x="148" y="710" on="1"/>
        <pt x="343" y="710" on="1"/>
        <pt x="192" y="0" on="1"/>
        <pt x="-3" y="0" on="1"/>
      </contour>
      <contour>
        <pt x="406" y="-11" on="1"/>
        <pt x="321" y="-11" on="0"/>
        <pt x="269" y="33" on="1"/>
        <pt x="343" y="192" on="1"/>
        <pt x="345" y="190" on="0"/>
        <pt x="361" y="180" on="0"/>
        <pt x="388" y="170" on="0"/>
        <pt x="423" y="162" on="0"/>
        <pt x="443" y="162" on="1"/>
        <pt x="471" y="162" on="0"/>
        <pt x="508" y="182" on="0"/>
        <pt x="535" y="227" on="0"/>
        <pt x="556" y="298" on="0"/>
        <pt x="567" y="349" on="1"/>
        <pt x="644" y="710" on="1"/>
        <pt x="839" y="710" on="1"/>
        <pt x="762" y="349" on="1"/>
        <pt x="745" y="268" on="0"/>
        <pt x="699" y="135" on="0"/>
        <pt x="621" y="41" on="0"/>
        <pt x="499" y="-11" on="0"/>
      </contour>
    </TTGlyph>
    <TTGlyph name="Iacute" xMin="-3" yMin="0" xMax="408" yMax="916">
      <contour>
        <pt x="148" y="710" on="1"/>
        <pt x="343" y="710" on="1"/>
        <pt x="192" y="0" on="1"/>
        <pt x="-3" y="0" on="1"/>
      </contour>
      <contour>
        <pt x="291" y="762" on="1"/>
        <pt x="163" y="774" on="1"/>
        <pt x="240" y="916" on="1"/>
        <pt x="408" y="916" on="1"/>
      </contour>
    </TTGlyph>
    <TTGlyph name="Ibreve" xMin="-3" yMin="0" xMax="445" yMax="916">
      <contour>
        <pt x="148" y="710" on="1"/>
        <pt x="343" y="710" on="1"/>
        <pt x="192" y="0" on="1"/>
        <pt x="-3" y="0" on="1"/>
      </contour>
      <contour>
        <pt x="272" y="835" on="1"/>
        <pt x="294" y="835" on="0"/>
        <pt x="336" y="881" on="0"/>
        <pt x="347" y="916" on="1"/>
        <pt x="445" y="916" on="1"/>
        <pt x="437" y="880" on="0"/>
        <pt x="402" y="821" on="0"/>
        <pt x="352" y="778" on="0"/>
        <pt x="289" y="754" on="0"/>
        <pt x="255" y="754" on="1"/>
        <pt x="195" y="754" on="0"/>
        <pt x="128" y="820" on="0"/>
        <pt x="128" y="875" on="1"/>
        <pt x="128" y="893" on="0"/>
        <pt x="133" y="916" on="1"/>
        <pt x="231" y="916" on="1"/>
        <pt x="228" y="904" on="0"/>
        <pt x="228" y="893" on="1"/>
        <pt x="228" y="868" on="0"/>
        <pt x="252" y="835" on="0"/>
      </contour>
    </TTGlyph>
    <TTGlyph name="Icircumflex" xMin="-3" yMin="0" xMax="445" yMax="916">
      <contour>
        <pt x="148" y="710" on="1"/>
        <pt x="343" y="710" on="1"/>
        <pt x="192" y="0" on="1"/>
        <pt x="-3" y="0" on="1"/>
      </contour>
      <contour>
        <pt x="92" y="801" on="1"/>
        <pt x="225" y="916" on="1"/>
        <pt x="361" y="916" on="1"/>
        <pt x="445" y="801" on="1"/>
        <pt x="340" y="759" on="1"/>
        <pt x="273" y="822" on="1"/>
        <pt x="179" y="759" on="1"/>
      </contour>
    </TTGlyph>
    <TTGlyph name="Idblgrave" xMin="-3" yMin="0" xMax="421" yMax="918">
      <contour>
        <pt x="148" y="710" on="1"/>
        <pt x="343" y="710" on="1"/>
        <pt x="192" y="0" on="1"/>
        <pt x="-3" y="0" on="1"/>
      </contour>
      <contour>
        <pt x="277" y="918" on="1"/>
        <pt x="414" y="918" on="1"/>
        <pt x="421" y="776" on="1"/>
        <pt x="321" y="762" on="1"/>
      </contour>
      <contour>
        <pt x="91" y="918" on="1"/>
        <pt x="229" y="918" on="1"/>
        <pt x="235" y="776" on="1"/>
        <pt x="135" y="762" on="1"/>
      </contour>
    </TTGlyph>
    <TTGlyph name="Idieresis" xMin="-3" yMin="0" xMax="478" yMax="907">
      <contour>
        <pt x="148" y="710" on="1"/>
        <pt x="343" y="710" on="1"/>
        <pt x="192" y="0" on="1"/>
        <pt x="-3" y="0" on="1"/>
      </contour>
      <contour>
        <pt x="68" y="767" on="1"/>
        <pt x="98" y="907" on="1"/>
        <pt x="254" y="907" on="1"/>
        <pt x="224" y="767" on="1"/>
      </contour>
      <contour>
        <pt x="293" y="767" on="1"/>
        <pt x="323" y="907" on="1"/>
        <pt x="478" y="907" on="1"/>
        <pt x="449" y="767" on="1"/>
      </contour>
    </TTGlyph>
    <TTGlyph name="Idotaccent" xMin="-3" yMin="0" xMax="377" yMax="916">
      <contour>
        <pt x="148" y="710" on="1"/>
        <pt x="343" y="710" on="1"/>
        <pt x="192" y="0" on="1"/>
        <pt x="-3" y="0" on="1"/>
      </contour>
      <contour>
        <pt x="175" y="766" on="1"/>
        <pt x="207" y="916" on="1"/>
        <pt x="377" y="916" on="1"/>
        <pt x="345" y="766" on="1"/>
      </contour>
    </TTGlyph>
    <TTGlyph name="Idotbelow" xMin="-32" yMin="-213" xMax="343" yMax="710">
      <contour>
        <pt x="148" y="710" on="1"/>
        <pt x="343" y="710" on="1"/>
        <pt x="192" y="0" on="1"/>
        <pt x="-3" y="0" on="1"/>
      </contour>
      <contour>
        <pt x="-32" y="-213" on="1"/>
        <pt x="0" y="-63" on="1"/>
        <pt x="170" y="-63" on="1"/>
        <pt x="138" y="-213" on="1"/>
      </contour>
    </TTGlyph>
    <TTGlyph name="Igrave" xMin="-3" yMin="0" xMax="343" yMax="917">
      <contour>
        <pt x="148" y="710" on="1"/>
        <pt x="343" y="710" on="1"/>
        <pt x="192" y="0" on="1"/>
        <pt x="-3" y="0" on="1"/>
      </contour>
      <contour>
        <pt x="155" y="917" on="1"/>
        <pt x="323" y="917" on="1"/>
        <pt x="340" y="775" on="1"/>
        <pt x="208" y="761" on="1"/>
      </contour>
    </TTGlyph>
    <TTGlyph name="Iinvertedbreve" xMin="-3" yMin="0" xMax="415" yMax="916">
      <contour>
        <pt x="148" y="710" on="1"/>
        <pt x="343" y="710" on="1"/>
        <pt x="192" y="0" on="1"/>
        <pt x="-3" y="0" on="1"/>
      </contour>
      <contour>
        <pt x="99" y="754" on="1"/>
        <pt x="106" y="790" on="0"/>
        <pt x="142" y="849" on="0"/>
        <pt x="192" y="892" on="0"/>
        <pt x="254" y="916" on="0"/>
        <pt x="289" y="916" on="1"/>
        <pt x="351" y="916" on="0"/>
        <pt x="415" y="845" on="0"/>
        <pt x="415" y="791" on="1"/>
        <pt x="415" y="771" on="0"/>
        <pt x="411" y="754" on="1"/>
        <pt x="313" y="754" on="1"/>
        <pt x="316" y="772" on="0"/>
        <pt x="316" y="786" on="1"/>
        <pt x="316" y="835" on="0"/>
        <pt x="271" y="835" on="1"/>
        <pt x="247" y="835" on="0"/>
        <pt x="205" y="802" on="0"/>
        <pt x="196" y="754" on="1"/>
      </contour>
    </TTGlyph>
    <TTGlyph name="Imacron" xMin="-3" yMin="0" xMax="436" yMax="906">
      <contour>
        <pt x="148" y="710" on="1"/>
        <pt x="343" y="710" on="1"/>
        <pt x="192" y="0" on="1"/>
        <pt x="-3" y="0" on="1"/>
      </contour>
      <contour>
        <pt x="116" y="793" on="1"/>
        <pt x="140" y="906" on="1"/>
        <pt x="436" y="906" on="1"/>
        <pt x="412" y="793" on="1"/>
      </contour>
    </TTGlyph>
    <TTGlyph name="Iogonek" xMin="-19" yMin="-214" xMax="343" yMax="710">
      <contour>
        <pt x="148" y="710" on="1"/>
        <pt x="343" y="710" on="1"/>
        <pt x="192" y="1" on="1"/>
        <pt x="151" y="-22" on="0"/>
        <pt x="107" y="-64" on="0"/>
        <pt x="107" y="-82" on="1"/>
        <pt x="107" y="-96" on="0"/>
        <pt x="136" y="-114" on="0"/>
        <pt x="168" y="-114" on="1"/>
        <pt x="112" y="-214" on="1"/>
        <pt x="44" y="-206" on="0"/>
        <pt x="-19" y="-157" on="0"/>
        <pt x="-19" y="-125" on="1"/>
        <pt x="-19" y="-94" on="0"/>
        <pt x="35" y="-29" on="0"/>
        <pt x="88" y="0" on="1"/>
        <pt x="-3" y="0" on="1"/>
      </contour>
    </TTGlyph>
    <TTGlyph name="Itilde" xMin="-3" yMin="0" xMax="499" yMax="916">
      <contour>
        <pt x="148" y="710" on="1"/>
        <pt x="343" y="710" on="1"/>
        <pt x="192" y="0" on="1"/>
        <pt x="-3" y="0" on="1"/>
      </contour>
      <contour>
        <pt x="326" y="758" on="1"/>
        <pt x="304" y="758" on="0"/>
        <pt x="274" y="773" on="0"/>
        <pt x="249" y="791" on="0"/>
        <pt x="224" y="806" on="0"/>
        <pt x="208" y="806" on="1"/>
        <pt x="192" y="806" on="0"/>
        <pt x="171" y="792" on="0"/>
        <pt x="159" y="774" on="0"/>
        <pt x="155" y="759" on="0"/>
        <pt x="155" y="758" on="1"/>
        <pt x="54" y="758" on="1"/>
        <pt x="57" y="771" on="0"/>
        <pt x="83" y="824" on="0"/>
        <pt x="127" y="876" on="0"/>
        <pt x="187" y="916" on="0"/>
        <pt x="223" y="916" on="1"/>
        <pt x="247" y="916" on="0"/>
        <pt x="277" y="900" on="0"/>
        <pt x="302" y="881" on="0"/>
        <pt x="325" y="865" on="0"/>
        <pt x="341" y="865" on="1"/>
        <pt x="356" y="865" on="0"/>
        <pt x="378" y="880" on="0"/>
        <pt x="392" y="899" on="0"/>
        <pt x="399" y="915" on="0"/>
        <pt x="399" y="916" on="1"/>
        <pt x="499" y="916" on="1"/>
        <pt x="497" y="907" on="0"/>
        <pt x="470" y="856" on="0"/>
        <pt x="425" y="801" on="0"/>
        <pt x="363" y="758" on="0"/>
      </contour>
    </TTGlyph>
    <TTGlyph name="J" xMin="-48" yMin="-11" xMax="522" yMax="710">
      <contour>
        <pt x="89" y="-11" on="1"/>
        <pt x="4" y="-11" on="0"/>
        <pt x="-48" y="33" on="1"/>
        <pt x="26" y="192" on="1"/>
        <pt x="28" y="190" on="0"/>
        <pt x="44" y="180" on="0"/>
        <pt x="71" y="170" on="0"/>
        <pt x="106" y="162" on="0"/>
        <pt x="126" y="162" on="1"/>
        <pt x="154" y="162" on="0"/>
        <pt x="191" y="182" on="0"/>
        <pt x="218" y="227" on="0"/>
        <pt x="239" y="298" on="0"/>
        <pt x="250" y="349" on="1"/>
        <pt x="327" y="710" on="1"/>
        <pt x="522" y="710" on="1"/>
        <pt x="445" y="349" on="1"/>
        <pt x="428" y="268" on="0"/>
        <pt x="382" y="135" on="0"/>
        <pt x="304" y="41" on="0"/>
        <pt x="182" y="-11" on="0"/>
      </contour>
    </TTGlyph>
    <TTGlyph name="J.sc" xMin="-48" yMin="-9" xMax="449" yMax="568">
      <contour>
        <pt x="77" y="-9" on="1"/>
        <pt x="-1" y="-9" on="0"/>
        <pt x="-48" y="26" on="1"/>
        <pt x="17" y="165" on="1"/>
        <pt x="22" y="158" on="0"/>
        <pt x="72" y="142" on="0"/>
        <pt x="109" y="142" on="1"/>
        <pt x="135" y="142" on="0"/>
        <pt x="170" y="156" on="0"/>
        <pt x="194" y="189" on="0"/>
        <pt x="210" y="241" on="0"/>
        <pt x="218" y="279" on="1"/>
        <pt x="279" y="568" on="1"/>
        <pt x="449" y="568" on="1"/>
        <pt x="388" y="279" on="1"/>
        <pt x="374" y="214" on="0"/>
        <pt x="336" y="108" on="0"/>
        <pt x="268" y="32" on="0"/>
        <pt x="161" y="-9" on="0"/>
      </contour>
    </TTGlyph>
    <TTGlyph name="Jcircumflex" xMin="-48" yMin="-11" xMax="619" yMax="916">
      <contour>
        <pt x="266" y="801" on="1"/>
        <pt x="399" y="916" on="1"/>
        <pt x="535" y="916" on="1"/>
        <pt x="619" y="801" on="1"/>
        <pt x="514" y="759" on="1"/>
        <pt x="447" y="822" on="1"/>
        <pt x="353" y="759" on="1"/>
      </contour>
      <contour>
        <pt x="89" y="-11" on="1"/>
        <pt x="4" y="-11" on="0"/>
        <pt x="-48" y="33" on="1"/>
        <pt x="26" y="192" on="1"/>
        <pt x="28" y="190" on="0"/>
        <pt x="44" y="180" on="0"/>
        <pt x="71" y="170" on="0"/>
        <pt x="106" y="162" on="0"/>
        <pt x="126" y="162" on="1"/>
        <pt x="154" y="162" on="0"/>
        <pt x="191" y="182" on="0"/>
        <pt x="218" y="227" on="0"/>
        <pt x="239" y="298" on="0"/>
        <pt x="250" y="349" on="1"/>
        <pt x="327" y="710" on="1"/>
        <pt x="522" y="710" on="1"/>
        <pt x="445" y="349" on="1"/>
        <pt x="428" y="268" on="0"/>
        <pt x="382" y="135" on="0"/>
        <pt x="304" y="41" on="0"/>
        <pt x="182" y="-11" on="0"/>
      </contour>
    </TTGlyph>
    <TTGlyph name="K" xMin="-3" yMin="0" xMax="755" yMax="710">
      <contour>
        <pt x="148" y="710" on="1"/>
        <pt x="343" y="710" on="1"/>
        <pt x="286" y="440" on="1"/>
        <pt x="534" y="710" on="1"/>
        <pt x="755" y="710" on="1"/>
        <pt x="444" y="392" on="1"/>
        <pt x="621" y="0" on="1"/>
        <pt x="396" y="0" on="1"/>
        <pt x="292" y="261" on="1"/>
        <pt x="236" y="205" on="1"/>
        <pt x="192" y="0" on="1"/>
        <pt x="-3" y="0" on="1"/>
      </contour>
    </TTGlyph>
    <TTGlyph name="K.sc" xMin="-9" yMin="0" xMax="656" yMax="568">
      <contour>
        <pt x="112" y="568" on="1"/>
        <pt x="282" y="568" on="1"/>
        <pt x="235" y="350" on="1"/>
        <pt x="481" y="568" on="1"/>
        <pt x="656" y="568" on="1"/>
        <pt x="381" y="313" on="1"/>
        <pt x="551" y="0" on="1"/>
        <pt x="373" y="0" on="1"/>
        <pt x="260" y="218" on="1"/>
        <pt x="197" y="168" on="1"/>
        <pt x="161" y="0" on="1"/>
        <pt x="-9" y="0" on="1"/>
      </contour>
    </TTGlyph>
    <TTGlyph name="Kcommaaccent" xMin="-3" yMin="-213" xMax="755" yMax="710">
      <contour>
        <pt x="203" y="-213" on="1"/>
        <pt x="252" y="-152" on="1"/>
        <pt x="195" y="-152" on="1"/>
        <pt x="218" y="-46" on="1"/>
        <pt x="374" y="-46" on="1"/>
        <pt x="352" y="-152" on="1"/>
        <pt x="285" y="-213" on="1"/>
      </contour>
      <contour>
        <pt x="148" y="710" on="1"/>
        <pt x="343" y="710" on="1"/>
        <pt x="286" y="440" on="1"/>
        <pt x="534" y="710" on="1"/>
        <pt x="755" y="710" on="1"/>
        <pt x="444" y="392" on="1"/>
        <pt x="621" y="0" on="1"/>
        <pt x="396" y="0" on="1"/>
        <pt x="292" y="261" on="1"/>
        <pt x="236" y="205" on="1"/>
        <pt x="192" y="0" on="1"/>
        <pt x="-3" y="0" on="1"/>
      </contour>
    </TTGlyph>
    <TTGlyph name="L" xMin="-3" yMin="0" xMax="527" yMax="710">
      <contour>
        <pt x="148" y="710" on="1"/>
        <pt x="343" y="710" on="1"/>
        <pt x="228" y="170" on="1"/>
        <pt x="527" y="170" on="1"/>
        <pt x="491" y="0" on="1"/>
        <pt x="-3" y="0" on="1"/>
      </contour>
    </TTGlyph>
    <TTGlyph name="L.sc" xMin="-9" yMin="0" xMax="422" yMax="568">
      <contour>
        <pt x="112" y="568" on="1"/>
        <pt x="282" y="568" on="1"/>
        <pt x="192" y="148" on="1"/>
        <pt x="422" y="148" on="1"/>
        <pt x="390" y="0" on="1"/>
        <pt x="-9" y="0" on="1"/>
      </contour>
    </TTGlyph>
    <TTGlyph name="Lacute" xMin="-3" yMin="0" xMax="527" yMax="916">
      <contour>
        <pt x="295" y="762" on="1"/>
        <pt x="167" y="774" on="1"/>
        <pt x="244" y="916" on="1"/>
        <pt x="412" y="916" on="1"/>
      </contour>
      <contour>
        <pt x="148" y="710" on="1"/>
        <pt x="343" y="710" on="1"/>
        <pt x="228" y="170" on="1"/>
        <pt x="527" y="170" on="1"/>
        <pt x="491" y="0" on="1"/>
        <pt x="-3" y="0" on="1"/>
      </contour>
    </TTGlyph>
    <TTGlyph name="Lcaron" xMin="-3" yMin="0" xMax="619" yMax="730">
      <contour>
        <pt x="374" y="588" on="1"/>
        <pt x="451" y="730" on="1"/>
        <pt x="619" y="730" on="1"/>
        <pt x="487" y="556" on="1"/>
      </contour>
      <contour>
        <pt x="148" y="710" on="1"/>
        <pt x="343" y="710" on="1"/>
        <pt x="228" y="170" on="1"/>
        <pt x="527" y="170" on="1"/>
        <pt x="491" y="0" on="1"/>
        <pt x="-3" y="0" on="1"/>
      </contour>
    </TTGlyph>
    <TTGlyph name="Lcommaaccent" xMin="-3" yMin="-213" xMax="527" yMax="710">
      <contour>
        <pt x="147" y="-213" on="1"/>
        <pt x="196" y="-152" on="1"/>
        <pt x="139" y="-152" on="1"/>
        <pt x="162" y="-46" on="1"/>
        <pt x="318" y="-46" on="1"/>
        <pt x="296" y="-152" on="1"/>
        <pt x="229" y="-213" on="1"/>
      </contour>
      <contour>
        <pt x="148" y="710" on="1"/>
        <pt x="343" y="710" on="1"/>
        <pt x="228" y="170" on="1"/>
        <pt x="527" y="170" on="1"/>
        <pt x="491" y="0" on="1"/>
        <pt x="-3" y="0" on="1"/>
      </contour>
    </TTGlyph>
    <TTGlyph name="Ldot" xMin="-3" yMin="0" xMax="540" yMax="710">
      <contour>
        <pt x="148" y="710" on="1"/>
        <pt x="343" y="710" on="1"/>
        <pt x="228" y="170" on="1"/>
        <pt x="527" y="170" on="1"/>
        <pt x="491" y="0" on="1"/>
        <pt x="-3" y="0" on="1"/>
      </contour>
      <contour>
        <pt x="347" y="336" on="1"/>
        <pt x="386" y="520" on="1"/>
        <pt x="540" y="520" on="1"/>
        <pt x="501" y="336" on="1"/>
      </contour>
    </TTGlyph>
    <TTGlyph name="Lslash" xMin="-4" yMin="0" xMax="537" yMax="710">
      <contour>
        <pt x="-4" y="353" on="1"/>
        <pt x="91" y="397" on="1"/>
        <pt x="158" y="710" on="1"/>
        <pt x="353" y="710" on="1"/>
        <pt x="307" y="496" on="1"/>
        <pt x="375" y="527" on="1"/>
        <pt x="396" y="426" on="1"/>
        <pt x="281" y="373" on="1"/>
        <pt x="238" y="170" on="1"/>
        <pt x="537" y="170" on="1"/>
        <pt x="501" y="0" on="1"/>
        <pt x="7" y="0" on="1"/>
        <pt x="65" y="274" on="1"/>
        <pt x="17" y="252" on="1"/>
      </contour>
    </TTGlyph>
    <TTGlyph name="M" xMin="-3" yMin="0" xMax="846" yMax="710">
      <contour>
        <pt x="148" y="710" on="1"/>
        <pt x="361" y="710" on="1"/>
        <pt x="426" y="376" on="1"/>
        <pt x="634" y="710" on="1"/>
        <pt x="846" y="710" on="1"/>
        <pt x="695" y="0" on="1"/>
        <pt x="500" y="0" on="1"/>
        <pt x="579" y="374" on="1"/>
        <pt x="421" y="111" on="1"/>
        <pt x="318" y="111" on="1"/>
        <pt x="272" y="374" on="1"/>
        <pt x="192" y="0" on="1"/>
        <pt x="-3" y="0" on="1"/>
      </contour>
    </TTGlyph>
    <TTGlyph name="M.sc" xMin="-9" yMin="0" xMax="741" yMax="568">
      <contour>
        <pt x="112" y="568" on="1"/>
        <pt x="298" y="568" on="1"/>
        <pt x="374" y="318" on="1"/>
        <pt x="556" y="568" on="1"/>
        <pt x="741" y="568" on="1"/>
        <pt x="620" y="0" on="1"/>
        <pt x="450" y="0" on="1"/>
        <pt x="509" y="275" on="1"/>
        <pt x="369" y="86" on="1"/>
        <pt x="279" y="86" on="1"/>
        <pt x="219" y="275" on="1"/>
        <pt x="161" y="0" on="1"/>
        <pt x="-9" y="0" on="1"/>
      </contour>
    </TTGlyph>
    <TTGlyph name="N" xMin="-3" yMin="0" xMax="751" yMax="710">
      <contour>
        <pt x="148" y="710" on="1"/>
        <pt x="300" y="710" on="1"/>
        <pt x="480" y="349" on="1"/>
        <pt x="556" y="710" on="1"/>
        <pt x="751" y="710" on="1"/>
        <pt x="600" y="0" on="1"/>
        <pt x="446" y="0" on="1"/>
        <pt x="266" y="349" on="1"/>
        <pt x="192" y="0" on="1"/>
        <pt x="-3" y="0" on="1"/>
      </contour>
    </TTGlyph>
    <TTGlyph name="N.sc" xMin="-9" yMin="0" xMax="656" yMax="568">
      <contour>
        <pt x="112" y="568" on="1"/>
        <pt x="245" y="568" on="1"/>
        <pt x="430" y="306" on="1"/>
        <pt x="486" y="568" on="1"/>
        <pt x="656" y="568" on="1"/>
        <pt x="535" y="0" on="1"/>
        <pt x="400" y="0" on="1"/>
        <pt x="215" y="253" on="1"/>
        <pt x="161" y="0" on="1"/>
        <pt x="-9" y="0" on="1"/>
      </contour>
    </TTGlyph>
    <TTGlyph name="Nacute" xMin="-3" yMin="0" xMax="751" yMax="916">
      <contour>
        <pt x="498" y="762" on="1"/>
        <pt x="370" y="774" on="1"/>
        <pt x="447" y="916" on="1"/>
        <pt x="615" y="916" on="1"/>
      </contour>
      <contour>
        <pt x="148" y="710" on="1"/>
        <pt x="300" y="710" on="1"/>
        <pt x="480" y="349" on="1"/>
        <pt x="556" y="710" on="1"/>
        <pt x="751" y="710" on="1"/>
        <pt x="600" y="0" on="1"/>
        <pt x="446" y="0" on="1"/>
        <pt x="266" y="349" on="1"/>
        <pt x="192" y="0" on="1"/>
        <pt x="-3" y="0" on="1"/>
      </contour>
    </TTGlyph>
    <TTGlyph name="Ncaron" xMin="-3" yMin="0" xMax="751" yMax="916">
      <contour>
        <pt x="290" y="874" on="1"/>
        <pt x="395" y="916" on="1"/>
        <pt x="462" y="853" on="1"/>
        <pt x="556" y="916" on="1"/>
        <pt x="643" y="874" on="1"/>
        <pt x="510" y="759" on="1"/>
        <pt x="374" y="759" on="1"/>
      </contour>
      <contour>
        <pt x="148" y="710" on="1"/>
        <pt x="300" y="710" on="1"/>
        <pt x="480" y="349" on="1"/>
        <pt x="556" y="710" on="1"/>
        <pt x="751" y="710" on="1"/>
        <pt x="600" y="0" on="1"/>
        <pt x="446" y="0" on="1"/>
        <pt x="266" y="349" on="1"/>
        <pt x="192" y="0" on="1"/>
        <pt x="-3" y="0" on="1"/>
      </contour>
    </TTGlyph>
    <TTGlyph name="Ncommaaccent" xMin="-3" yMin="-213" xMax="751" yMax="710">
      <contour>
        <pt x="207" y="-213" on="1"/>
        <pt x="256" y="-152" on="1"/>
        <pt x="199" y="-152" on="1"/>
        <pt x="222" y="-46" on="1"/>
        <pt x="378" y="-46" on="1"/>
        <pt x="356" y="-152" on="1"/>
        <pt x="289" y="-213" on="1"/>
      </contour>
      <contour>
        <pt x="148" y="710" on="1"/>
        <pt x="300" y="710" on="1"/>
        <pt x="480" y="349" on="1"/>
        <pt x="556" y="710" on="1"/>
        <pt x="751" y="710" on="1"/>
        <pt x="600" y="0" on="1"/>
        <pt x="446" y="0" on="1"/>
        <pt x="266" y="349" on="1"/>
        <pt x="192" y="0" on="1"/>
        <pt x="-3" y="0" on="1"/>
      </contour>
    </TTGlyph>
    <TTGlyph name="Ndotaccent" xMin="-3" yMin="0" xMax="751" yMax="916">
      <contour>
        <pt x="367" y="766" on="1"/>
        <pt x="399" y="916" on="1"/>
        <pt x="569" y="916" on="1"/>
        <pt x="537" y="766" on="1"/>
      </contour>
      <contour>
        <pt x="148" y="710" on="1"/>
        <pt x="300" y="710" on="1"/>
        <pt x="480" y="349" on="1"/>
        <pt x="556" y="710" on="1"/>
        <pt x="751" y="710" on="1"/>
        <pt x="600" y="0" on="1"/>
        <pt x="446" y="0" on="1"/>
        <pt x="266" y="349" on="1"/>
        <pt x="192" y="0" on="1"/>
        <pt x="-3" y="0" on="1"/>
      </contour>
    </TTGlyph>
    <TTGlyph name="Ntilde" xMin="-3" yMin="0" xMax="751" yMax="916">
      <contour>
        <pt x="148" y="710" on="1"/>
        <pt x="300" y="710" on="1"/>
        <pt x="480" y="349" on="1"/>
        <pt x="556" y="710" on="1"/>
        <pt x="751" y="710" on="1"/>
        <pt x="600" y="0" on="1"/>
        <pt x="446" y="0" on="1"/>
        <pt x="266" y="349" on="1"/>
        <pt x="192" y="0" on="1"/>
        <pt x="-3" y="0" on="1"/>
      </contour>
      <contour>
        <pt x="523" y="758" on="1"/>
        <pt x="501" y="758" on="0"/>
        <pt x="471" y="773" on="0"/>
        <pt x="446" y="791" on="0"/>
        <pt x="421" y="806" on="0"/>
        <pt x="405" y="806" on="1"/>
        <pt x="389" y="806" on="0"/>
        <pt x="368" y="792" on="0"/>
        <pt x="356" y="774" on="0"/>
        <pt x="352" y="759" on="0"/>
        <pt x="352" y="758" on="1"/>
        <pt x="251" y="758" on="1"/>
        <pt x="254" y="771" on="0"/>
        <pt x="280" y="824" on="0"/>
        <pt x="324" y="876" on="0"/>
        <pt x="384" y="916" on="0"/>
        <pt x="420" y="916" on="1"/>
        <pt x="444" y="916" on="0"/>
        <pt x="474" y="900" on="0"/>
        <pt x="499" y="881" on="0"/>
        <pt x="522" y="865" on="0"/>
        <pt x="538" y="865" on="1"/>
        <pt x="553" y="865" on="0"/>
        <pt x="575" y="880" on="0"/>
        <pt x="589" y="899" on="0"/>
        <pt x="596" y="915" on="0"/>
        <pt x="596" y="916" on="1"/>
        <pt x="696" y="916" on="1"/>
        <pt x="694" y="907" on="0"/>
        <pt x="667" y="856" on="0"/>
        <pt x="622" y="801" on="0"/>
        <pt x="560" y="758" on="0"/>
      </contour>
    </TTGlyph>
    <TTGlyph name="O" xMin="28" yMin="-6" xMax="733" yMax="714">
      <contour>
        <pt x="303" y="-6" on="1"/>
        <pt x="237" y="-6" on="0"/>
        <pt x="134" y="44" on="0"/>
        <pt x="64" y="126" on="0"/>
        <pt x="28" y="234" on="0"/>
        <pt x="28" y="292" on="1"/>
        <pt x="28" y="373" on="0"/>
        <pt x="98" y="525" on="0"/>
        <pt x="217" y="643" on="0"/>
        <pt x="374" y="714" on="0"/>
        <pt x="460" y="714" on="1"/>
        <pt x="526" y="714" on="0"/>
        <pt x="628" y="664" on="0"/>
        <pt x="697" y="581" on="0"/>
        <pt x="733" y="474" on="0"/>
        <pt x="733" y="416" on="1"/>
        <pt x="733" y="336" on="0"/>
        <pt x="663" y="184" on="0"/>
        <pt x="545" y="66" on="0"/>
        <pt x="389" y="-6" on="0"/>
      </contour>
      <contour>
        <pt x="341" y="167" on="1"/>
        <pt x="389" y="167" on="0"/>
        <pt x="461" y="212" on="0"/>
        <pt x="510" y="281" on="0"/>
        <pt x="534" y="364" on="0"/>
        <pt x="534" y="403" on="1"/>
        <pt x="534" y="431" on="0"/>
        <pt x="521" y="481" on="0"/>
        <pt x="494" y="519" on="0"/>
        <pt x="450" y="541" on="0"/>
        <pt x="420" y="541" on="1"/>
        <pt x="373" y="541" on="0"/>
        <pt x="301" y="497" on="0"/>
        <pt x="253" y="429" on="0"/>
        <pt x="228" y="346" on="0"/>
        <pt x="228" y="307" on="1"/>
        <pt x="228" y="279" on="0"/>
        <pt x="241" y="229" on="0"/>
        <pt x="268" y="190" on="0"/>
        <pt x="311" y="167" on="0"/>
      </contour>
    </TTGlyph>
    <TTGlyph name="O.sc" xMin="15" yMin="-5" xMax="612" yMax="571">
      <contour>
        <pt x="251" y="-5" on="1"/>
        <pt x="195" y="-5" on="0"/>
        <pt x="107" y="35" on="0"/>
        <pt x="47" y="102" on="0"/>
        <pt x="15" y="190" on="0"/>
        <pt x="15" y="237" on="1"/>
        <pt x="15" y="301" on="0"/>
        <pt x="74" y="422" on="0"/>
        <pt x="174" y="515" on="0"/>
        <pt x="305" y="571" on="0"/>
        <pt x="377" y="571" on="1"/>
        <pt x="434" y="571" on="0"/>
        <pt x="522" y="531" on="0"/>
        <pt x="581" y="463" on="0"/>
        <pt x="612" y="376" on="0"/>
        <pt x="612" y="329" on="1"/>
        <pt x="612" y="266" on="0"/>
        <pt x="554" y="146" on="0"/>
        <pt x="455" y="52" on="0"/>
        <pt x="324" y="-5" on="0"/>
      </contour>
      <contour>
        <pt x="285" y="146" on="1"/>
        <pt x="322" y="146" on="0"/>
        <pt x="380" y="178" on="0"/>
        <pt x="418" y="227" on="0"/>
        <pt x="438" y="287" on="0"/>
        <pt x="438" y="315" on="1"/>
        <pt x="438" y="357" on="0"/>
        <pt x="392" y="420" on="0"/>
        <pt x="343" y="420" on="1"/>
        <pt x="305" y="420" on="0"/>
        <pt x="248" y="389" on="0"/>
        <pt x="210" y="341" on="0"/>
        <pt x="190" y="281" on="0"/>
        <pt x="190" y="253" on="1"/>
        <pt x="190" y="232" on="0"/>
        <pt x="201" y="193" on="0"/>
        <pt x="224" y="164" on="0"/>
        <pt x="260" y="146" on="0"/>
      </contour>
    </TTGlyph>
    <TTGlyph name="OE" xMin="28" yMin="-5" xMax="1025" yMax="715">
      <contour>
        <pt x="282" y="-5" on="1"/>
        <pt x="221" y="-5" on="0"/>
        <pt x="126" y="44" on="0"/>
        <pt x="62" y="125" on="0"/>
        <pt x="28" y="231" on="0"/>
        <pt x="28" y="288" on="1"/>
        <pt x="28" y="369" on="0"/>
        <pt x="96" y="523" on="0"/>
        <pt x="210" y="643" on="0"/>
        <pt x="359" y="715" on="0"/>
        <pt x="440" y="715" on="1"/>
        <pt x="475" y="715" on="0"/>
        <pt x="536" y="691" on="0"/>
        <pt x="563" y="670" on="1"/>
        <pt x="571" y="710" on="1"/>
        <pt x="1025" y="710" on="1"/>
        <pt x="989" y="540" on="1"/>
        <pt x="730" y="540" on="1"/>
        <pt x="710" y="446" on="1"/>
        <pt x="918" y="446" on="1"/>
        <pt x="882" y="276" on="1"/>
        <pt x="674" y="276" on="1"/>
        <pt x="651" y="170" on="1"/>
        <pt x="919" y="170" on="1"/>
        <pt x="883" y="0" on="1"/>
        <pt x="420" y="0" on="1"/>
        <pt x="429" y="41" on="1"/>
        <pt x="392" y="20" on="0"/>
        <pt x="319" y="-5" on="0"/>
      </contour>
      <contour>
        <pt x="321" y="168" on="1"/>
        <pt x="363" y="168" on="0"/>
        <pt x="428" y="214" on="0"/>
        <pt x="472" y="285" on="0"/>
        <pt x="494" y="370" on="0"/>
        <pt x="494" y="409" on="1"/>
        <pt x="494" y="436" on="0"/>
        <pt x="483" y="484" on="0"/>
        <pt x="460" y="520" on="0"/>
        <pt x="425" y="542" on="0"/>
        <pt x="400" y="542" on="1"/>
        <pt x="358" y="542" on="0"/>
        <pt x="294" y="496" on="0"/>
        <pt x="250" y="425" on="0"/>
        <pt x="227" y="340" on="0"/>
        <pt x="227" y="301" on="1"/>
        <pt x="227" y="274" on="0"/>
        <pt x="238" y="226" on="0"/>
        <pt x="260" y="190" on="0"/>
        <pt x="296" y="168" on="0"/>
      </contour>
    </TTGlyph>
    <TTGlyph name="Oacute" xMin="28" yMin="-6" xMax="733" yMax="916">
      <contour>
        <pt x="519" y="762" on="1"/>
        <pt x="391" y="774" on="1"/>
        <pt x="468" y="916" on="1"/>
        <pt x="636" y="916" on="1"/>
      </contour>
      <contour>
        <pt x="303" y="-6" on="1"/>
        <pt x="237" y="-6" on="0"/>
        <pt x="134" y="44" on="0"/>
        <pt x="64" y="126" on="0"/>
        <pt x="28" y="234" on="0"/>
        <pt x="28" y="292" on="1"/>
        <pt x="28" y="373" on="0"/>
        <pt x="98" y="525" on="0"/>
        <pt x="217" y="643" on="0"/>
        <pt x="374" y="714" on="0"/>
        <pt x="460" y="714" on="1"/>
        <pt x="526" y="714" on="0"/>
        <pt x="628" y="664" on="0"/>
        <pt x="697" y="581" on="0"/>
        <pt x="733" y="474" on="0"/>
        <pt x="733" y="416" on="1"/>
        <pt x="733" y="336" on="0"/>
        <pt x="663" y="184" on="0"/>
        <pt x="545" y="66" on="0"/>
        <pt x="389" y="-6" on="0"/>
      </contour>
      <contour>
        <pt x="341" y="167" on="1"/>
        <pt x="389" y="167" on="0"/>
        <pt x="461" y="212" on="0"/>
        <pt x="510" y="281" on="0"/>
        <pt x="534" y="364" on="0"/>
        <pt x="534" y="403" on="1"/>
        <pt x="534" y="431" on="0"/>
        <pt x="521" y="481" on="0"/>
        <pt x="494" y="519" on="0"/>
        <pt x="450" y="541" on="0"/>
        <pt x="420" y="541" on="1"/>
        <pt x="373" y="541" on="0"/>
        <pt x="301" y="497" on="0"/>
        <pt x="253" y="429" on="0"/>
        <pt x="228" y="346" on="0"/>
        <pt x="228" y="307" on="1"/>
        <pt x="228" y="279" on="0"/>
        <pt x="241" y="229" on="0"/>
        <pt x="268" y="190" on="0"/>
        <pt x="311" y="167" on="0"/>
      </contour>
    </TTGlyph>
    <TTGlyph name="Obreve" xMin="28" yMin="-6" xMax="733" yMax="916">
      <contour>
        <pt x="303" y="-6" on="1"/>
        <pt x="237" y="-6" on="0"/>
        <pt x="134" y="44" on="0"/>
        <pt x="64" y="126" on="0"/>
        <pt x="28" y="234" on="0"/>
        <pt x="28" y="292" on="1"/>
        <pt x="28" y="373" on="0"/>
        <pt x="98" y="525" on="0"/>
        <pt x="217" y="643" on="0"/>
        <pt x="374" y="714" on="0"/>
        <pt x="460" y="714" on="1"/>
        <pt x="526" y="714" on="0"/>
        <pt x="628" y="664" on="0"/>
        <pt x="697" y="581" on="0"/>
        <pt x="733" y="474" on="0"/>
        <pt x="733" y="416" on="1"/>
        <pt x="733" y="336" on="0"/>
        <pt x="663" y="184" on="0"/>
        <pt x="545" y="66" on="0"/>
        <pt x="389" y="-6" on="0"/>
      </contour>
      <contour>
        <pt x="341" y="167" on="1"/>
        <pt x="389" y="167" on="0"/>
        <pt x="461" y="212" on="0"/>
        <pt x="510" y="281" on="0"/>
        <pt x="534" y="364" on="0"/>
        <pt x="534" y="403" on="1"/>
        <pt x="534" y="431" on="0"/>
        <pt x="521" y="481" on="0"/>
        <pt x="494" y="519" on="0"/>
        <pt x="450" y="541" on="0"/>
        <pt x="420" y="541" on="1"/>
        <pt x="373" y="541" on="0"/>
        <pt x="301" y="497" on="0"/>
        <pt x="253" y="429" on="0"/>
        <pt x="228" y="346" on="0"/>
        <pt x="228" y="307" on="1"/>
        <pt x="228" y="279" on="0"/>
        <pt x="241" y="229" on="0"/>
        <pt x="268" y="190" on="0"/>
        <pt x="311" y="167" on="0"/>
      </contour>
      <contour>
        <pt x="484" y="835" on="1"/>
        <pt x="506" y="835" on="0"/>
        <pt x="548" y="881" on="0"/>
        <pt x="559" y="916" on="1"/>
        <pt x="657" y="916" on="1"/>
        <pt x="649" y="880" on="0"/>
        <pt x="614" y="821" on="0"/>
        <pt x="564" y="778" on="0"/>
        <pt x="501" y="754" on="0"/>
        <pt x="467" y="754" on="1"/>
        <pt x="407" y="754" on="0"/>
        <pt x="340" y="820" on="0"/>
        <pt x="340" y="875" on="1"/>
        <pt x="340" y="893" on="0"/>
        <pt x="345" y="916" on="1"/>
        <pt x="443" y="916" on="1"/>
        <pt x="440" y="904" on="0"/>
        <pt x="440" y="893" on="1"/>
        <pt x="440" y="868" on="0"/>
        <pt x="464" y="835" on="0"/>
      </contour>
    </TTGlyph>
    <TTGlyph name="Ocircumflex" xMin="28" yMin="-6" xMax="733" yMax="916">
      <contour>
        <pt x="300" y="801" on="1"/>
        <pt x="433" y="916" on="1"/>
        <pt x="569" y="916" on="1"/>
        <pt x="653" y="801" on="1"/>
        <pt x="548" y="759" on="1"/>
        <pt x="481" y="822" on="1"/>
        <pt x="387" y="759" on="1"/>
      </contour>
      <contour>
        <pt x="303" y="-6" on="1"/>
        <pt x="237" y="-6" on="0"/>
        <pt x="134" y="44" on="0"/>
        <pt x="64" y="126" on="0"/>
        <pt x="28" y="234" on="0"/>
        <pt x="28" y="292" on="1"/>
        <pt x="28" y="373" on="0"/>
        <pt x="98" y="525" on="0"/>
        <pt x="217" y="643" on="0"/>
        <pt x="374" y="714" on="0"/>
        <pt x="460" y="714" on="1"/>
        <pt x="526" y="714" on="0"/>
        <pt x="628" y="664" on="0"/>
        <pt x="697" y="581" on="0"/>
        <pt x="733" y="474" on="0"/>
        <pt x="733" y="416" on="1"/>
        <pt x="733" y="336" on="0"/>
        <pt x="663" y="184" on="0"/>
        <pt x="545" y="66" on="0"/>
        <pt x="389" y="-6" on="0"/>
      </contour>
      <contour>
        <pt x="341" y="167" on="1"/>
        <pt x="389" y="167" on="0"/>
        <pt x="461" y="212" on="0"/>
        <pt x="510" y="281" on="0"/>
        <pt x="534" y="364" on="0"/>
        <pt x="534" y="403" on="1"/>
        <pt x="534" y="431" on="0"/>
        <pt x="521" y="481" on="0"/>
        <pt x="494" y="519" on="0"/>
        <pt x="450" y="541" on="0"/>
        <pt x="420" y="541" on="1"/>
        <pt x="373" y="541" on="0"/>
        <pt x="301" y="497" on="0"/>
        <pt x="253" y="429" on="0"/>
        <pt x="228" y="346" on="0"/>
        <pt x="228" y="307" on="1"/>
        <pt x="228" y="279" on="0"/>
        <pt x="241" y="229" on="0"/>
        <pt x="268" y="190" on="0"/>
        <pt x="311" y="167" on="0"/>
      </contour>
    </TTGlyph>
    <TTGlyph name="Odblgrave" xMin="28" yMin="-6" xMax="733" yMax="918">
      <contour>
        <pt x="303" y="-6" on="1"/>
        <pt x="237" y="-6" on="0"/>
        <pt x="134" y="44" on="0"/>
        <pt x="64" y="126" on="0"/>
        <pt x="28" y="234" on="0"/>
        <pt x="28" y="292" on="1"/>
        <pt x="28" y="373" on="0"/>
        <pt x="98" y="525" on="0"/>
        <pt x="217" y="643" on="0"/>
        <pt x="374" y="714" on="0"/>
        <pt x="460" y="714" on="1"/>
        <pt x="526" y="714" on="0"/>
        <pt x="628" y="664" on="0"/>
        <pt x="697" y="581" on="0"/>
        <pt x="733" y="474" on="0"/>
        <pt x="733" y="416" on="1"/>
        <pt x="733" y="336" on="0"/>
        <pt x="663" y="184" on="0"/>
        <pt x="545" y="66" on="0"/>
        <pt x="389" y="-6" on="0"/>
      </contour>
      <contour>
        <pt x="341" y="167" on="1"/>
        <pt x="389" y="167" on="0"/>
        <pt x="461" y="212" on="0"/>
        <pt x="510" y="281" on="0"/>
        <pt x="534" y="364" on="0"/>
        <pt x="534" y="403" on="1"/>
        <pt x="534" y="431" on="0"/>
        <pt x="521" y="481" on="0"/>
        <pt x="494" y="519" on="0"/>
        <pt x="450" y="541" on="0"/>
        <pt x="420" y="541" on="1"/>
        <pt x="373" y="541" on="0"/>
        <pt x="301" y="497" on="0"/>
        <pt x="253" y="429" on="0"/>
        <pt x="228" y="346" on="0"/>
        <pt x="228" y="307" on="1"/>
        <pt x="228" y="279" on="0"/>
        <pt x="241" y="229" on="0"/>
        <pt x="268" y="190" on="0"/>
        <pt x="311" y="167" on="0"/>
      </contour>
      <contour>
        <pt x="511" y="918" on="1"/>
        <pt x="648" y="918" on="1"/>
        <pt x="655" y="776" on="1"/>
        <pt x="555" y="762" on="1"/>
      </contour>
      <contour>
        <pt x="325" y="918" on="1"/>
        <pt x="463" y="918" on="1"/>
        <pt x="469" y="776" on="1"/>
        <pt x="369" y="762" on="1"/>
      </contour>
    </TTGlyph>
    <TTGlyph name="Odieresis" xMin="28" yMin="-6" xMax="733" yMax="907">
      <contour>
        <pt x="278" y="767" on="1"/>
        <pt x="308" y="907" on="1"/>
        <pt x="464" y="907" on="1"/>
        <pt x="434" y="767" on="1"/>
      </contour>
      <contour>
        <pt x="503" y="767" on="1"/>
        <pt x="533" y="907" on="1"/>
        <pt x="688" y="907" on="1"/>
        <pt x="659" y="767" on="1"/>
      </contour>
      <contour>
        <pt x="303" y="-6" on="1"/>
        <pt x="237" y="-6" on="0"/>
        <pt x="134" y="44" on="0"/>
        <pt x="64" y="126" on="0"/>
        <pt x="28" y="234" on="0"/>
        <pt x="28" y="292" on="1"/>
        <pt x="28" y="373" on="0"/>
        <pt x="98" y="525" on="0"/>
        <pt x="217" y="643" on="0"/>
        <pt x="374" y="714" on="0"/>
        <pt x="460" y="714" on="1"/>
        <pt x="526" y="714" on="0"/>
        <pt x="628" y="664" on="0"/>
        <pt x="697" y="581" on="0"/>
        <pt x="733" y="474" on="0"/>
        <pt x="733" y="416" on="1"/>
        <pt x="733" y="336" on="0"/>
        <pt x="663" y="184" on="0"/>
        <pt x="545" y="66" on="0"/>
        <pt x="389" y="-6" on="0"/>
      </contour>
      <contour>
        <pt x="341" y="167" on="1"/>
        <pt x="389" y="167" on="0"/>
        <pt x="461" y="212" on="0"/>
        <pt x="510" y="281" on="0"/>
        <pt x="534" y="364" on="0"/>
        <pt x="534" y="403" on="1"/>
        <pt x="534" y="431" on="0"/>
        <pt x="521" y="481" on="0"/>
        <pt x="494" y="519" on="0"/>
        <pt x="450" y="541" on="0"/>
        <pt x="420" y="541" on="1"/>
        <pt x="373" y="541" on="0"/>
        <pt x="301" y="497" on="0"/>
        <pt x="253" y="429" on="0"/>
        <pt x="228" y="346" on="0"/>
        <pt x="228" y="307" on="1"/>
        <pt x="228" y="279" on="0"/>
        <pt x="241" y="229" on="0"/>
        <pt x="268" y="190" on="0"/>
        <pt x="311" y="167" on="0"/>
      </contour>
    </TTGlyph>
    <TTGlyph name="Odotbelow" xMin="28" yMin="-213" xMax="733" yMax="714">
      <contour>
        <pt x="303" y="-6" on="1"/>
        <pt x="237" y="-6" on="0"/>
        <pt x="134" y="44" on="0"/>
        <pt x="64" y="126" on="0"/>
        <pt x="28" y="234" on="0"/>
        <pt x="28" y="292" on="1"/>
        <pt x="28" y="373" on="0"/>
        <pt x="98" y="525" on="0"/>
        <pt x="217" y="643" on="0"/>
        <pt x="374" y="714" on="0"/>
        <pt x="460" y="714" on="1"/>
        <pt x="526" y="714" on="0"/>
        <pt x="628" y="664" on="0"/>
        <pt x="697" y="581" on="0"/>
        <pt x="733" y="474" on="0"/>
        <pt x="733" y="416" on="1"/>
        <pt x="733" y="336" on="0"/>
        <pt x="663" y="184" on="0"/>
        <pt x="545" y="66" on="0"/>
        <pt x="389" y="-6" on="0"/>
      </contour>
      <contour>
        <pt x="341" y="167" on="1"/>
        <pt x="389" y="167" on="0"/>
        <pt x="461" y="212" on="0"/>
        <pt x="510" y="281" on="0"/>
        <pt x="534" y="364" on="0"/>
        <pt x="534" y="403" on="1"/>
        <pt x="534" y="431" on="0"/>
        <pt x="521" y="481" on="0"/>
        <pt x="494" y="519" on="0"/>
        <pt x="450" y="541" on="0"/>
        <pt x="420" y="541" on="1"/>
        <pt x="373" y="541" on="0"/>
        <pt x="301" y="497" on="0"/>
        <pt x="253" y="429" on="0"/>
        <pt x="228" y="346" on="0"/>
        <pt x="228" y="307" on="1"/>
        <pt x="228" y="279" on="0"/>
        <pt x="241" y="229" on="0"/>
        <pt x="268" y="190" on="0"/>
        <pt x="311" y="167" on="0"/>
      </contour>
      <contour>
        <pt x="175" y="-213" on="1"/>
        <pt x="207" y="-63" on="1"/>
        <pt x="377" y="-63" on="1"/>
        <pt x="345" y="-213" on="1"/>
      </contour>
    </TTGlyph>
    <TTGlyph name="Ograve" xMin="28" yMin="-6" xMax="733" yMax="917">
      <contour>
        <pt x="303" y="-6" on="1"/>
        <pt x="237" y="-6" on="0"/>
        <pt x="134" y="44" on="0"/>
        <pt x="64" y="126" on="0"/>
        <pt x="28" y="234" on="0"/>
        <pt x="28" y="292" on="1"/>
        <pt x="28" y="373" on="0"/>
        <pt x="98" y="525" on="0"/>
        <pt x="217" y="643" on="0"/>
        <pt x="374" y="714" on="0"/>
        <pt x="460" y="714" on="1"/>
        <pt x="526" y="714" on="0"/>
        <pt x="628" y="664" on="0"/>
        <pt x="697" y="581" on="0"/>
        <pt x="733" y="474" on="0"/>
        <pt x="733" y="416" on="1"/>
        <pt x="733" y="336" on="0"/>
        <pt x="663" y="184" on="0"/>
        <pt x="545" y="66" on="0"/>
        <pt x="389" y="-6" on="0"/>
      </contour>
      <contour>
        <pt x="341" y="167" on="1"/>
        <pt x="389" y="167" on="0"/>
        <pt x="461" y="212" on="0"/>
        <pt x="510" y="281" on="0"/>
        <pt x="534" y="364" on="0"/>
        <pt x="534" y="403" on="1"/>
        <pt x="534" y="431" on="0"/>
        <pt x="521" y="481" on="0"/>
        <pt x="494" y="519" on="0"/>
        <pt x="450" y="541" on="0"/>
        <pt x="420" y="541" on="1"/>
        <pt x="373" y="541" on="0"/>
        <pt x="301" y="497" on="0"/>
        <pt x="253" y="429" on="0"/>
        <pt x="228" y="346" on="0"/>
        <pt x="228" y="307" on="1"/>
        <pt x="228" y="279" on="0"/>
        <pt x="241" y="229" on="0"/>
        <pt x="268" y="190" on="0"/>
        <pt x="311" y="167" on="0"/>
      </contour>
      <contour>
        <pt x="360" y="917" on="1"/>
        <pt x="528" y="917" on="1"/>
        <pt x="545" y="775" on="1"/>
        <pt x="413" y="761" on="1"/>
      </contour>
    </TTGlyph>
    <TTGlyph name="Ohungarumlaut" xMin="28" yMin="-6" xMax="733" yMax="892">
      <contour>
        <pt x="394" y="741" on="1"/>
        <pt x="295" y="750" on="1"/>
        <pt x="362" y="892" on="1"/>
        <pt x="500" y="892" on="1"/>
      </contour>
      <contour>
        <pt x="579" y="741" on="1"/>
        <pt x="481" y="750" on="1"/>
        <pt x="547" y="892" on="1"/>
        <pt x="685" y="892" on="1"/>
      </contour>
      <contour>
        <pt x="303" y="-6" on="1"/>
        <pt x="237" y="-6" on="0"/>
        <pt x="134" y="44" on="0"/>
        <pt x="64" y="126" on="0"/>
        <pt x="28" y="234" on="0"/>
        <pt x="28" y="292" on="1"/>
        <pt x="28" y="373" on="0"/>
        <pt x="98" y="525" on="0"/>
        <pt x="217" y="643" on="0"/>
        <pt x="374" y="714" on="0"/>
        <pt x="460" y="714" on="1"/>
        <pt x="526" y="714" on="0"/>
        <pt x="628" y="664" on="0"/>
        <pt x="697" y="581" on="0"/>
        <pt x="733" y="474" on="0"/>
        <pt x="733" y="416" on="1"/>
        <pt x="733" y="336" on="0"/>
        <pt x="663" y="184" on="0"/>
        <pt x="545" y="66" on="0"/>
        <pt x="389" y="-6" on="0"/>
      </contour>
      <contour>
        <pt x="341" y="167" on="1"/>
        <pt x="389" y="167" on="0"/>
        <pt x="461" y="212" on="0"/>
        <pt x="510" y="281" on="0"/>
        <pt x="534" y="364" on="0"/>
        <pt x="534" y="403" on="1"/>
        <pt x="534" y="431" on="0"/>
        <pt x="521" y="481" on="0"/>
        <pt x="494" y="519" on="0"/>
        <pt x="450" y="541" on="0"/>
        <pt x="420" y="541" on="1"/>
        <pt x="373" y="541" on="0"/>
        <pt x="301" y="497" on="0"/>
        <pt x="253" y="429" on="0"/>
        <pt x="228" y="346" on="0"/>
        <pt x="228" y="307" on="1"/>
        <pt x="228" y="279" on="0"/>
        <pt x="241" y="229" on="0"/>
        <pt x="268" y="190" on="0"/>
        <pt x="311" y="167" on="0"/>
      </contour>
    </TTGlyph>
    <TTGlyph name="Oinvertedbreve" xMin="28" yMin="-6" xMax="733" yMax="916">
      <contour>
        <pt x="303" y="-6" on="1"/>
        <pt x="237" y="-6" on="0"/>
        <pt x="134" y="44" on="0"/>
        <pt x="64" y="126" on="0"/>
        <pt x="28" y="234" on="0"/>
        <pt x="28" y="292" on="1"/>
        <pt x="28" y="373" on="0"/>
        <pt x="98" y="525" on="0"/>
        <pt x="217" y="643" on="0"/>
        <pt x="374" y="714" on="0"/>
        <pt x="460" y="714" on="1"/>
        <pt x="526" y="714" on="0"/>
        <pt x="628" y="664" on="0"/>
        <pt x="697" y="581" on="0"/>
        <pt x="733" y="474" on="0"/>
        <pt x="733" y="416" on="1"/>
        <pt x="733" y="336" on="0"/>
        <pt x="663" y="184" on="0"/>
        <pt x="545" y="66" on="0"/>
        <pt x="389" y="-6" on="0"/>
      </contour>
      <contour>
        <pt x="341" y="167" on="1"/>
        <pt x="389" y="167" on="0"/>
        <pt x="461" y="212" on="0"/>
        <pt x="510" y="281" on="0"/>
        <pt x="534" y="364" on="0"/>
        <pt x="534" y="403" on="1"/>
        <pt x="534" y="431" on="0"/>
        <pt x="521" y="481" on="0"/>
        <pt x="494" y="519" on="0"/>
        <pt x="450" y="541" on="0"/>
        <pt x="420" y="541" on="1"/>
        <pt x="373" y="541" on="0"/>
        <pt x="301" y="497" on="0"/>
        <pt x="253" y="429" on="0"/>
        <pt x="228" y="346" on="0"/>
        <pt x="228" y="307" on="1"/>
        <pt x="228" y="279" on="0"/>
        <pt x="241" y="229" on="0"/>
        <pt x="268" y="190" on="0"/>
        <pt x="311" y="167" on="0"/>
      </contour>
      <contour>
        <pt x="314" y="754" on="1"/>
        <pt x="321" y="790" on="0"/>
        <pt x="357" y="849" on="0"/>
        <pt x="407" y="892" on="0"/>
        <pt x="469" y="916" on="0"/>
        <pt x="504" y="916" on="1"/>
        <pt x="566" y="916" on="0"/>
        <pt x="630" y="845" on="0"/>
        <pt x="630" y="791" on="1"/>
        <pt x="630" y="771" on="0"/>
        <pt x="626" y="754" on="1"/>
        <pt x="528" y="754" on="1"/>
        <pt x="531" y="772" on="0"/>
        <pt x="531" y="786" on="1"/>
        <pt x="531" y="835" on="0"/>
        <pt x="486" y="835" on="1"/>
        <pt x="462" y="835" on="0"/>
        <pt x="420" y="802" on="0"/>
        <pt x="411" y="754" on="1"/>
      </contour>
    </TTGlyph>
    <TTGlyph name="Omacron" xMin="28" yMin="-6" xMax="733" yMax="906">
      <contour>
        <pt x="326" y="793" on="1"/>
        <pt x="350" y="906" on="1"/>
        <pt x="646" y="906" on="1"/>
        <pt x="622" y="793" on="1"/>
      </contour>
      <contour>
        <pt x="303" y="-6" on="1"/>
        <pt x="237" y="-6" on="0"/>
        <pt x="134" y="44" on="0"/>
        <pt x="64" y="126" on="0"/>
        <pt x="28" y="234" on="0"/>
        <pt x="28" y="292" on="1"/>
        <pt x="28" y="373" on="0"/>
        <pt x="98" y="525" on="0"/>
        <pt x="217" y="643" on="0"/>
        <pt x="374" y="714" on="0"/>
        <pt x="460" y="714" on="1"/>
        <pt x="526" y="714" on="0"/>
        <pt x="628" y="664" on="0"/>
        <pt x="697" y="581" on="0"/>
        <pt x="733" y="474" on="0"/>
        <pt x="733" y="416" on="1"/>
        <pt x="733" y="336" on="0"/>
        <pt x="663" y="184" on="0"/>
        <pt x="545" y="66" on="0"/>
        <pt x="389" y="-6" on="0"/>
      </contour>
      <contour>
        <pt x="341" y="167" on="1"/>
        <pt x="389" y="167" on="0"/>
        <pt x="461" y="212" on="0"/>
        <pt x="510" y="281" on="0"/>
        <pt x="534" y="364" on="0"/>
        <pt x="534" y="403" on="1"/>
        <pt x="534" y="431" on="0"/>
        <pt x="521" y="481" on="0"/>
        <pt x="494" y="519" on="0"/>
        <pt x="450" y="541" on="0"/>
        <pt x="420" y="541" on="1"/>
        <pt x="373" y="541" on="0"/>
        <pt x="301" y="497" on="0"/>
        <pt x="253" y="429" on="0"/>
        <pt x="228" y="346" on="0"/>
        <pt x="228" y="307" on="1"/>
        <pt x="228" y="279" on="0"/>
        <pt x="241" y="229" on="0"/>
        <pt x="268" y="190" on="0"/>
        <pt x="311" y="167" on="0"/>
      </contour>
    </TTGlyph>
    <TTGlyph name="Omega" xMin="36" yMin="0" xMax="768" yMax="715">
      <contour>
        <pt x="36" y="130" on="1"/>
        <pt x="185" y="130" on="1"/>
        <pt x="120" y="168" on="0"/>
        <pt x="46" y="294" on="0"/>
        <pt x="46" y="375" on="1"/>
        <pt x="46" y="442" on="0"/>
        <pt x="100" y="565" on="0"/>
        <pt x="195" y="659" on="0"/>
        <pt x="325" y="715" on="0"/>
        <pt x="402" y="715" on="1"/>
        <pt x="478" y="715" on="0"/>
        <pt x="609" y="659" on="0"/>
        <pt x="704" y="565" on="0"/>
        <pt x="758" y="442" on="0"/>
        <pt x="758" y="375" on="1"/>
        <pt x="758" y="294" on="0"/>
        <pt x="684" y="168" on="0"/>
        <pt x="619" y="130" on="1"/>
        <pt x="768" y="130" on="1"/>
        <pt x="768" y="0" on="1"/>
        <pt x="439" y="0" on="1"/>
        <pt x="439" y="130" on="1"/>
        <pt x="469" y="143" on="0"/>
        <pt x="516" y="193" on="0"/>
        <pt x="549" y="259" on="0"/>
        <pt x="567" y="336" on="0"/>
        <pt x="567" y="375" on="1"/>
        <pt x="567" y="406" on="0"/>
        <pt x="544" y="466" on="0"/>
        <pt x="502" y="514" on="0"/>
        <pt x="441" y="543" on="0"/>
        <pt x="402" y="543" on="1"/>
        <pt x="363" y="543" on="0"/>
        <pt x="302" y="514" on="0"/>
        <pt x="260" y="466" on="0"/>
        <pt x="237" y="406" on="0"/>
        <pt x="237" y="375" on="1"/>
        <pt x="237" y="336" on="0"/>
        <pt x="255" y="259" on="0"/>
        <pt x="288" y="193" on="0"/>
        <pt x="335" y="143" on="0"/>
        <pt x="365" y="130" on="1"/>
        <pt x="365" y="0" on="1"/>
        <pt x="36" y="0" on="1"/>
      </contour>
    </TTGlyph>
    <TTGlyph name="Oogonek" xMin="28" yMin="-214" xMax="733" yMax="714">
      <contour>
        <pt x="294" y="-214" on="1"/>
        <pt x="226" y="-206" on="0"/>
        <pt x="163" y="-157" on="0"/>
        <pt x="163" y="-125" on="1"/>
        <pt x="163" y="-95" on="0"/>
        <pt x="214" y="-32" on="0"/>
        <pt x="264" y="-3" on="1"/>
        <pt x="207" y="4" on="0"/>
        <pt x="119" y="58" on="0"/>
        <pt x="59" y="138" on="0"/>
        <pt x="28" y="238" on="0"/>
        <pt x="28" y="292" on="1"/>
        <pt x="28" y="373" on="0"/>
        <pt x="98" y="525" on="0"/>
        <pt x="217" y="643" on="0"/>
        <pt x="374" y="714" on="0"/>
        <pt x="460" y="714" on="1"/>
        <pt x="526" y="714" on="0"/>
        <pt x="628" y="664" on="0"/>
        <pt x="697" y="581" on="0"/>
        <pt x="733" y="474" on="0"/>
        <pt x="733" y="416" on="1"/>
        <pt x="733" y="344" on="0"/>
        <pt x="676" y="207" on="0"/>
        <pt x="579" y="94" on="0"/>
        <pt x="447" y="14" on="0"/>
        <pt x="372" y="0" on="1"/>
        <pt x="333" y="-22" on="0"/>
        <pt x="289" y="-64" on="0"/>
        <pt x="289" y="-82" on="1"/>
        <pt x="289" y="-96" on="0"/>
        <pt x="318" y="-114" on="0"/>
        <pt x="350" y="-114" on="1"/>
      </contour>
      <contour>
        <pt x="341" y="167" on="1"/>
        <pt x="389" y="167" on="0"/>
        <pt x="461" y="212" on="0"/>
        <pt x="510" y="281" on="0"/>
        <pt x="534" y="364" on="0"/>
        <pt x="534" y="403" on="1"/>
        <pt x="534" y="431" on="0"/>
        <pt x="521" y="481" on="0"/>
        <pt x="494" y="519" on="0"/>
        <pt x="450" y="541" on="0"/>
        <pt x="420" y="541" on="1"/>
        <pt x="373" y="541" on="0"/>
        <pt x="301" y="497" on="0"/>
        <pt x="253" y="429" on="0"/>
        <pt x="228" y="346" on="0"/>
        <pt x="228" y="307" on="1"/>
        <pt x="228" y="279" on="0"/>
        <pt x="241" y="229" on="0"/>
        <pt x="268" y="190" on="0"/>
        <pt x="311" y="167" on="0"/>
      </contour>
    </TTGlyph>
    <TTGlyph name="Oslash" xMin="-46" yMin="-6" xMax="807" yMax="714">
      <contour>
        <pt x="807" y="710" on="1"/>
        <pt x="691" y="582" on="1"/>
        <pt x="711" y="545" on="0"/>
        <pt x="733" y="461" on="0"/>
        <pt x="733" y="416" on="1"/>
        <pt x="733" y="336" on="0"/>
        <pt x="663" y="184" on="0"/>
        <pt x="545" y="66" on="0"/>
        <pt x="389" y="-6" on="0"/>
        <pt x="303" y="-6" on="1"/>
        <pt x="235" y="-6" on="0"/>
        <pt x="181" y="20" on="1"/>
        <pt x="163" y="0" on="1"/>
        <pt x="-46" y="0" on="1"/>
        <pt x="69" y="127" on="1"/>
        <pt x="28" y="201" on="0"/>
        <pt x="28" y="292" on="1"/>
        <pt x="28" y="373" on="0"/>
        <pt x="98" y="525" on="0"/>
        <pt x="217" y="643" on="0"/>
        <pt x="374" y="714" on="0"/>
        <pt x="460" y="714" on="1"/>
        <pt x="493" y="714" on="0"/>
        <pt x="552" y="700" on="0"/>
        <pt x="578" y="688" on="1"/>
        <pt x="598" y="710" on="1"/>
      </contour>
      <contour>
        <pt x="341" y="167" on="1"/>
        <pt x="389" y="167" on="0"/>
        <pt x="461" y="212" on="0"/>
        <pt x="510" y="281" on="0"/>
        <pt x="534" y="364" on="0"/>
        <pt x="534" y="403" on="1"/>
        <pt x="534" y="409" on="1"/>
        <pt x="316" y="169" on="1"/>
        <pt x="322" y="168" on="0"/>
        <pt x="334" y="167" on="0"/>
      </contour>
      <contour>
        <pt x="228" y="302" on="1"/>
        <pt x="443" y="539" on="1"/>
        <pt x="438" y="540" on="0"/>
        <pt x="426" y="541" on="0"/>
        <pt x="420" y="541" on="1"/>
        <pt x="373" y="541" on="0"/>
        <pt x="301" y="497" on="0"/>
        <pt x="253" y="429" on="0"/>
        <pt x="228" y="346" on="0"/>
        <pt x="228" y="307" on="1"/>
      </contour>
    </TTGlyph>
    <TTGlyph name="Oslashacute" xMin="-46" yMin="-6" xMax="807" yMax="916">
      <contour>
        <pt x="520" y="762" on="1"/>
        <pt x="392" y="774" on="1"/>
        <pt x="469" y="916" on="1"/>
        <pt x="637" y="916" on="1"/>
      </contour>
      <contour>
        <pt x="807" y="710" on="1"/>
        <pt x="691" y="582" on="1"/>
        <pt x="711" y="545" on="0"/>
        <pt x="733" y="461" on="0"/>
        <pt x="733" y="416" on="1"/>
        <pt x="733" y="336" on="0"/>
        <pt x="663" y="184" on="0"/>
        <pt x="545" y="66" on="0"/>
        <pt x="389" y="-6" on="0"/>
        <pt x="303" y="-6" on="1"/>
        <pt x="235" y="-6" on="0"/>
        <pt x="181" y="20" on="1"/>
        <pt x="163" y="0" on="1"/>
        <pt x="-46" y="0" on="1"/>
        <pt x="69" y="127" on="1"/>
        <pt x="28" y="201" on="0"/>
        <pt x="28" y="292" on="1"/>
        <pt x="28" y="373" on="0"/>
        <pt x="98" y="525" on="0"/>
        <pt x="217" y="643" on="0"/>
        <pt x="374" y="714" on="0"/>
        <pt x="460" y="714" on="1"/>
        <pt x="493" y="714" on="0"/>
        <pt x="552" y="700" on="0"/>
        <pt x="578" y="688" on="1"/>
        <pt x="598" y="710" on="1"/>
      </contour>
      <contour>
        <pt x="341" y="167" on="1"/>
        <pt x="389" y="167" on="0"/>
        <pt x="461" y="212" on="0"/>
        <pt x="510" y="281" on="0"/>
        <pt x="534" y="364" on="0"/>
        <pt x="534" y="403" on="1"/>
        <pt x="534" y="409" on="1"/>
        <pt x="316" y="169" on="1"/>
        <pt x="322" y="168" on="0"/>
        <pt x="334" y="167" on="0"/>
      </contour>
      <contour>
        <pt x="228" y="302" on="1"/>
        <pt x="443" y="539" on="1"/>
        <pt x="438" y="540" on="0"/>
        <pt x="426" y="541" on="0"/>
        <pt x="420" y="541" on="1"/>
        <pt x="373" y="541" on="0"/>
        <pt x="301" y="497" on="0"/>
        <pt x="253" y="429" on="0"/>
        <pt x="228" y="346" on="0"/>
        <pt x="228" y="307" on="1"/>
      </contour>
    </TTGlyph>
    <TTGlyph name="Otilde" xMin="28" yMin="-6" xMax="733" yMax="916">
      <contour>
        <pt x="303" y="-6" on="1"/>
        <pt x="237" y="-6" on="0"/>
        <pt x="134" y="44" on="0"/>
        <pt x="64" y="126" on="0"/>
        <pt x="28" y="234" on="0"/>
        <pt x="28" y="292" on="1"/>
        <pt x="28" y="373" on="0"/>
        <pt x="98" y="525" on="0"/>
        <pt x="217" y="643" on="0"/>
        <pt x="374" y="714" on="0"/>
        <pt x="460" y="714" on="1"/>
        <pt x="526" y="714" on="0"/>
        <pt x="628" y="664" on="0"/>
        <pt x="697" y="581" on="0"/>
        <pt x="733" y="474" on="0"/>
        <pt x="733" y="416" on="1"/>
        <pt x="733" y="336" on="0"/>
        <pt x="663" y="184" on="0"/>
        <pt x="545" y="66" on="0"/>
        <pt x="389" y="-6" on="0"/>
      </contour>
      <contour>
        <pt x="341" y="167" on="1"/>
        <pt x="389" y="167" on="0"/>
        <pt x="461" y="212" on="0"/>
        <pt x="510" y="281" on="0"/>
        <pt x="534" y="364" on="0"/>
        <pt x="534" y="403" on="1"/>
        <pt x="534" y="431" on="0"/>
        <pt x="521" y="481" on="0"/>
        <pt x="494" y="519" on="0"/>
        <pt x="450" y="541" on="0"/>
        <pt x="420" y="541" on="1"/>
        <pt x="373" y="541" on="0"/>
        <pt x="301" y="497" on="0"/>
        <pt x="253" y="429" on="0"/>
        <pt x="228" y="346" on="0"/>
        <pt x="228" y="307" on="1"/>
        <pt x="228" y="279" on="0"/>
        <pt x="241" y="229" on="0"/>
        <pt x="268" y="190" on="0"/>
        <pt x="311" y="167" on="0"/>
      </contour>
      <contour>
        <pt x="536" y="758" on="1"/>
        <pt x="514" y="758" on="0"/>
        <pt x="484" y="773" on="0"/>
        <pt x="459" y="791" on="0"/>
        <pt x="434" y="806" on="0"/>
        <pt x="418" y="806" on="1"/>
        <pt x="402" y="806" on="0"/>
        <pt x="381" y="792" on="0"/>
        <pt x="369" y="774" on="0"/>
        <pt x="365" y="759" on="0"/>
        <pt x="365" y="758" on="1"/>
        <pt x="264" y="758" on="1"/>
        <pt x="267" y="771" on="0"/>
        <pt x="293" y="824" on="0"/>
        <pt x="337" y="876" on="0"/>
        <pt x="397" y="916" on="0"/>
        <pt x="433" y="916" on="1"/>
        <pt x="457" y="916" on="0"/>
        <pt x="487" y="900" on="0"/>
        <pt x="512" y="881" on="0"/>
        <pt x="535" y="865" on="0"/>
        <pt x="551" y="865" on="1"/>
        <pt x="566" y="865" on="0"/>
        <pt x="588" y="880" on="0"/>
        <pt x="602" y="899" on="0"/>
        <pt x="609" y="915" on="0"/>
        <pt x="609" y="916" on="1"/>
        <pt x="709" y="916" on="1"/>
        <pt x="707" y="907" on="0"/>
        <pt x="680" y="856" on="0"/>
        <pt x="635" y="801" on="0"/>
        <pt x="573" y="758" on="0"/>
      </contour>
    </TTGlyph>
    <TTGlyph name="P" xMin="-3" yMin="0" xMax="622" yMax="710">
      <contour>
        <pt x="148" y="710" on="1"/>
        <pt x="440" y="710" on="1"/>
        <pt x="483" y="710" on="0"/>
        <pt x="550" y="675" on="0"/>
        <pt x="597" y="618" on="0"/>
        <pt x="622" y="544" on="0"/>
        <pt x="622" y="505" on="1"/>
        <pt x="622" y="453" on="0"/>
        <pt x="577" y="350" on="0"/>
        <pt x="500" y="269" on="0"/>
        <pt x="398" y="218" on="0"/>
        <pt x="340" y="218" on="1"/>
        <pt x="238" y="218" on="1"/>
        <pt x="192" y="0" on="1"/>
        <pt x="-3" y="0" on="1"/>
      </contour>
      <contour>
        <pt x="363" y="388" on="1"/>
        <pt x="372" y="388" on="0"/>
        <pt x="393" y="400" on="0"/>
        <pt x="410" y="425" on="0"/>
        <pt x="422" y="463" on="0"/>
        <pt x="422" y="489" on="1"/>
        <pt x="422" y="518" on="0"/>
        <pt x="401" y="540" on="0"/>
        <pt x="390" y="540" on="1"/>
        <pt x="307" y="540" on="1"/>
        <pt x="275" y="388" on="1"/>
      </contour>
    </TTGlyph>
    <TTGlyph name="P.sc" xMin="-9" yMin="0" xMax="543" yMax="568">
      <contour>
        <pt x="112" y="568" on="1"/>
        <pt x="375" y="568" on="1"/>
        <pt x="414" y="568" on="0"/>
        <pt x="477" y="539" on="0"/>
        <pt x="520" y="492" on="0"/>
        <pt x="543" y="431" on="0"/>
        <pt x="543" y="399" on="1"/>
        <pt x="543" y="357" on="0"/>
        <pt x="504" y="275" on="0"/>
        <pt x="436" y="209" on="0"/>
        <pt x="345" y="169" on="0"/>
        <pt x="294" y="169" on="1"/>
        <pt x="197" y="169" on="1"/>
        <pt x="161" y="0" on="1"/>
        <pt x="-9" y="0" on="1"/>
      </contour>
      <contour>
        <pt x="315" y="318" on="1"/>
        <pt x="324" y="318" on="0"/>
        <pt x="343" y="323" on="0"/>
        <pt x="358" y="338" on="0"/>
        <pt x="368" y="363" on="0"/>
        <pt x="368" y="383" on="1"/>
        <pt x="368" y="406" on="0"/>
        <pt x="345" y="420" on="0"/>
        <pt x="333" y="420" on="1"/>
        <pt x="250" y="420" on="1"/>
        <pt x="228" y="318" on="1"/>
      </contour>
    </TTGlyph>
    <TTGlyph name="Q" xMin="27" yMin="-5" xMax="732" yMax="715">
      <contour>
        <pt x="466" y="31" on="1"/>
        <pt x="428" y="14" on="0"/>
        <pt x="345" y="-5" on="0"/>
        <pt x="302" y="-5" on="1"/>
        <pt x="236" y="-5" on="0"/>
        <pt x="134" y="44" on="0"/>
        <pt x="63" y="127" on="0"/>
        <pt x="27" y="234" on="0"/>
        <pt x="27" y="292" on="1"/>
        <pt x="27" y="373" on="0"/>
        <pt x="98" y="525" on="0"/>
        <pt x="217" y="643" on="0"/>
        <pt x="373" y="715" on="0"/>
        <pt x="459" y="715" on="1"/>
        <pt x="525" y="715" on="0"/>
        <pt x="627" y="665" on="0"/>
        <pt x="696" y="582" on="0"/>
        <pt x="732" y="474" on="0"/>
        <pt x="732" y="416" on="1"/>
        <pt x="732" y="331" on="0"/>
        <pt x="655" y="174" on="0"/>
        <pt x="591" y="114" on="1"/>
        <pt x="669" y="0" on="1"/>
        <pt x="487" y="0" on="1"/>
      </contour>
      <contour>
        <pt x="341" y="168" on="1"/>
        <pt x="349" y="168" on="0"/>
        <pt x="363" y="169" on="0"/>
        <pt x="370" y="170" on="1"/>
        <pt x="282" y="300" on="1"/>
        <pt x="463" y="300" on="1"/>
        <pt x="492" y="258" on="1"/>
        <pt x="512" y="291" on="0"/>
        <pt x="533" y="367" on="0"/>
        <pt x="533" y="403" on="1"/>
        <pt x="533" y="431" on="0"/>
        <pt x="520" y="481" on="0"/>
        <pt x="493" y="519" on="0"/>
        <pt x="449" y="542" on="0"/>
        <pt x="419" y="542" on="1"/>
        <pt x="372" y="542" on="0"/>
        <pt x="300" y="498" on="0"/>
        <pt x="252" y="429" on="0"/>
        <pt x="227" y="346" on="0"/>
        <pt x="227" y="307" on="1"/>
        <pt x="227" y="280" on="0"/>
        <pt x="240" y="229" on="0"/>
        <pt x="267" y="191" on="0"/>
        <pt x="311" y="168" on="0"/>
      </contour>
    </TTGlyph>
    <TTGlyph name="Q.sc" xMin="14" yMin="-4" xMax="611" yMax="572">
      <contour>
        <pt x="398" y="29" on="1"/>
        <pt x="364" y="13" on="0"/>
        <pt x="289" y="-4" on="0"/>
        <pt x="250" y="-4" on="1"/>
        <pt x="194" y="-4" on="0"/>
        <pt x="106" y="36" on="0"/>
        <pt x="46" y="103" on="0"/>
        <pt x="14" y="190" on="0"/>
        <pt x="14" y="237" on="1"/>
        <pt x="14" y="301" on="0"/>
        <pt x="73" y="421" on="0"/>
        <pt x="173" y="515" on="0"/>
        <pt x="304" y="572" on="0"/>
        <pt x="376" y="572" on="1"/>
        <pt x="433" y="572" on="0"/>
        <pt x="521" y="531" on="0"/>
        <pt x="580" y="464" on="0"/>
        <pt x="611" y="376" on="0"/>
        <pt x="611" y="329" on="1"/>
        <pt x="611" y="266" on="0"/>
        <pt x="553" y="147" on="0"/>
        <pt x="504" y="100" on="1"/>
        <pt x="579" y="0" on="1"/>
        <pt x="420" y="0" on="1"/>
      </contour>
      <contour>
        <pt x="285" y="147" on="1"/>
        <pt x="291" y="147" on="0"/>
        <pt x="303" y="148" on="0"/>
        <pt x="309" y="149" on="1"/>
        <pt x="234" y="249" on="1"/>
        <pt x="393" y="249" on="1"/>
        <pt x="412" y="223" on="1"/>
        <pt x="437" y="268" on="0"/>
        <pt x="437" y="315" on="1"/>
        <pt x="437" y="336" on="0"/>
        <pt x="426" y="374" on="0"/>
        <pt x="403" y="404" on="0"/>
        <pt x="367" y="421" on="0"/>
        <pt x="342" y="421" on="1"/>
        <pt x="305" y="421" on="0"/>
        <pt x="248" y="390" on="0"/>
        <pt x="209" y="341" on="0"/>
        <pt x="189" y="281" on="0"/>
        <pt x="189" y="253" on="1"/>
        <pt x="189" y="232" on="0"/>
        <pt x="200" y="194" on="0"/>
        <pt x="223" y="164" on="0"/>
        <pt x="259" y="147" on="0"/>
      </contour>
    </TTGlyph>
    <TTGlyph name="R" xMin="-3" yMin="0" xMax="642" yMax="710">
      <contour>
        <pt x="-3" y="0" on="1"/>
        <pt x="148" y="710" on="1"/>
        <pt x="460" y="710" on="1"/>
        <pt x="503" y="710" on="0"/>
        <pt x="571" y="675" on="0"/>
        <pt x="617" y="618" on="0"/>
        <pt x="642" y="544" on="0"/>
        <pt x="642" y="505" on="1"/>
        <pt x="642" y="470" on="0"/>
        <pt x="622" y="401" on="0"/>
        <pt x="585" y="337" on="0"/>
        <pt x="533" y="282" on="0"/>
        <pt x="501" y="261" on="1"/>
        <pt x="586" y="0" on="1"/>
        <pt x="366" y="0" on="1"/>
        <pt x="297" y="218" on="1"/>
        <pt x="238" y="218" on="1"/>
        <pt x="192" y="0" on="1"/>
      </contour>
      <contour>
        <pt x="383" y="388" on="1"/>
        <pt x="391" y="388" on="0"/>
        <pt x="411" y="402" on="0"/>
        <pt x="429" y="428" on="0"/>
        <pt x="441" y="464" on="0"/>
        <pt x="441" y="485" on="1"/>
        <pt x="441" y="511" on="0"/>
        <pt x="422" y="540" on="0"/>
        <pt x="410" y="540" on="1"/>
        <pt x="307" y="540" on="1"/>
        <pt x="275" y="388" on="1"/>
      </contour>
    </TTGlyph>
    <TTGlyph name="R.sc" xMin="-9" yMin="0" xMax="560" yMax="568">
      <contour>
        <pt x="112" y="568" on="1"/>
        <pt x="392" y="568" on="1"/>
        <pt x="431" y="568" on="0"/>
        <pt x="494" y="539" on="0"/>
        <pt x="537" y="492" on="0"/>
        <pt x="560" y="431" on="0"/>
        <pt x="560" y="399" on="1"/>
        <pt x="560" y="343" on="0"/>
        <pt x="492" y="242" on="0"/>
        <pt x="435" y="207" on="1"/>
        <pt x="529" y="0" on="1"/>
        <pt x="336" y="0" on="1"/>
        <pt x="257" y="169" on="1"/>
        <pt x="197" y="169" on="1"/>
        <pt x="161" y="0" on="1"/>
        <pt x="-9" y="0" on="1"/>
      </contour>
      <contour>
        <pt x="333" y="318" on="1"/>
        <pt x="350" y="318" on="0"/>
        <pt x="385" y="350" on="0"/>
        <pt x="385" y="380" on="1"/>
        <pt x="385" y="400" on="0"/>
        <pt x="363" y="420" on="0"/>
        <pt x="350" y="420" on="1"/>
        <pt x="250" y="420" on="1"/>
        <pt x="228" y="318" on="1"/>
      </contour>
    </TTGlyph>
    <TTGlyph name="Racute" xMin="-3" yMin="0" xMax="642" yMax="918">
      <contour>
        <pt x="469" y="764" on="1"/>
        <pt x="341" y="776" on="1"/>
        <pt x="418" y="918" on="1"/>
        <pt x="586" y="918" on="1"/>
      </contour>
      <contour>
        <pt x="-3" y="0" on="1"/>
        <pt x="148" y="710" on="1"/>
        <pt x="460" y="710" on="1"/>
        <pt x="503" y="710" on="0"/>
        <pt x="571" y="675" on="0"/>
        <pt x="617" y="618" on="0"/>
        <pt x="642" y="544" on="0"/>
        <pt x="642" y="505" on="1"/>
        <pt x="642" y="470" on="0"/>
        <pt x="622" y="401" on="0"/>
        <pt x="585" y="337" on="0"/>
        <pt x="533" y="282" on="0"/>
        <pt x="501" y="261" on="1"/>
        <pt x="586" y="0" on="1"/>
        <pt x="366" y="0" on="1"/>
        <pt x="297" y="218" on="1"/>
        <pt x="238" y="218" on="1"/>
        <pt x="192" y="0" on="1"/>
      </contour>
      <contour>
        <pt x="383" y="388" on="1"/>
        <pt x="391" y="388" on="0"/>
        <pt x="411" y="402" on="0"/>
        <pt x="429" y="428" on="0"/>
        <pt x="441" y="464" on="0"/>
        <pt x="441" y="485" on="1"/>
        <pt x="441" y="511" on="0"/>
        <pt x="422" y="540" on="0"/>
        <pt x="410" y="540" on="1"/>
        <pt x="307" y="540" on="1"/>
        <pt x="275" y="388" on="1"/>
      </contour>
    </TTGlyph>
    <TTGlyph name="Rcaron" xMin="-3" yMin="0" xMax="642" yMax="918">
      <contour>
        <pt x="252" y="876" on="1"/>
        <pt x="357" y="918" on="1"/>
        <pt x="424" y="855" on="1"/>
        <pt x="518" y="918" on="1"/>
        <pt x="605" y="876" on="1"/>
        <pt x="472" y="761" on="1"/>
        <pt x="336" y="761" on="1"/>
      </contour>
      <contour>
        <pt x="-3" y="0" on="1"/>
        <pt x="148" y="710" on="1"/>
        <pt x="460" y="710" on="1"/>
        <pt x="503" y="710" on="0"/>
        <pt x="571" y="675" on="0"/>
        <pt x="617" y="618" on="0"/>
        <pt x="642" y="544" on="0"/>
        <pt x="642" y="505" on="1"/>
        <pt x="642" y="470" on="0"/>
        <pt x="622" y="401" on="0"/>
        <pt x="585" y="337" on="0"/>
        <pt x="533" y="282" on="0"/>
        <pt x="501" y="261" on="1"/>
        <pt x="586" y="0" on="1"/>
        <pt x="366" y="0" on="1"/>
        <pt x="297" y="218" on="1"/>
        <pt x="238" y="218" on="1"/>
        <pt x="192" y="0" on="1"/>
      </contour>
      <contour>
        <pt x="383" y="388" on="1"/>
        <pt x="391" y="388" on="0"/>
        <pt x="411" y="402" on="0"/>
        <pt x="429" y="428" on="0"/>
        <pt x="441" y="464" on="0"/>
        <pt x="441" y="485" on="1"/>
        <pt x="441" y="511" on="0"/>
        <pt x="422" y="540" on="0"/>
        <pt x="410" y="540" on="1"/>
        <pt x="307" y="540" on="1"/>
        <pt x="275" y="388" on="1"/>
      </contour>
    </TTGlyph>
    <TTGlyph name="Rcommaaccent" xMin="-3" yMin="-213" xMax="642" yMax="710">
      <contour>
        <pt x="164" y="-213" on="1"/>
        <pt x="213" y="-152" on="1"/>
        <pt x="156" y="-152" on="1"/>
        <pt x="179" y="-46" on="1"/>
        <pt x="335" y="-46" on="1"/>
        <pt x="313" y="-152" on="1"/>
        <pt x="246" y="-213" on="1"/>
      </contour>
      <contour>
        <pt x="-3" y="0" on="1"/>
        <pt x="148" y="710" on="1"/>
        <pt x="460" y="710" on="1"/>
        <pt x="503" y="710" on="0"/>
        <pt x="571" y="675" on="0"/>
        <pt x="617" y="618" on="0"/>
        <pt x="642" y="544" on="0"/>
        <pt x="642" y="505" on="1"/>
        <pt x="642" y="470" on="0"/>
        <pt x="622" y="401" on="0"/>
        <pt x="585" y="337" on="0"/>
        <pt x="533" y="282" on="0"/>
        <pt x="501" y="261" on="1"/>
        <pt x="586" y="0" on="1"/>
        <pt x="366" y="0" on="1"/>
        <pt x="297" y="218" on="1"/>
        <pt x="238" y="218" on="1"/>
        <pt x="192" y="0" on="1"/>
      </contour>
      <contour>
        <pt x="383" y="388" on="1"/>
        <pt x="391" y="388" on="0"/>
        <pt x="411" y="402" on="0"/>
        <pt x="429" y="428" on="0"/>
        <pt x="441" y="464" on="0"/>
        <pt x="441" y="485" on="1"/>
        <pt x="441" y="511" on="0"/>
        <pt x="422" y="540" on="0"/>
        <pt x="410" y="540" on="1"/>
        <pt x="307" y="540" on="1"/>
        <pt x="275" y="388" on="1"/>
      </contour>
    </TTGlyph>
    <TTGlyph name="Rdblgrave" xMin="-3" yMin="0" xMax="642" yMax="918">
      <contour>
        <pt x="-3" y="0" on="1"/>
        <pt x="148" y="710" on="1"/>
        <pt x="460" y="710" on="1"/>
        <pt x="503" y="710" on="0"/>
        <pt x="571" y="675" on="0"/>
        <pt x="617" y="618" on="0"/>
        <pt x="642" y="544" on="0"/>
        <pt x="642" y="505" on="1"/>
        <pt x="642" y="470" on="0"/>
        <pt x="622" y="401" on="0"/>
        <pt x="585" y="337" on="0"/>
        <pt x="533" y="282" on="0"/>
        <pt x="501" y="261" on="1"/>
        <pt x="586" y="0" on="1"/>
        <pt x="366" y="0" on="1"/>
        <pt x="297" y="218" on="1"/>
        <pt x="238" y="218" on="1"/>
        <pt x="192" y="0" on="1"/>
      </contour>
      <contour>
        <pt x="383" y="388" on="1"/>
        <pt x="391" y="388" on="0"/>
        <pt x="411" y="402" on="0"/>
        <pt x="429" y="428" on="0"/>
        <pt x="441" y="464" on="0"/>
        <pt x="441" y="485" on="1"/>
        <pt x="441" y="511" on="0"/>
        <pt x="422" y="540" on="0"/>
        <pt x="410" y="540" on="1"/>
        <pt x="307" y="540" on="1"/>
        <pt x="275" y="388" on="1"/>
      </contour>
      <contour>
        <pt x="423" y="918" on="1"/>
        <pt x="560" y="918" on="1"/>
        <pt x="567" y="776" on="1"/>
        <pt x="467" y="762" on="1"/>
      </contour>
      <contour>
        <pt x="237" y="918" on="1"/>
        <pt x="375" y="918" on="1"/>
        <pt x="381" y="776" on="1"/>
        <pt x="281" y="762" on="1"/>
      </contour>
    </TTGlyph>
    <TTGlyph name="Rdotbelow" xMin="-3" yMin="-213" xMax="642" yMax="710">
      <contour>
        <pt x="-3" y="0" on="1"/>
        <pt x="148" y="710" on="1"/>
        <pt x="460" y="710" on="1"/>
        <pt x="503" y="710" on="0"/>
        <pt x="571" y="675" on="0"/>
        <pt x="617" y="618" on="0"/>
        <pt x="642" y="544" on="0"/>
        <pt x="642" y="505" on="1"/>
        <pt x="642" y="470" on="0"/>
        <pt x="622" y="401" on="0"/>
        <pt x="585" y="337" on="0"/>
        <pt x="533" y="282" on="0"/>
        <pt x="501" y="261" on="1"/>
        <pt x="586" y="0" on="1"/>
        <pt x="366" y="0" on="1"/>
        <pt x="297" y="218" on="1"/>
        <pt x="238" y="218" on="1"/>
        <pt x="192" y="0" on="1"/>
      </contour>
      <contour>
        <pt x="383" y="388" on="1"/>
        <pt x="391" y="388" on="0"/>
        <pt x="411" y="402" on="0"/>
        <pt x="429" y="428" on="0"/>
        <pt x="441" y="464" on="0"/>
        <pt x="441" y="485" on="1"/>
        <pt x="441" y="511" on="0"/>
        <pt x="422" y="540" on="0"/>
        <pt x="410" y="540" on="1"/>
        <pt x="307" y="540" on="1"/>
        <pt x="275" y="388" on="1"/>
      </contour>
      <contour>
        <pt x="138" y="-213" on="1"/>
        <pt x="170" y="-63" on="1"/>
        <pt x="340" y="-63" on="1"/>
        <pt x="308" y="-213" on="1"/>
      </contour>
    </TTGlyph>
    <TTGlyph name="Rinvertedbreve" xMin="-3" yMin="0" xMax="642" yMax="916">
      <contour>
        <pt x="-3" y="0" on="1"/>
        <pt x="148" y="710" on="1"/>
        <pt x="460" y="710" on="1"/>
        <pt x="503" y="710" on="0"/>
        <pt x="571" y="675" on="0"/>
        <pt x="617" y="618" on="0"/>
        <pt x="642" y="544" on="0"/>
        <pt x="642" y="505" on="1"/>
        <pt x="642" y="470" on="0"/>
        <pt x="622" y="401" on="0"/>
        <pt x="585" y="337" on="0"/>
        <pt x="533" y="282" on="0"/>
        <pt x="501" y="261" on="1"/>
        <pt x="586" y="0" on="1"/>
        <pt x="366" y="0" on="1"/>
        <pt x="297" y="218" on="1"/>
        <pt x="238" y="218" on="1"/>
        <pt x="192" y="0" on="1"/>
      </contour>
      <contour>
        <pt x="383" y="388" on="1"/>
        <pt x="391" y="388" on="0"/>
        <pt x="411" y="402" on="0"/>
        <pt x="429" y="428" on="0"/>
        <pt x="441" y="464" on="0"/>
        <pt x="441" y="485" on="1"/>
        <pt x="441" y="511" on="0"/>
        <pt x="422" y="540" on="0"/>
        <pt x="410" y="540" on="1"/>
        <pt x="307" y="540" on="1"/>
        <pt x="275" y="388" on="1"/>
      </contour>
      <contour>
        <pt x="261" y="754" on="1"/>
        <pt x="268" y="790" on="0"/>
        <pt x="304" y="849" on="0"/>
        <pt x="354" y="892" on="0"/>
        <pt x="416" y="916" on="0"/>
        <pt x="451" y="916" on="1"/>
        <pt x="513" y="916" on="0"/>
        <pt x="577" y="845" on="0"/>
        <pt x="577" y="791" on="1"/>
        <pt x="577" y="771" on="0"/>
        <pt x="573" y="754" on="1"/>
        <pt x="475" y="754" on="1"/>
        <pt x="478" y="772" on="0"/>
        <pt x="478" y="786" on="1"/>
        <pt x="478" y="835" on="0"/>
        <pt x="433" y="835" on="1"/>
        <pt x="409" y="835" on="0"/>
        <pt x="367" y="802" on="0"/>
        <pt x="358" y="754" on="1"/>
      </contour>
    </TTGlyph>
    <TTGlyph name="S" xMin="-33" yMin="-9" xMax="625" yMax="716">
      <contour>
        <pt x="245" y="-9" on="1"/>
        <pt x="208" y="-9" on="0"/>
        <pt x="132" y="3" on="0"/>
        <pt x="60" y="25" on="0"/>
        <pt x="-6" y="55" on="0"/>
        <pt x="-33" y="74" on="1"/>
        <pt x="87" y="244" on="1"/>
        <pt x="94" y="239" on="0"/>
        <pt x="130" y="213" on="0"/>
        <pt x="183" y="187" on="0"/>
        <pt x="249" y="167" on="0"/>
        <pt x="285" y="167" on="1"/>
        <pt x="319" y="167" on="0"/>
        <pt x="337" y="190" on="0"/>
        <pt x="337" y="204" on="1"/>
        <pt x="337" y="217" on="0"/>
        <pt x="315" y="236" on="0"/>
        <pt x="279" y="252" on="0"/>
        <pt x="232" y="267" on="0"/>
        <pt x="207" y="277" on="1"/>
        <pt x="141" y="303" on="0"/>
        <pt x="76" y="377" on="0"/>
        <pt x="76" y="434" on="1"/>
        <pt x="76" y="501" on="0"/>
        <pt x="130" y="606" on="0"/>
        <pt x="218" y="678" on="0"/>
        <pt x="329" y="716" on="0"/>
        <pt x="386" y="716" on="1"/>
        <pt x="423" y="716" on="0"/>
        <pt x="492" y="701" on="0"/>
        <pt x="553" y="678" on="0"/>
        <pt x="605" y="651" on="0"/>
        <pt x="625" y="639" on="1"/>
        <pt x="507" y="478" on="1"/>
        <pt x="506" y="479" on="0"/>
        <pt x="477" y="500" on="0"/>
        <pt x="431" y="524" on="0"/>
        <pt x="373" y="543" on="0"/>
        <pt x="343" y="543" on="1"/>
        <pt x="321" y="543" on="0"/>
        <pt x="290" y="523" on="0"/>
        <pt x="290" y="501" on="1"/>
        <pt x="290" y="478" on="0"/>
        <pt x="348" y="454" on="0"/>
        <pt x="396" y="437" on="1"/>
        <pt x="432" y="423" on="0"/>
        <pt x="491" y="393" on="0"/>
        <pt x="534" y="353" on="0"/>
        <pt x="557" y="299" on="0"/>
        <pt x="557" y="262" on="1"/>
        <pt x="557" y="186" on="0"/>
        <pt x="500" y="83" on="0"/>
        <pt x="410" y="19" on="0"/>
        <pt x="299" y="-9" on="0"/>
      </contour>
    </TTGlyph>
    <TTGlyph name="S.sc" xMin="-36" yMin="-8" xMax="526" yMax="573">
      <contour>
        <pt x="206" y="-8" on="1"/>
        <pt x="174" y="-8" on="0"/>
        <pt x="108" y="2" on="0"/>
        <pt x="45" y="19" on="0"/>
        <pt x="-13" y="43" on="0"/>
        <pt x="-36" y="57" on="1"/>
        <pt x="69" y="206" on="1"/>
        <pt x="71" y="201" on="0"/>
        <pt x="100" y="181" on="0"/>
        <pt x="147" y="161" on="0"/>
        <pt x="208" y="146" on="0"/>
        <pt x="242" y="146" on="1"/>
        <pt x="265" y="146" on="0"/>
        <pt x="282" y="156" on="0"/>
        <pt x="282" y="164" on="1"/>
        <pt x="282" y="173" on="0"/>
        <pt x="263" y="186" on="0"/>
        <pt x="231" y="197" on="0"/>
        <pt x="191" y="208" on="0"/>
        <pt x="169" y="216" on="1"/>
        <pt x="110" y="238" on="0"/>
        <pt x="54" y="300" on="0"/>
        <pt x="54" y="348" on="1"/>
        <pt x="54" y="402" on="0"/>
        <pt x="100" y="485" on="0"/>
        <pt x="175" y="543" on="0"/>
        <pt x="270" y="573" on="0"/>
        <pt x="319" y="573" on="1"/>
        <pt x="351" y="573" on="0"/>
        <pt x="410" y="561" on="0"/>
        <pt x="463" y="543" on="0"/>
        <pt x="508" y="521" on="0"/>
        <pt x="526" y="512" on="1"/>
        <pt x="424" y="371" on="1"/>
        <pt x="422" y="373" on="0"/>
        <pt x="396" y="390" on="0"/>
        <pt x="356" y="408" on="0"/>
        <pt x="307" y="422" on="0"/>
        <pt x="281" y="422" on="1"/>
        <pt x="263" y="422" on="0"/>
        <pt x="240" y="413" on="0"/>
        <pt x="240" y="402" on="1"/>
        <pt x="240" y="386" on="0"/>
        <pt x="291" y="369" on="0"/>
        <pt x="333" y="355" on="1"/>
        <pt x="365" y="344" on="0"/>
        <pt x="417" y="319" on="0"/>
        <pt x="454" y="286" on="0"/>
        <pt x="474" y="241" on="0"/>
        <pt x="474" y="211" on="1"/>
        <pt x="474" y="149" on="0"/>
        <pt x="425" y="65" on="0"/>
        <pt x="347" y="14" on="0"/>
        <pt x="252" y="-8" on="0"/>
      </contour>
    </TTGlyph>
    <TTGlyph name="Sacute" xMin="-33" yMin="-9" xMax="625" yMax="930">
      <contour>
        <pt x="454" y="776" on="1"/>
        <pt x="326" y="788" on="1"/>
        <pt x="403" y="930" on="1"/>
        <pt x="571" y="930" on="1"/>
      </contour>
      <contour>
        <pt x="245" y="-9" on="1"/>
        <pt x="208" y="-9" on="0"/>
        <pt x="132" y="3" on="0"/>
        <pt x="60" y="25" on="0"/>
        <pt x="-6" y="55" on="0"/>
        <pt x="-33" y="74" on="1"/>
        <pt x="87" y="244" on="1"/>
        <pt x="94" y="239" on="0"/>
        <pt x="130" y="213" on="0"/>
        <pt x="183" y="187" on="0"/>
        <pt x="249" y="167" on="0"/>
        <pt x="285" y="167" on="1"/>
        <pt x="319" y="167" on="0"/>
        <pt x="337" y="190" on="0"/>
        <pt x="337" y="204" on="1"/>
        <pt x="337" y="217" on="0"/>
        <pt x="315" y="236" on="0"/>
        <pt x="279" y="252" on="0"/>
        <pt x="232" y="267" on="0"/>
        <pt x="207" y="277" on="1"/>
        <pt x="141" y="303" on="0"/>
        <pt x="76" y="377" on="0"/>
        <pt x="76" y="434" on="1"/>
        <pt x="76" y="501" on="0"/>
        <pt x="130" y="606" on="0"/>
        <pt x="218" y="678" on="0"/>
        <pt x="329" y="716" on="0"/>
        <pt x="386" y="716" on="1"/>
        <pt x="423" y="716" on="0"/>
        <pt x="492" y="701" on="0"/>
        <pt x="553" y="678" on="0"/>
        <pt x="605" y="651" on="0"/>
        <pt x="625" y="639" on="1"/>
        <pt x="507" y="478" on="1"/>
        <pt x="506" y="479" on="0"/>
        <pt x="477" y="500" on="0"/>
        <pt x="431" y="524" on="0"/>
        <pt x="373" y="543" on="0"/>
        <pt x="343" y="543" on="1"/>
        <pt x="321" y="543" on="0"/>
        <pt x="290" y="523" on="0"/>
        <pt x="290" y="501" on="1"/>
        <pt x="290" y="478" on="0"/>
        <pt x="348" y="454" on="0"/>
        <pt x="396" y="437" on="1"/>
        <pt x="432" y="423" on="0"/>
        <pt x="491" y="393" on="0"/>
        <pt x="534" y="353" on="0"/>
        <pt x="557" y="299" on="0"/>
        <pt x="557" y="262" on="1"/>
        <pt x="557" y="186" on="0"/>
        <pt x="500" y="83" on="0"/>
        <pt x="410" y="19" on="0"/>
        <pt x="299" y="-9" on="0"/>
      </contour>
    </TTGlyph>
    <TTGlyph name="Scaron" xMin="-33" yMin="-9" xMax="625" yMax="930">
      <contour>
        <pt x="251" y="888" on="1"/>
        <pt x="356" y="930" on="1"/>
        <pt x="423" y="867" on="1"/>
        <pt x="517" y="930" on="1"/>
        <pt x="604" y="888" on="1"/>
        <pt x="471" y="773" on="1"/>
        <pt x="335" y="773" on="1"/>
      </contour>
      <contour>
        <pt x="245" y="-9" on="1"/>
        <pt x="208" y="-9" on="0"/>
        <pt x="132" y="3" on="0"/>
        <pt x="60" y="25" on="0"/>
        <pt x="-6" y="55" on="0"/>
        <pt x="-33" y="74" on="1"/>
        <pt x="87" y="244" on="1"/>
        <pt x="94" y="239" on="0"/>
        <pt x="130" y="213" on="0"/>
        <pt x="183" y="187" on="0"/>
        <pt x="249" y="167" on="0"/>
        <pt x="285" y="167" on="1"/>
        <pt x="319" y="167" on="0"/>
        <pt x="337" y="190" on="0"/>
        <pt x="337" y="204" on="1"/>
        <pt x="337" y="217" on="0"/>
        <pt x="315" y="236" on="0"/>
        <pt x="279" y="252" on="0"/>
        <pt x="232" y="267" on="0"/>
        <pt x="207" y="277" on="1"/>
        <pt x="141" y="303" on="0"/>
        <pt x="76" y="377" on="0"/>
        <pt x="76" y="434" on="1"/>
        <pt x="76" y="501" on="0"/>
        <pt x="130" y="606" on="0"/>
        <pt x="218" y="678" on="0"/>
        <pt x="329" y="716" on="0"/>
        <pt x="386" y="716" on="1"/>
        <pt x="423" y="716" on="0"/>
        <pt x="492" y="701" on="0"/>
        <pt x="553" y="678" on="0"/>
        <pt x="605" y="651" on="0"/>
        <pt x="625" y="639" on="1"/>
        <pt x="507" y="478" on="1"/>
        <pt x="506" y="479" on="0"/>
        <pt x="477" y="500" on="0"/>
        <pt x="431" y="524" on="0"/>
        <pt x="373" y="543" on="0"/>
        <pt x="343" y="543" on="1"/>
        <pt x="321" y="543" on="0"/>
        <pt x="290" y="523" on="0"/>
        <pt x="290" y="501" on="1"/>
        <pt x="290" y="478" on="0"/>
        <pt x="348" y="454" on="0"/>
        <pt x="396" y="437" on="1"/>
        <pt x="432" y="423" on="0"/>
        <pt x="491" y="393" on="0"/>
        <pt x="534" y="353" on="0"/>
        <pt x="557" y="299" on="0"/>
        <pt x="557" y="262" on="1"/>
        <pt x="557" y="186" on="0"/>
        <pt x="500" y="83" on="0"/>
        <pt x="410" y="19" on="0"/>
        <pt x="299" y="-9" on="0"/>
      </contour>
    </TTGlyph>
    <TTGlyph name="Schwa" xMin="15" yMin="-5" xMax="728" yMax="714">
      <contour>
        <pt x="296" y="-5" on="1"/>
        <pt x="222" y="-5" on="0"/>
        <pt x="116" y="48" on="0"/>
        <pt x="47" y="131" on="0"/>
        <pt x="15" y="234" on="0"/>
        <pt x="15" y="284" on="1"/>
        <pt x="15" y="326" on="0"/>
        <pt x="33" y="388" on="0"/>
        <pt x="43" y="411" on="1"/>
        <pt x="517" y="411" on="1"/>
        <pt x="518" y="418" on="0"/>
        <pt x="519" y="431" on="0"/>
        <pt x="519" y="437" on="1"/>
        <pt x="519" y="493" on="0"/>
        <pt x="457" y="543" on="0"/>
        <pt x="415" y="543" on="1"/>
        <pt x="396" y="543" on="0"/>
        <pt x="357" y="532" on="0"/>
        <pt x="321" y="512" on="0"/>
        <pt x="292" y="483" on="0"/>
        <pt x="283" y="464" on="1"/>
        <pt x="91" y="521" on="1"/>
        <pt x="148" y="608" on="0"/>
        <pt x="331" y="714" on="0"/>
        <pt x="449" y="714" on="1"/>
        <pt x="521" y="714" on="0"/>
        <pt x="626" y="662" on="0"/>
        <pt x="695" y="579" on="0"/>
        <pt x="728" y="475" on="0"/>
        <pt x="728" y="423" on="1"/>
        <pt x="728" y="353" on="0"/>
        <pt x="667" y="202" on="0"/>
        <pt x="555" y="76" on="0"/>
        <pt x="395" y="-5" on="0"/>
      </contour>
      <contour>
        <pt x="335" y="165" on="1"/>
        <pt x="386" y="165" on="0"/>
        <pt x="463" y="219" on="0"/>
        <pt x="482" y="268" on="1"/>
        <pt x="223" y="268" on="1"/>
        <pt x="220" y="256" on="0"/>
        <pt x="220" y="246" on="1"/>
        <pt x="220" y="208" on="0"/>
        <pt x="286" y="165" on="0"/>
      </contour>
    </TTGlyph>
    <TTGlyph name="Scircumflex" xMin="-33" yMin="-9" xMax="625" yMax="930">
      <contour>
        <pt x="243" y="815" on="1"/>
        <pt x="376" y="930" on="1"/>
        <pt x="512" y="930" on="1"/>
        <pt x="596" y="815" on="1"/>
        <pt x="491" y="773" on="1"/>
        <pt x="424" y="836" on="1"/>
        <pt x="330" y="773" on="1"/>
      </contour>
      <contour>
        <pt x="245" y="-9" on="1"/>
        <pt x="208" y="-9" on="0"/>
        <pt x="132" y="3" on="0"/>
        <pt x="60" y="25" on="0"/>
        <pt x="-6" y="55" on="0"/>
        <pt x="-33" y="74" on="1"/>
        <pt x="87" y="244" on="1"/>
        <pt x="94" y="239" on="0"/>
        <pt x="130" y="213" on="0"/>
        <pt x="183" y="187" on="0"/>
        <pt x="249" y="167" on="0"/>
        <pt x="285" y="167" on="1"/>
        <pt x="319" y="167" on="0"/>
        <pt x="337" y="190" on="0"/>
        <pt x="337" y="204" on="1"/>
        <pt x="337" y="217" on="0"/>
        <pt x="315" y="236" on="0"/>
        <pt x="279" y="252" on="0"/>
        <pt x="232" y="267" on="0"/>
        <pt x="207" y="277" on="1"/>
        <pt x="141" y="303" on="0"/>
        <pt x="76" y="377" on="0"/>
        <pt x="76" y="434" on="1"/>
        <pt x="76" y="501" on="0"/>
        <pt x="130" y="606" on="0"/>
        <pt x="218" y="678" on="0"/>
        <pt x="329" y="716" on="0"/>
        <pt x="386" y="716" on="1"/>
        <pt x="423" y="716" on="0"/>
        <pt x="492" y="701" on="0"/>
        <pt x="553" y="678" on="0"/>
        <pt x="605" y="651" on="0"/>
        <pt x="625" y="639" on="1"/>
        <pt x="507" y="478" on="1"/>
        <pt x="506" y="479" on="0"/>
        <pt x="477" y="500" on="0"/>
        <pt x="431" y="524" on="0"/>
        <pt x="373" y="543" on="0"/>
        <pt x="343" y="543" on="1"/>
        <pt x="321" y="543" on="0"/>
        <pt x="290" y="523" on="0"/>
        <pt x="290" y="501" on="1"/>
        <pt x="290" y="478" on="0"/>
        <pt x="348" y="454" on="0"/>
        <pt x="396" y="437" on="1"/>
        <pt x="432" y="423" on="0"/>
        <pt x="491" y="393" on="0"/>
        <pt x="534" y="353" on="0"/>
        <pt x="557" y="299" on="0"/>
        <pt x="557" y="262" on="1"/>
        <pt x="557" y="186" on="0"/>
        <pt x="500" y="83" on="0"/>
        <pt x="410" y="19" on="0"/>
        <pt x="299" y="-9" on="0"/>
      </contour>
    </TTGlyph>
    <TTGlyph name="Sdotbelow" xMin="-33" yMin="-213" xMax="625" yMax="716">
      <contour>
        <pt x="245" y="-9" on="1"/>
        <pt x="208" y="-9" on="0"/>
        <pt x="132" y="3" on="0"/>
        <pt x="60" y="25" on="0"/>
        <pt x="-6" y="55" on="0"/>
        <pt x="-33" y="74" on="1"/>
        <pt x="87" y="244" on="1"/>
        <pt x="94" y="239" on="0"/>
        <pt x="130" y="213" on="0"/>
        <pt x="183" y="187" on="0"/>
        <pt x="249" y="167" on="0"/>
        <pt x="285" y="167" on="1"/>
        <pt x="319" y="167" on="0"/>
        <pt x="337" y="190" on="0"/>
        <pt x="337" y="204" on="1"/>
        <pt x="337" y="217" on="0"/>
        <pt x="315" y="236" on="0"/>
        <pt x="279" y="252" on="0"/>
        <pt x="232" y="267" on="0"/>
        <pt x="207" y="277" on="1"/>
        <pt x="141" y="303" on="0"/>
        <pt x="76" y="377" on="0"/>
        <pt x="76" y="434" on="1"/>
        <pt x="76" y="501" on="0"/>
        <pt x="130" y="606" on="0"/>
        <pt x="218" y="678" on="0"/>
        <pt x="329" y="716" on="0"/>
        <pt x="386" y="716" on="1"/>
        <pt x="423" y="716" on="0"/>
        <pt x="492" y="701" on="0"/>
        <pt x="553" y="678" on="0"/>
        <pt x="605" y="651" on="0"/>
        <pt x="625" y="639" on="1"/>
        <pt x="507" y="478" on="1"/>
        <pt x="506" y="479" on="0"/>
        <pt x="477" y="500" on="0"/>
        <pt x="431" y="524" on="0"/>
        <pt x="373" y="543" on="0"/>
        <pt x="343" y="543" on="1"/>
        <pt x="321" y="543" on="0"/>
        <pt x="290" y="523" on="0"/>
        <pt x="290" y="501" on="1"/>
        <pt x="290" y="478" on="0"/>
        <pt x="348" y="454" on="0"/>
        <pt x="396" y="437" on="1"/>
        <pt x="432" y="423" on="0"/>
        <pt x="491" y="393" on="0"/>
        <pt x="534" y="353" on="0"/>
        <pt x="557" y="299" on="0"/>
        <pt x="557" y="262" on="1"/>
        <pt x="557" y="186" on="0"/>
        <pt x="500" y="83" on="0"/>
        <pt x="410" y="19" on="0"/>
        <pt x="299" y="-9" on="0"/>
      </contour>
      <contour>
        <pt x="116" y="-213" on="1"/>
        <pt x="148" y="-63" on="1"/>
        <pt x="318" y="-63" on="1"/>
        <pt x="286" y="-213" on="1"/>
      </contour>
    </TTGlyph>
    <TTGlyph name="T" xMin="63" yMin="0" xMax="675" yMax="710">
      <contour>
        <pt x="254" y="540" on="1"/>
        <pt x="63" y="540" on="1"/>
        <pt x="99" y="710" on="1"/>
        <pt x="675" y="710" on="1"/>
        <pt x="639" y="540" on="1"/>
        <pt x="449" y="540" on="1"/>
        <pt x="334" y="0" on="1"/>
        <pt x="139" y="0" on="1"/>
      </contour>
    </TTGlyph>
    <TTGlyph name="T.sc" xMin="38" yMin="0" xMax="589" yMax="568">
      <contour>
        <pt x="213" y="420" on="1"/>
        <pt x="38" y="420" on="1"/>
        <pt x="69" y="568" on="1"/>
        <pt x="589" y="568" on="1"/>
        <pt x="557" y="420" on="1"/>
        <pt x="384" y="420" on="1"/>
        <pt x="294" y="0" on="1"/>
        <pt x="123" y="0" on="1"/>
      </contour>
    </TTGlyph>
    <TTGlyph name="Tbar" xMin="53" yMin="0" xMax="684" yMax="710">
      <contour>
        <pt x="72" y="356" on="1"/>
        <pt x="224" y="356" on="1"/>
        <pt x="263" y="540" on="1"/>
        <pt x="72" y="540" on="1"/>
        <pt x="108" y="710" on="1"/>
        <pt x="684" y="710" on="1"/>
        <pt x="648" y="540" on="1"/>
        <pt x="458" y="540" on="1"/>
        <pt x="419" y="356" on="1"/>
        <pt x="571" y="356" on="1"/>
        <pt x="552" y="268" on="1"/>
        <pt x="400" y="268" on="1"/>
        <pt x="344" y="0" on="1"/>
        <pt x="149" y="0" on="1"/>
        <pt x="205" y="268" on="1"/>
        <pt x="53" y="268" on="1"/>
      </contour>
    </TTGlyph>
    <TTGlyph name="Tcaron" xMin="63" yMin="0" xMax="675" yMax="916">
      <contour>
        <pt x="239" y="874" on="1"/>
        <pt x="344" y="916" on="1"/>
        <pt x="411" y="853" on="1"/>
        <pt x="505" y="916" on="1"/>
        <pt x="592" y="874" on="1"/>
        <pt x="459" y="759" on="1"/>
        <pt x="323" y="759" on="1"/>
      </contour>
      <contour>
        <pt x="254" y="540" on="1"/>
        <pt x="63" y="540" on="1"/>
        <pt x="99" y="710" on="1"/>
        <pt x="675" y="710" on="1"/>
        <pt x="639" y="540" on="1"/>
        <pt x="449" y="540" on="1"/>
        <pt x="334" y="0" on="1"/>
        <pt x="139" y="0" on="1"/>
      </contour>
    </TTGlyph>
    <TTGlyph name="Tdotbelow" xMin="63" yMin="-213" xMax="675" yMax="710">
      <contour>
        <pt x="254" y="540" on="1"/>
        <pt x="63" y="540" on="1"/>
        <pt x="99" y="710" on="1"/>
        <pt x="675" y="710" on="1"/>
        <pt x="639" y="540" on="1"/>
        <pt x="449" y="540" on="1"/>
        <pt x="334" y="0" on="1"/>
        <pt x="139" y="0" on="1"/>
      </contour>
      <contour>
        <pt x="106" y="-213" on="1"/>
        <pt x="138" y="-63" on="1"/>
        <pt x="308" y="-63" on="1"/>
        <pt x="276" y="-213" on="1"/>
      </contour>
    </TTGlyph>
    <TTGlyph name="Thorn" xMin="-3" yMin="0" xMax="583" yMax="710">
      <contour>
        <pt x="148" y="710" on="1"/>
        <pt x="343" y="710" on="1"/>
        <pt x="318" y="592" on="1"/>
        <pt x="400" y="592" on="1"/>
        <pt x="443" y="592" on="0"/>
        <pt x="511" y="557" on="0"/>
        <pt x="558" y="500" on="0"/>
        <pt x="583" y="427" on="0"/>
        <pt x="583" y="388" on="1"/>
        <pt x="583" y="335" on="0"/>
        <pt x="538" y="233" on="0"/>
        <pt x="461" y="151" on="0"/>
        <pt x="359" y="101" on="0"/>
        <pt x="301" y="101" on="1"/>
        <pt x="213" y="101" on="1"/>
        <pt x="192" y="0" on="1"/>
        <pt x="-3" y="0" on="1"/>
      </contour>
      <contour>
        <pt x="327" y="271" on="1"/>
        <pt x="336" y="271" on="0"/>
        <pt x="357" y="286" on="0"/>
        <pt x="374" y="312" on="0"/>
        <pt x="386" y="347" on="0"/>
        <pt x="386" y="368" on="1"/>
        <pt x="386" y="394" on="0"/>
        <pt x="366" y="422" on="0"/>
        <pt x="354" y="422" on="1"/>
        <pt x="282" y="422" on="1"/>
        <pt x="250" y="271" on="1"/>
      </contour>
    </TTGlyph>
    <TTGlyph name="U" xMin="48" yMin="-6" xMax="750" yMax="710">
      <contour>
        <pt x="291" y="-6" on="1"/>
        <pt x="226" y="-6" on="0"/>
        <pt x="133" y="31" on="0"/>
        <pt x="75" y="97" on="0"/>
        <pt x="48" y="186" on="0"/>
        <pt x="48" y="238" on="1"/>
        <pt x="48" y="289" on="0"/>
        <pt x="60" y="345" on="1"/>
        <pt x="138" y="710" on="1"/>
        <pt x="333" y="710" on="1"/>
        <pt x="255" y="345" on="1"/>
        <pt x="247" y="305" on="0"/>
        <pt x="247" y="274" on="1"/>
        <pt x="247" y="227" on="0"/>
        <pt x="284" y="167" on="0"/>
        <pt x="328" y="167" on="1"/>
        <pt x="358" y="167" on="0"/>
        <pt x="406" y="197" on="0"/>
        <pt x="444" y="246" on="0"/>
        <pt x="469" y="310" on="0"/>
        <pt x="477" y="345" on="1"/>
        <pt x="555" y="710" on="1"/>
        <pt x="750" y="710" on="1"/>
        <pt x="672" y="345" on="1"/>
        <pt x="656" y="271" on="0"/>
        <pt x="592" y="142" on="0"/>
        <pt x="496" y="48" on="0"/>
        <pt x="369" y="-6" on="0"/>
      </contour>
    </TTGlyph>
    <TTGlyph name="U.sc" xMin="32" yMin="-5" xMax="641" yMax="568">
      <contour>
        <pt x="250" y="-5" on="1"/>
        <pt x="191" y="-5" on="0"/>
        <pt x="109" y="25" on="0"/>
        <pt x="56" y="79" on="0"/>
        <pt x="32" y="152" on="0"/>
        <pt x="32" y="195" on="1"/>
        <pt x="32" y="233" on="0"/>
        <pt x="41" y="275" on="1"/>
        <pt x="103" y="568" on="1"/>
        <pt x="273" y="568" on="1"/>
        <pt x="211" y="275" on="1"/>
        <pt x="209" y="263" on="0"/>
        <pt x="206" y="242" on="0"/>
        <pt x="206" y="231" on="1"/>
        <pt x="206" y="194" on="0"/>
        <pt x="241" y="146" on="0"/>
        <pt x="282" y="146" on="1"/>
        <pt x="309" y="146" on="0"/>
        <pt x="352" y="167" on="0"/>
        <pt x="383" y="203" on="0"/>
        <pt x="404" y="250" on="0"/>
        <pt x="409" y="275" on="1"/>
        <pt x="471" y="568" on="1"/>
        <pt x="641" y="568" on="1"/>
        <pt x="579" y="275" on="1"/>
        <pt x="566" y="215" on="0"/>
        <pt x="512" y="113" on="0"/>
        <pt x="429" y="38" on="0"/>
        <pt x="319" y="-5" on="0"/>
      </contour>
    </TTGlyph>
    <TTGlyph name="Uacute" xMin="47" yMin="-6" xMax="749" yMax="916">
      <contour>
        <pt x="501" y="762" on="1"/>
        <pt x="373" y="774" on="1"/>
        <pt x="450" y="916" on="1"/>
        <pt x="618" y="916" on="1"/>
      </contour>
      <contour>
        <pt x="290" y="-6" on="1"/>
        <pt x="225" y="-6" on="0"/>
        <pt x="132" y="31" on="0"/>
        <pt x="74" y="97" on="0"/>
        <pt x="47" y="186" on="0"/>
        <pt x="47" y="238" on="1"/>
        <pt x="47" y="289" on="0"/>
        <pt x="59" y="345" on="1"/>
        <pt x="137" y="710" on="1"/>
        <pt x="332" y="710" on="1"/>
        <pt x="254" y="345" on="1"/>
        <pt x="246" y="305" on="0"/>
        <pt x="246" y="274" on="1"/>
        <pt x="246" y="227" on="0"/>
        <pt x="283" y="167" on="0"/>
        <pt x="327" y="167" on="1"/>
        <pt x="357" y="167" on="0"/>
        <pt x="405" y="197" on="0"/>
        <pt x="443" y="246" on="0"/>
        <pt x="468" y="310" on="0"/>
        <pt x="476" y="345" on="1"/>
        <pt x="554" y="710" on="1"/>
        <pt x="749" y="710" on="1"/>
        <pt x="671" y="345" on="1"/>
        <pt x="655" y="271" on="0"/>
        <pt x="591" y="142" on="0"/>
        <pt x="495" y="48" on="0"/>
        <pt x="368" y="-6" on="0"/>
      </contour>
    </TTGlyph>
    <TTGlyph name="Ubreve" xMin="47" yMin="-6" xMax="749" yMax="916">
      <contour>
        <pt x="290" y="-6" on="1"/>
        <pt x="225" y="-6" on="0"/>
        <pt x="132" y="31" on="0"/>
        <pt x="74" y="97" on="0"/>
        <pt x="47" y="186" on="0"/>
        <pt x="47" y="238" on="1"/>
        <pt x="47" y="289" on="0"/>
        <pt x="59" y="345" on="1"/>
        <pt x="137" y="710" on="1"/>
        <pt x="332" y="710" on="1"/>
        <pt x="254" y="345" on="1"/>
        <pt x="246" y="305" on="0"/>
        <pt x="246" y="274" on="1"/>
        <pt x="246" y="227" on="0"/>
        <pt x="283" y="167" on="0"/>
        <pt x="327" y="167" on="1"/>
        <pt x="357" y="167" on="0"/>
        <pt x="405" y="197" on="0"/>
        <pt x="443" y="246" on="0"/>
        <pt x="468" y="310" on="0"/>
        <pt x="476" y="345" on="1"/>
        <pt x="554" y="710" on="1"/>
        <pt x="749" y="710" on="1"/>
        <pt x="671" y="345" on="1"/>
        <pt x="655" y="271" on="0"/>
        <pt x="591" y="142" on="0"/>
        <pt x="495" y="48" on="0"/>
        <pt x="368" y="-6" on="0"/>
      </contour>
      <contour>
        <pt x="452" y="835" on="1"/>
        <pt x="474" y="835" on="0"/>
        <pt x="516" y="881" on="0"/>
        <pt x="527" y="916" on="1"/>
        <pt x="625" y="916" on="1"/>
        <pt x="617" y="880" on="0"/>
        <pt x="582" y="821" on="0"/>
        <pt x="532" y="778" on="0"/>
        <pt x="469" y="754" on="0"/>
        <pt x="435" y="754" on="1"/>
        <pt x="375" y="754" on="0"/>
        <pt x="308" y="820" on="0"/>
        <pt x="308" y="875" on="1"/>
        <pt x="308" y="893" on="0"/>
        <pt x="313" y="916" on="1"/>
        <pt x="411" y="916" on="1"/>
        <pt x="408" y="904" on="0"/>
        <pt x="408" y="893" on="1"/>
        <pt x="408" y="868" on="0"/>
        <pt x="432" y="835" on="0"/>
      </contour>
    </TTGlyph>
    <TTGlyph name="Ucircumflex" xMin="47" yMin="-6" xMax="749" yMax="916">
      <contour>
        <pt x="284" y="801" on="1"/>
        <pt x="417" y="916" on="1"/>
        <pt x="553" y="916" on="1"/>
        <pt x="637" y="801" on="1"/>
        <pt x="532" y="759" on="1"/>
        <pt x="465" y="822" on="1"/>
        <pt x="371" y="759" on="1"/>
      </contour>
      <contour>
        <pt x="290" y="-6" on="1"/>
        <pt x="225" y="-6" on="0"/>
        <pt x="132" y="31" on="0"/>
        <pt x="74" y="97" on="0"/>
        <pt x="47" y="186" on="0"/>
        <pt x="47" y="238" on="1"/>
        <pt x="47" y="289" on="0"/>
        <pt x="59" y="345" on="1"/>
        <pt x="137" y="710" on="1"/>
        <pt x="332" y="710" on="1"/>
        <pt x="254" y="345" on="1"/>
        <pt x="246" y="305" on="0"/>
        <pt x="246" y="274" on="1"/>
        <pt x="246" y="227" on="0"/>
        <pt x="283" y="167" on="0"/>
        <pt x="327" y="167" on="1"/>
        <pt x="357" y="167" on="0"/>
        <pt x="405" y="197" on="0"/>
        <pt x="443" y="246" on="0"/>
        <pt x="468" y="310" on="0"/>
        <pt x="476" y="345" on="1"/>
        <pt x="554" y="710" on="1"/>
        <pt x="749" y="710" on="1"/>
        <pt x="671" y="345" on="1"/>
        <pt x="655" y="271" on="0"/>
        <pt x="591" y="142" on="0"/>
        <pt x="495" y="48" on="0"/>
        <pt x="368" y="-6" on="0"/>
      </contour>
    </TTGlyph>
    <TTGlyph name="Udblgrave" xMin="47" yMin="-6" xMax="749" yMax="918">
      <contour>
        <pt x="290" y="-6" on="1"/>
        <pt x="225" y="-6" on="0"/>
        <pt x="132" y="31" on="0"/>
        <pt x="74" y="97" on="0"/>
        <pt x="47" y="186" on="0"/>
        <pt x="47" y="238" on="1"/>
        <pt x="47" y="289" on="0"/>
        <pt x="59" y="345" on="1"/>
        <pt x="137" y="710" on="1"/>
        <pt x="332" y="710" on="1"/>
        <pt x="254" y="345" on="1"/>
        <pt x="246" y="305" on="0"/>
        <pt x="246" y="274" on="1"/>
        <pt x="246" y="227" on="0"/>
        <pt x="283" y="167" on="0"/>
        <pt x="327" y="167" on="1"/>
        <pt x="357" y="167" on="0"/>
        <pt x="405" y="197" on="0"/>
        <pt x="443" y="246" on="0"/>
        <pt x="468" y="310" on="0"/>
        <pt x="476" y="345" on="1"/>
        <pt x="554" y="710" on="1"/>
        <pt x="749" y="710" on="1"/>
        <pt x="671" y="345" on="1"/>
        <pt x="655" y="271" on="0"/>
        <pt x="591" y="142" on="0"/>
        <pt x="495" y="48" on="0"/>
        <pt x="368" y="-6" on="0"/>
      </contour>
      <contour>
        <pt x="474" y="918" on="1"/>
        <pt x="611" y="918" on="1"/>
        <pt x="618" y="776" on="1"/>
        <pt x="518" y="762" on="1"/>
      </contour>
      <contour>
        <pt x="288" y="918" on="1"/>
        <pt x="426" y="918" on="1"/>
        <pt x="432" y="776" on="1"/>
        <pt x="332" y="762" on="1"/>
      </contour>
    </TTGlyph>
    <TTGlyph name="Udieresis" xMin="47" yMin="-6" xMax="749" yMax="907">
      <contour>
        <pt x="262" y="767" on="1"/>
        <pt x="292" y="907" on="1"/>
        <pt x="448" y="907" on="1"/>
        <pt x="418" y="767" on="1"/>
      </contour>
      <contour>
        <pt x="487" y="767" on="1"/>
        <pt x="517" y="907" on="1"/>
        <pt x="672" y="907" on="1"/>
        <pt x="643" y="767" on="1"/>
      </contour>
      <contour>
        <pt x="290" y="-6" on="1"/>
        <pt x="225" y="-6" on="0"/>
        <pt x="132" y="31" on="0"/>
        <pt x="74" y="97" on="0"/>
        <pt x="47" y="186" on="0"/>
        <pt x="47" y="238" on="1"/>
        <pt x="47" y="289" on="0"/>
        <pt x="59" y="345" on="1"/>
        <pt x="137" y="710" on="1"/>
        <pt x="332" y="710" on="1"/>
        <pt x="254" y="345" on="1"/>
        <pt x="246" y="305" on="0"/>
        <pt x="246" y="274" on="1"/>
        <pt x="246" y="227" on="0"/>
        <pt x="283" y="167" on="0"/>
        <pt x="327" y="167" on="1"/>
        <pt x="357" y="167" on="0"/>
        <pt x="405" y="197" on="0"/>
        <pt x="443" y="246" on="0"/>
        <pt x="468" y="310" on="0"/>
        <pt x="476" y="345" on="1"/>
        <pt x="554" y="710" on="1"/>
        <pt x="749" y="710" on="1"/>
        <pt x="671" y="345" on="1"/>
        <pt x="655" y="271" on="0"/>
        <pt x="591" y="142" on="0"/>
        <pt x="495" y="48" on="0"/>
        <pt x="368" y="-6" on="0"/>
      </contour>
    </TTGlyph>
    <TTGlyph name="Udotbelow" xMin="47" yMin="-213" xMax="749" yMax="710">
      <contour>
        <pt x="290" y="-6" on="1"/>
        <pt x="225" y="-6" on="0"/>
        <pt x="132" y="31" on="0"/>
        <pt x="74" y="97" on="0"/>
        <pt x="47" y="186" on="0"/>
        <pt x="47" y="238" on="1"/>
        <pt x="47" y="289" on="0"/>
        <pt x="59" y="345" on="1"/>
        <pt x="137" y="710" on="1"/>
        <pt x="332" y="710" on="1"/>
        <pt x="254" y="345" on="1"/>
        <pt x="246" y="305" on="0"/>
        <pt x="246" y="274" on="1"/>
        <pt x="246" y="227" on="0"/>
        <pt x="283" y="167" on="0"/>
        <pt x="327" y="167" on="1"/>
        <pt x="357" y="167" on="0"/>
        <pt x="405" y="197" on="0"/>
        <pt x="443" y="246" on="0"/>
        <pt x="468" y="310" on="0"/>
        <pt x="476" y="345" on="1"/>
        <pt x="554" y="710" on="1"/>
        <pt x="749" y="710" on="1"/>
        <pt x="671" y="345" on="1"/>
        <pt x="655" y="271" on="0"/>
        <pt x="591" y="142" on="0"/>
        <pt x="495" y="48" on="0"/>
        <pt x="368" y="-6" on="0"/>
      </contour>
      <contour>
        <pt x="160" y="-213" on="1"/>
        <pt x="192" y="-63" on="1"/>
        <pt x="362" y="-63" on="1"/>
        <pt x="330" y="-213" on="1"/>
      </contour>
    </TTGlyph>
    <TTGlyph name="Ugrave" xMin="47" yMin="-6" xMax="749" yMax="917">
      <contour>
        <pt x="290" y="-6" on="1"/>
        <pt x="225" y="-6" on="0"/>
        <pt x="132" y="31" on="0"/>
        <pt x="74" y="97" on="0"/>
        <pt x="47" y="186" on="0"/>
        <pt x="47" y="238" on="1"/>
        <pt x="47" y="289" on="0"/>
        <pt x="59" y="345" on="1"/>
        <pt x="137" y="710" on="1"/>
        <pt x="332" y="710" on="1"/>
        <pt x="254" y="345" on="1"/>
        <pt x="246" y="305" on="0"/>
        <pt x="246" y="274" on="1"/>
        <pt x="246" y="227" on="0"/>
        <pt x="283" y="167" on="0"/>
        <pt x="327" y="167" on="1"/>
        <pt x="357" y="167" on="0"/>
        <pt x="405" y="197" on="0"/>
        <pt x="443" y="246" on="0"/>
        <pt x="468" y="310" on="0"/>
        <pt x="476" y="345" on="1"/>
        <pt x="554" y="710" on="1"/>
        <pt x="749" y="710" on="1"/>
        <pt x="671" y="345" on="1"/>
        <pt x="655" y="271" on="0"/>
        <pt x="591" y="142" on="0"/>
        <pt x="495" y="48" on="0"/>
        <pt x="368" y="-6" on="0"/>
      </contour>
      <contour>
        <pt x="350" y="917" on="1"/>
        <pt x="518" y="917" on="1"/>
        <pt x="535" y="775" on="1"/>
        <pt x="403" y="761" on="1"/>
      </contour>
    </TTGlyph>
    <TTGlyph name="Uhungarumlaut" xMin="47" yMin="-6" xMax="749" yMax="917">
      <contour>
        <pt x="290" y="-6" on="1"/>
        <pt x="225" y="-6" on="0"/>
        <pt x="132" y="31" on="0"/>
        <pt x="74" y="97" on="0"/>
        <pt x="47" y="186" on="0"/>
        <pt x="47" y="238" on="1"/>
        <pt x="47" y="289" on="0"/>
        <pt x="59" y="345" on="1"/>
        <pt x="137" y="710" on="1"/>
        <pt x="332" y="710" on="1"/>
        <pt x="254" y="345" on="1"/>
        <pt x="246" y="305" on="0"/>
        <pt x="246" y="274" on="1"/>
        <pt x="246" y="227" on="0"/>
        <pt x="283" y="167" on="0"/>
        <pt x="327" y="167" on="1"/>
        <pt x="357" y="167" on="0"/>
        <pt x="405" y="197" on="0"/>
        <pt x="443" y="246" on="0"/>
        <pt x="468" y="310" on="0"/>
        <pt x="476" y="345" on="1"/>
        <pt x="554" y="710" on="1"/>
        <pt x="749" y="710" on="1"/>
        <pt x="671" y="345" on="1"/>
        <pt x="655" y="271" on="0"/>
        <pt x="591" y="142" on="0"/>
        <pt x="495" y="48" on="0"/>
        <pt x="368" y="-6" on="0"/>
      </contour>
      <contour>
        <pt x="379" y="766" on="1"/>
        <pt x="280" y="775" on="1"/>
        <pt x="347" y="917" on="1"/>
        <pt x="485" y="917" on="1"/>
      </contour>
      <contour>
        <pt x="564" y="766" on="1"/>
        <pt x="466" y="775" on="1"/>
        <pt x="532" y="917" on="1"/>
        <pt x="670" y="917" on="1"/>
      </contour>
    </TTGlyph>
    <TTGlyph name="Uinvertedbreve" xMin="47" yMin="-6" xMax="749" yMax="916">
      <contour>
        <pt x="290" y="-6" on="1"/>
        <pt x="225" y="-6" on="0"/>
        <pt x="132" y="31" on="0"/>
        <pt x="74" y="97" on="0"/>
        <pt x="47" y="186" on="0"/>
        <pt x="47" y="238" on="1"/>
        <pt x="47" y="289" on="0"/>
        <pt x="59" y="345" on="1"/>
        <pt x="137" y="710" on="1"/>
        <pt x="332" y="710" on="1"/>
        <pt x="254" y="345" on="1"/>
        <pt x="246" y="305" on="0"/>
        <pt x="246" y="274" on="1"/>
        <pt x="246" y="227" on="0"/>
        <pt x="283" y="167" on="0"/>
        <pt x="327" y="167" on="1"/>
        <pt x="357" y="167" on="0"/>
        <pt x="405" y="197" on="0"/>
        <pt x="443" y="246" on="0"/>
        <pt x="468" y="310" on="0"/>
        <pt x="476" y="345" on="1"/>
        <pt x="554" y="710" on="1"/>
        <pt x="749" y="710" on="1"/>
        <pt x="671" y="345" on="1"/>
        <pt x="655" y="271" on="0"/>
        <pt x="591" y="142" on="0"/>
        <pt x="495" y="48" on="0"/>
        <pt x="368" y="-6" on="0"/>
      </contour>
      <contour>
        <pt x="301" y="754" on="1"/>
        <pt x="308" y="790" on="0"/>
        <pt x="344" y="849" on="0"/>
        <pt x="394" y="892" on="0"/>
        <pt x="456" y="916" on="0"/>
        <pt x="491" y="916" on="1"/>
        <pt x="553" y="916" on="0"/>
        <pt x="617" y="845" on="0"/>
        <pt x="617" y="791" on="1"/>
        <pt x="617" y="771" on="0"/>
        <pt x="613" y="754" on="1"/>
        <pt x="515" y="754" on="1"/>
        <pt x="518" y="772" on="0"/>
        <pt x="518" y="786" on="1"/>
        <pt x="518" y="835" on="0"/>
        <pt x="473" y="835" on="1"/>
        <pt x="449" y="835" on="0"/>
        <pt x="407" y="802" on="0"/>
        <pt x="398" y="754" on="1"/>
      </contour>
    </TTGlyph>
    <TTGlyph name="Umacron" xMin="47" yMin="-6" xMax="749" yMax="906">
      <contour>
        <pt x="290" y="-6" on="1"/>
        <pt x="225" y="-6" on="0"/>
        <pt x="132" y="31" on="0"/>
        <pt x="74" y="97" on="0"/>
        <pt x="47" y="186" on="0"/>
        <pt x="47" y="238" on="1"/>
        <pt x="47" y="289" on="0"/>
        <pt x="59" y="345" on="1"/>
        <pt x="137" y="710" on="1"/>
        <pt x="332" y="710" on="1"/>
        <pt x="254" y="345" on="1"/>
        <pt x="246" y="305" on="0"/>
        <pt x="246" y="274" on="1"/>
        <pt x="246" y="227" on="0"/>
        <pt x="283" y="167" on="0"/>
        <pt x="327" y="167" on="1"/>
        <pt x="357" y="167" on="0"/>
        <pt x="405" y="197" on="0"/>
        <pt x="443" y="246" on="0"/>
        <pt x="468" y="310" on="0"/>
        <pt x="476" y="345" on="1"/>
        <pt x="554" y="710" on="1"/>
        <pt x="749" y="710" on="1"/>
        <pt x="671" y="345" on="1"/>
        <pt x="655" y="271" on="0"/>
        <pt x="591" y="142" on="0"/>
        <pt x="495" y="48" on="0"/>
        <pt x="368" y="-6" on="0"/>
      </contour>
      <contour>
        <pt x="309" y="793" on="1"/>
        <pt x="333" y="906" on="1"/>
        <pt x="629" y="906" on="1"/>
        <pt x="605" y="793" on="1"/>
      </contour>
    </TTGlyph>
    <TTGlyph name="Uogonek" xMin="47" yMin="-214" xMax="749" yMax="710">
      <contour>
        <pt x="284" y="-214" on="1"/>
        <pt x="216" y="-206" on="0"/>
        <pt x="153" y="-157" on="0"/>
        <pt x="153" y="-125" on="1"/>
        <pt x="153" y="-96" on="0"/>
        <pt x="203" y="-33" on="0"/>
        <pt x="252" y="-4" on="1"/>
        <pt x="197" y="1" on="0"/>
        <pt x="119" y="42" on="0"/>
        <pt x="70" y="106" on="0"/>
        <pt x="47" y="190" on="0"/>
        <pt x="47" y="238" on="1"/>
        <pt x="47" y="289" on="0"/>
        <pt x="59" y="345" on="1"/>
        <pt x="137" y="710" on="1"/>
        <pt x="332" y="710" on="1"/>
        <pt x="254" y="345" on="1"/>
        <pt x="246" y="305" on="0"/>
        <pt x="246" y="274" on="1"/>
        <pt x="246" y="227" on="0"/>
        <pt x="283" y="167" on="0"/>
        <pt x="327" y="167" on="1"/>
        <pt x="357" y="167" on="0"/>
        <pt x="405" y="197" on="0"/>
        <pt x="443" y="246" on="0"/>
        <pt x="468" y="310" on="0"/>
        <pt x="476" y="345" on="1"/>
        <pt x="554" y="710" on="1"/>
        <pt x="749" y="710" on="1"/>
        <pt x="671" y="345" on="1"/>
        <pt x="657" y="280" on="0"/>
        <pt x="604" y="165" on="0"/>
        <pt x="527" y="75" on="0"/>
        <pt x="426" y="13" on="0"/>
        <pt x="364" y="1" on="1"/>
        <pt x="324" y="-22" on="0"/>
        <pt x="279" y="-64" on="0"/>
        <pt x="279" y="-82" on="1"/>
        <pt x="279" y="-96" on="0"/>
        <pt x="308" y="-114" on="0"/>
        <pt x="340" y="-114" on="1"/>
        <pt x="284" y="-214" on="1"/>
      </contour>
    </TTGlyph>
    <TTGlyph name="Uring" xMin="47" yMin="-6" xMax="749" yMax="916">
      <contour>
        <pt x="349" y="812" on="1"/>
        <pt x="349" y="863" on="0"/>
        <pt x="424" y="916" on="0"/>
        <pt x="485" y="916" on="1"/>
        <pt x="531" y="916" on="0"/>
        <pt x="583" y="881" on="0"/>
        <pt x="583" y="846" on="1"/>
        <pt x="583" y="795" on="0"/>
        <pt x="508" y="742" on="0"/>
        <pt x="448" y="742" on="1"/>
        <pt x="402" y="742" on="0"/>
        <pt x="349" y="777" on="0"/>
      </contour>
      <contour>
        <pt x="473" y="862" on="1"/>
        <pt x="454" y="862" on="0"/>
        <pt x="428" y="841" on="0"/>
        <pt x="428" y="824" on="1"/>
        <pt x="428" y="796" on="0"/>
        <pt x="459" y="796" on="1"/>
        <pt x="477" y="796" on="0"/>
        <pt x="505" y="818" on="0"/>
        <pt x="505" y="835" on="1"/>
        <pt x="505" y="847" on="0"/>
        <pt x="487" y="862" on="0"/>
      </contour>
      <contour>
        <pt x="290" y="-6" on="1"/>
        <pt x="225" y="-6" on="0"/>
        <pt x="132" y="31" on="0"/>
        <pt x="74" y="97" on="0"/>
        <pt x="47" y="186" on="0"/>
        <pt x="47" y="238" on="1"/>
        <pt x="47" y="289" on="0"/>
        <pt x="59" y="345" on="1"/>
        <pt x="137" y="710" on="1"/>
        <pt x="332" y="710" on="1"/>
        <pt x="254" y="345" on="1"/>
        <pt x="246" y="305" on="0"/>
        <pt x="246" y="274" on="1"/>
        <pt x="246" y="227" on="0"/>
        <pt x="283" y="167" on="0"/>
        <pt x="327" y="167" on="1"/>
        <pt x="357" y="167" on="0"/>
        <pt x="405" y="197" on="0"/>
        <pt x="443" y="246" on="0"/>
        <pt x="468" y="310" on="0"/>
        <pt x="476" y="345" on="1"/>
        <pt x="554" y="710" on="1"/>
        <pt x="749" y="710" on="1"/>
        <pt x="671" y="345" on="1"/>
        <pt x="655" y="271" on="0"/>
        <pt x="591" y="142" on="0"/>
        <pt x="495" y="48" on="0"/>
        <pt x="368" y="-6" on="0"/>
      </contour>
    </TTGlyph>
    <TTGlyph name="Utilde" xMin="47" yMin="-6" xMax="749" yMax="916">
      <contour>
        <pt x="290" y="-6" on="1"/>
        <pt x="225" y="-6" on="0"/>
        <pt x="132" y="31" on="0"/>
        <pt x="74" y="97" on="0"/>
        <pt x="47" y="186" on="0"/>
        <pt x="47" y="238" on="1"/>
        <pt x="47" y="289" on="0"/>
        <pt x="59" y="345" on="1"/>
        <pt x="137" y="710" on="1"/>
        <pt x="332" y="710" on="1"/>
        <pt x="254" y="345" on="1"/>
        <pt x="246" y="305" on="0"/>
        <pt x="246" y="274" on="1"/>
        <pt x="246" y="227" on="0"/>
        <pt x="283" y="167" on="0"/>
        <pt x="327" y="167" on="1"/>
        <pt x="357" y="167" on="0"/>
        <pt x="405" y="197" on="0"/>
        <pt x="443" y="246" on="0"/>
        <pt x="468" y="310" on="0"/>
        <pt x="476" y="345" on="1"/>
        <pt x="554" y="710" on="1"/>
        <pt x="749" y="710" on="1"/>
        <pt x="671" y="345" on="1"/>
        <pt x="655" y="271" on="0"/>
        <pt x="591" y="142" on="0"/>
        <pt x="495" y="48" on="0"/>
        <pt x="368" y="-6" on="0"/>
      </contour>
      <contour>
        <pt x="517" y="758" on="1"/>
        <pt x="495" y="758" on="0"/>
        <pt x="465" y="773" on="0"/>
        <pt x="440" y="791" on="0"/>
        <pt x="415" y="806" on="0"/>
        <pt x="399" y="806" on="1"/>
        <pt x="383" y="806" on="0"/>
        <pt x="362" y="792" on="0"/>
        <pt x="350" y="774" on="0"/>
        <pt x="346" y="759" on="0"/>
        <pt x="346" y="758" on="1"/>
        <pt x="245" y="758" on="1"/>
        <pt x="248" y="771" on="0"/>
        <pt x="274" y="824" on="0"/>
        <pt x="318" y="876" on="0"/>
        <pt x="378" y="916" on="0"/>
        <pt x="414" y="916" on="1"/>
        <pt x="438" y="916" on="0"/>
        <pt x="468" y="900" on="0"/>
        <pt x="493" y="881" on="0"/>
        <pt x="516" y="865" on="0"/>
        <pt x="532" y="865" on="1"/>
        <pt x="547" y="865" on="0"/>
        <pt x="569" y="880" on="0"/>
        <pt x="583" y="899" on="0"/>
        <pt x="590" y="915" on="0"/>
        <pt x="590" y="916" on="1"/>
        <pt x="690" y="916" on="1"/>
        <pt x="688" y="907" on="0"/>
        <pt x="661" y="856" on="0"/>
        <pt x="616" y="801" on="0"/>
        <pt x="554" y="758" on="0"/>
      </contour>
    </TTGlyph>
    <TTGlyph name="V" xMin="76" yMin="0" xMax="731" yMax="710">
      <contour>
        <pt x="76" y="710" on="1"/>
        <pt x="282" y="710" on="1"/>
        <pt x="306" y="245" on="1"/>
        <pt x="526" y="710" on="1"/>
        <pt x="731" y="710" on="1"/>
        <pt x="335" y="0" on="1"/>
        <pt x="173" y="0" on="1"/>
      </contour>
    </TTGlyph>
    <TTGlyph name="V.sc" xMin="48" yMin="0" xMax="639" yMax="568">
      <contour>
        <pt x="48" y="568" on="1"/>
        <pt x="228" y="568" on="1"/>
        <pt x="276" y="241" on="1"/>
        <pt x="460" y="568" on="1"/>
        <pt x="639" y="568" on="1"/>
        <pt x="295" y="0" on="1"/>
        <pt x="154" y="0" on="1"/>
      </contour>
    </TTGlyph>
    <TTGlyph name="W" xMin="69" yMin="0" xMax="1101" yMax="710">
      <contour>
        <pt x="69" y="710" on="1"/>
        <pt x="280" y="710" on="1"/>
        <pt x="315" y="223" on="1"/>
        <pt x="386" y="371" on="1"/>
        <pt x="350" y="710" on="1"/>
        <pt x="528" y="710" on="1"/>
        <pt x="538" y="491" on="1"/>
        <pt x="641" y="710" on="1"/>
        <pt x="820" y="710" on="1"/>
        <pt x="637" y="371" on="1"/>
        <pt x="648" y="223" on="1"/>
        <pt x="888" y="710" on="1"/>
        <pt x="1101" y="710" on="1"/>
        <pt x="687" y="0" on="1"/>
        <pt x="526" y="0" on="1"/>
        <pt x="487" y="254" on="1"/>
        <pt x="342" y="0" on="1"/>
        <pt x="181" y="0" on="1"/>
      </contour>
    </TTGlyph>
    <TTGlyph name="W.alt" xMin="84" yMin="0" xMax="1186" yMax="711">
      <contour>
        <pt x="84" y="710" on="1"/>
        <pt x="305" y="710" on="1"/>
        <pt x="324" y="295" on="1"/>
        <pt x="529" y="710" on="1"/>
        <pt x="741" y="710" on="1"/>
        <pt x="769" y="296" on="1"/>
        <pt x="964" y="711" on="1"/>
        <pt x="1186" y="711" on="1"/>
        <pt x="827" y="1" on="1"/>
        <pt x="625" y="1" on="1"/>
        <pt x="567" y="391" on="1"/>
        <pt x="343" y="0" on="1"/>
        <pt x="141" y="0" on="1"/>
      </contour>
    </TTGlyph>
    <TTGlyph name="W.sc" xMin="46" yMin="0" xMax="977" yMax="568">
      <contour>
        <pt x="46" y="568" on="1"/>
        <pt x="230" y="568" on="1"/>
        <pt x="292" y="204" on="1"/>
        <pt x="342" y="293" on="1"/>
        <pt x="302" y="568" on="1"/>
        <pt x="458" y="568" on="1"/>
        <pt x="475" y="397" on="1"/>
        <pt x="564" y="568" on="1"/>
        <pt x="721" y="568" on="1"/>
        <pt x="562" y="293" on="1"/>
        <pt x="576" y="204" on="1"/>
        <pt x="791" y="568" on="1"/>
        <pt x="977" y="568" on="1"/>
        <pt x="617" y="0" on="1"/>
        <pt x="476" y="0" on="1"/>
        <pt x="431" y="192" on="1"/>
        <pt x="305" y="0" on="1"/>
        <pt x="164" y="0" on="1"/>
      </contour>
    </TTGlyph>
</ttFont>
